<svg xmlns="http://www.w3.org/2000/svg" width="20" height="20" viewBox="0 0 20 20">
  <defs>
    <style>
      .a {
        fill: #7730e5;
      }

      .b {
        fill: #fff;
      }
    </style>
  </defs>
  <title>Ресурс 1</title>
  <g>
    <rect class="a" width="20" height="20"/>
    <path class="b" d="M17.23,18a.76.76,0,0,1-.55-.23L10,11.09,3.32,17.77a.76.76,0,0,1-1.07,0l0,0a.76.76,0,0,1,0-1.07l0,0L8.91,10,2.23,3.32a.76.76,0,0,1,0-1.07l0,0a.76.76,0,0,1,1.07,0l0,0L10,8.91l6.68-6.68a.76.76,0,0,1,1.07,0l0,0a.76.76,0,0,1,0,1.07l0,0L11.09,10l6.68,6.68a.76.76,0,0,1,0,1.07l0,0A.78.78,0,0,1,17.23,18Z"/>
  </g>
</svg>
