<svg xmlns="http://www.w3.org/2000/svg" width="16" height="16" viewBox="0 0 16 16">
  <defs>
    <style>
      .a {
        fill: #3c4242;
      }
    </style>
  </defs>
  <title>arrow_wishlist_link</title>
  <path class="a" d="M15.23,16a.78.78,0,0,1-.55-.23L8,9.09,1.32,15.77a.76.76,0,0,1-1.09,0,.76.76,0,0,1,0-1.09L6.91,8,.23,1.32A.76.76,0,0,1,.23.23a.76.76,0,0,1,1.09,0L8,6.91,14.68.23a.76.76,0,0,1,1.09,0,.76.76,0,0,1,0,1.09L9.09,8l6.68,6.68a.76.76,0,0,1,0,1.09A.78.78,0,0,1,15.23,16Z"/>
</svg>
