<svg xmlns="http://www.w3.org/2000/svg" width="20" height="19" viewBox="0 0 20 19"><defs><style>.cls-1{fill:#ffa722;}.cls-2{fill:#fff;}</style></defs><title>Ресурс 2</title><g id="Слой_2" data-name="Слой 2"><g id="Слой_1-2" data-name="Слой 1"><path class="cls-1" d="M9.15.61a.9.9,0,0,1,1.7,0L12.6,6a.89.89,0,0,0,.84.61h5.67a.88.88,0,0,1,.52,1.6l-4.58,3.31a.91.91,0,0,0-.33,1l1.76,5.36a.89.89,0,0,1-1.37,1l-4.59-3.31a.87.87,0,0,0-1,0L4.89,18.83a.89.89,0,0,1-1.37-1l1.76-5.36a.91.91,0,0,0-.33-1L.37,8.18a.88.88,0,0,1,.52-1.6H6.56A.89.89,0,0,0,7.4,6Z"/><path class="cls-2" d="M13.6,10.66a.64.64,0,0,0-.22.7l1.32,4.26a.62.62,0,0,1-.95.7l-3.38-2.74a.74.74,0,0,0-.37-.12V2.69a.59.59,0,0,1,.59.42l1.22,3.77a.61.61,0,0,0,.59.43l4.47,0a.62.62,0,0,1,.37,1.12Z"/></g></g></svg>