<svg xmlns="http://www.w3.org/2000/svg" width="20" height="19" viewBox="0 0 20 19"><defs><style>.cls-1{fill:#ffa722;}</style></defs><title>Ресурс 1</title><g id="Слой_2" data-name="Слой 2"><g id="Слой_1-2" data-name="Слой 1"><path class="cls-1" d="M9.15.61a.9.9,0,0,1,1.7,0L12.6,6a.89.89,0,0,0,.84.61h5.67a.88.88,0,0,1,.52,1.6l-4.58,3.31a.91.91,0,0,0-.33,1l1.76,5.36a.89.89,0,0,1-1.37,1l-4.59-3.31a.87.87,0,0,0-1,0L4.89,18.83a.89.89,0,0,1-1.37-1l1.76-5.36a.91.91,0,0,0-.33-1L.37,8.18a.88.88,0,0,1,.52-1.6H6.56A.89.89,0,0,0,7.4,6Z"/></g></g></svg>