<svg xmlns="http://www.w3.org/2000/svg" width="16" height="12" viewBox="0 0 16 12">
  <defs>
    <style>
      .a {
        fill: #224162;
      }
    </style>
  </defs>
  <title>envelope</title>
  <g>
    <path class="a" d="M0,3.5,6.52,8.38a2.06,2.06,0,0,0,3,0l6.08-4.55c.11-.09.24-.17.43-.31V9.85A2,2,0,0,1,13.84,12H2.14A2,2,0,0,1,0,9.88Z"/>
    <path class="a" d="M8,0h6.3a1.5,1.5,0,0,1,1.61,1.06,1.48,1.48,0,0,1-.69,1.76L8.81,7.65a1.08,1.08,0,0,1-1.61,0L.74,2.8A1.48,1.48,0,0,1,.09,1,1.49,1.49,0,0,1,1.67,0Z"/>
  </g>
</svg>
