<svg xmlns="http://www.w3.org/2000/svg" width="15.97" height="16" viewBox="0 0 15.97 16">
  <defs>
    <style>
      .a {
        fill: #224162;
      }
    </style>
  </defs>
  <title>phone</title>
  <g>
    <path class="a" d="M4.36,6.71a14.93,14.93,0,0,0,4.91,4.9c.28.18.55.36.84.52a16.15,16.15,0,0,0,5.37,1.76c0,.12-.05.25-.08.38C15.05,16.16,14.32,16.05,13,16A14,14,0,0,1,.24,4.61,16.41,16.41,0,0,1,0,2.09,1.23,1.23,0,0,1,1,.76C1.34.65,1.72.58,2.09.5c0,.18.07.35.1.53A14.53,14.53,0,0,0,4.36,6.71Z"/>
    <path class="a" d="M10.07,10.78c.23-.28.46-.57.71-.84a1.21,1.21,0,0,1,1.44-.35c1,.41,2,.83,3,1.27.73.32.89.93.55,2a12.89,12.89,0,0,1-5.5-1.75C10.2,11,10.15,10.88,10.07,10.78Z"/>
    <path class="a" d="M3.16.18C4.37-.21,4.82,0,5.3,1.15l1,2.38a1.3,1.3,0,0,1-.45,1.83l-.64.55c-.09-.07-.21-.11-.26-.19A13.1,13.1,0,0,1,3.16.18Z"/>
  </g>
</svg>
