<svg xmlns="http://www.w3.org/2000/svg" width="15.75" height="14" viewBox="0 0 15.75 14">
  <defs>
    <style>
      .a {
        fill: #224162;
      }
    </style>
  </defs>
  <title>home</title>
  <path class="a" d="M15.41,6.21,8.45.3C8-.11,7.77-.1,7.28.31L5.51,1.81.32,6.22a.65.65,0,0,0-.16,1c.24.3.58.31,1,0l.62-.49c0,1.69,0,3.26,0,4.83A2.19,2.19,0,0,0,4.15,14h7.43A2.19,2.19,0,0,0,14,11.56V7.24c0-.14,0-.27,0-.46l.57.44c.39.3.72.3,1,0A.66.66,0,0,0,15.41,6.21ZM5.17,12.69h.07v-4A1.11,1.11,0,0,1,6.45,7.44H9.28A1.11,1.11,0,0,1,10.5,8.66c0,1,0,2,0,3.06v1H5.17Z"/>
</svg>
