<svg xmlns="http://www.w3.org/2000/svg" width="36" height="36" viewBox="0 0 36 36">
  <defs>
    <style>
      .a {
        fill: #fe0000;
      }

      .b {
        fill: #fff;
        fill-rule: evenodd;
      }
    </style>
  </defs>
  <title>social_icon_telegram</title>
  <g>
    <path class="a" d="M0,17.28C0,9.13,0,5.06,2.53,2.53S9.13,0,17.28,0h1.44c8.15,0,12.22,0,14.75,2.53S36,9.13,36,17.28v1.44c0,8.15,0,12.22-2.53,14.75S26.87,36,18.72,36H17.28C9.13,36,5.06,36,2.53,33.47S0,26.87,0,18.72Z"/>
    <path class="b" d="M7.42,17.58q8.63-3.76,11.51-5c5.49-2.28,6.63-2.68,7.37-2.69a1.27,1.27,0,0,1,.77.23.92.92,0,0,1,.28.53,3.4,3.4,0,0,1,0,.78c-.3,3.12-1.58,10.7-2.24,14.2-.27,1.48-.82,2-1.35,2-1.15.11-2-.75-3.13-1.48-1.73-1.14-2.72-1.84-4.4-3-2-1.29-.69-2,.42-3.15.29-.3,5.35-4.9,5.44-5.31a.37.37,0,0,0-.09-.35.43.43,0,0,0-.41,0q-.26.06-8.33,5.5a3.73,3.73,0,0,1-2.14.8A14.37,14.37,0,0,1,8.08,20c-1.23-.4-2.22-.62-2.13-1.3C6,18.31,6.48,18,7.42,17.58Z"/>
  </g>
</svg>
