<svg xmlns="http://www.w3.org/2000/svg" width="36" height="36" viewBox="0 0 36 36">
  <defs>
    <style>
      .a {
        fill: #fe0000;
      }

      .b {
        fill: #fff;
      }
    </style>
  </defs>
  <title>social_icon_behance</title>
  <g>
    <path class="a" d="M0,17.28C0,9.13,0,5.06,2.53,2.53S9.13,0,17.28,0h1.44c8.15,0,12.22,0,14.75,2.53S36,9.13,36,17.28v1.44c0,8.15,0,12.22-2.53,14.75S26.87,36,18.72,36H17.28C9.13,36,5.06,36,2.53,33.47S0,26.87,0,18.72Z"/>
    <g>
      <path class="b" d="M13.89,10.91a7.75,7.75,0,0,1,1.73.17,4,4,0,0,1,1.34.58,2.64,2.64,0,0,1,.85,1.05,4,4,0,0,1,.31,1.64,3.19,3.19,0,0,1-.45,1.76,3.31,3.31,0,0,1-1.34,1.15,3.21,3.21,0,0,1,1.81,1.29,3.93,3.93,0,0,1,.6,2.23,4.06,4.06,0,0,1-.39,1.82,3.47,3.47,0,0,1-1,1.27,4.39,4.39,0,0,1-1.51.72,5.9,5.9,0,0,1-1.72.23H7.66V10.91Zm-.37,5.63a2,2,0,0,0,1.27-.39,1.53,1.53,0,0,0,.51-1.27,1.66,1.66,0,0,0-.17-.79,1.1,1.1,0,0,0-.45-.48,1.63,1.63,0,0,0-.63-.25,3.17,3.17,0,0,0-.75-.06H10.56v3.25h3Zm.17,5.92a3.26,3.26,0,0,0,.82-.08,2.17,2.17,0,0,0,.68-.3,1.37,1.37,0,0,0,.48-.56,2,2,0,0,0,.17-.9,1.9,1.9,0,0,0-.58-1.54,2.37,2.37,0,0,0-1.52-.45H10.57v3.83Z"/>
      <path class="b" d="M22.87,22.41a2.55,2.55,0,0,0,3.07.18,1.73,1.73,0,0,0,.7-.88H29a4.57,4.57,0,0,1-1.71,2.59,4.76,4.76,0,0,1-2.77.79,5.11,5.11,0,0,1-2-.39,4.18,4.18,0,0,1-1.54-1.08,5,5,0,0,1-1-1.68,6.23,6.23,0,0,1-.34-2.14A6.32,6.32,0,0,1,20,17.69a4.76,4.76,0,0,1,4.56-3.23,4.34,4.34,0,0,1,2.12.51,4.29,4.29,0,0,1,1.5,1.34A5.47,5.47,0,0,1,29,18.22a7.66,7.66,0,0,1,.18,2.24h-6.9A2.74,2.74,0,0,0,22.87,22.41Zm3-5.29a1.91,1.91,0,0,0-1.48-.56,2.2,2.2,0,0,0-1,.23,2.25,2.25,0,0,0-.67.56,2.05,2.05,0,0,0-.35.71,2.86,2.86,0,0,0-.13.66H26.5a2.92,2.92,0,0,0-.61-1.6Z"/>
      <rect class="b" x="21.68" y="11.84" width="5.35" height="1.37"/>
    </g>
  </g>
</svg>
