<svg xmlns="http://www.w3.org/2000/svg" width="36" height="36" viewBox="0 0 36 36">
  <defs>
    <style>
      .a {
        fill: #fe0000;
      }

      .b {
        fill: #fff;
      }
    </style>
  </defs>
  <title>social_icon_twitter</title>
  <g>
    <path class="a" d="M0,17.28C0,9.13,0,5.06,2.53,2.53S9.13,0,17.28,0h1.44c8.15,0,12.22,0,14.75,2.53S36,9.13,36,17.28v1.44c0,8.15,0,12.22-2.53,14.75S26.87,36,18.72,36H17.28C9.13,36,5.06,36,2.53,33.47S0,26.87,0,18.72Z"/>
    <path class="b" d="M14.57,26.62A11.67,11.67,0,0,0,26.32,14.87c0-.18,0-.36,0-.53a8.55,8.55,0,0,0,2.06-2.14,8.42,8.42,0,0,1-2.37.65,4.16,4.16,0,0,0,1.81-2.29,8.53,8.53,0,0,1-2.62,1,4.13,4.13,0,0,0-7,3.76A11.72,11.72,0,0,1,9.64,11a4.14,4.14,0,0,0,1.28,5.51A4.06,4.06,0,0,1,9.05,16v.05a4.12,4.12,0,0,0,3.31,4.05,4.18,4.18,0,0,1-1.86.08,4.12,4.12,0,0,0,3.85,2.86,8.22,8.22,0,0,1-5.14,1.77,7.93,7.93,0,0,1-1-.06,11.58,11.58,0,0,0,6.34,1.85"/>
  </g>
</svg>
