<svg xmlns="http://www.w3.org/2000/svg" width="36" height="36" viewBox="0 0 36 36">
  <defs>
    <style>
      .a {
        fill: #fe0000;
      }

      .b {
        fill: #fff;
      }
    </style>
  </defs>
  <title>social_icon_linkedIn</title>
  <g>
    <path class="a" d="M0,17.28C0,9.13,0,5.06,2.53,2.53S9.13,0,17.28,0h1.44c8.15,0,12.22,0,14.75,2.53S36,9.13,36,17.28v1.44c0,8.15,0,12.22-2.53,14.75S26.87,36,18.72,36H17.28C9.13,36,5.06,36,2.53,33.47S0,26.87,0,18.72Z"/>
    <g>
      <rect class="b" x="9.68" y="13.97" width="3.82" height="12.32"/>
      <path class="b" d="M23.23,13.73a3.9,3.9,0,0,0-3.57,2V14H16V26.29h3.81V20.13c0-1.6.37-3.2,2.35-3.2s2,1.84,2,3.32v6h3.82l-.12-6.66C27.8,16.31,27.18,13.73,23.23,13.73Z"/>
      <circle class="b" cx="11.53" cy="10.03" r="2.22"/>
    </g>
  </g>
</svg>
