<svg xmlns="http://www.w3.org/2000/svg" width="36" height="36" viewBox="0 0 36 36">
  <defs>
    <style>
      .a {
        fill: #fe0000;
      }

      .b {
        fill: #fff;
      }
    </style>
  </defs>
  <title>social_icon_youtube</title>
  <g>
    <path class="a" d="M0,17.28C0,9.13,0,5.06,2.53,2.53S9.13,0,17.28,0h1.44c8.15,0,12.22,0,14.75,2.53S36,9.13,36,17.28v1.44c0,8.15,0,12.22-2.53,14.75S26.87,36,18.72,36H17.28C9.13,36,5.06,36,2.53,33.47S0,26.87,0,18.72Z"/>
    <path class="b" d="M27.77,13A2.56,2.56,0,0,0,26,11.16c-1.6-.43-8-.43-8-.43s-6.41,0-8,.43A2.57,2.57,0,0,0,8.1,13a26.64,26.64,0,0,0-.43,4.94,26.64,26.64,0,0,0,.43,4.94,2.58,2.58,0,0,0,1.82,1.81c1.6.43,8,.43,8,.43s6.42,0,8-.43a2.58,2.58,0,0,0,1.82-1.81,26.64,26.64,0,0,0,.43-4.94A26.64,26.64,0,0,0,27.77,13ZM15.89,21V14.84l5.33,3.08Z"/>
  </g>
</svg>
