<svg xmlns="http://www.w3.org/2000/svg" width="36" height="36" viewBox="0 0 36 36">
  <defs>
    <style>
      .a {
        fill: #fe0000;
      }

      .b {
        fill: #fff;
      }
    </style>
  </defs>
  <title>social_icon_facebook</title>
  <g>
    <path class="a" d="M0,17.28C0,9.13,0,5.06,2.53,2.53S9.13,0,17.28,0h1.44c8.15,0,12.22,0,14.75,2.53S36,9.13,36,17.28v1.44c0,8.15,0,12.22-2.53,14.75S26.87,36,18.72,36H17.28C9.13,36,5.06,36,2.53,33.47S0,26.87,0,18.72Z"/>
    <path class="b" d="M19.52,19.64h3.25l.61-4.07H19.52V12.94a2,2,0,0,1,2.27-2.19h1.76V7.29A21.78,21.78,0,0,0,20.43,7C17.25,7,15.16,9,15.16,12.48v3.09H11.61v4.06h3.55v9.81h4.35Z"/>
  </g>
</svg>
