<svg xmlns="http://www.w3.org/2000/svg" width="36" height="36" viewBox="0 0 36 36">
  <defs>
    <style>
      .a {
        fill: #7e84fe;
      }

      .b {
        fill: #fff;
      }
    </style>
  </defs>
  <title>social_icon_youtube</title>
  <g>
    <path class="a" d="M0,0H36V36H0Z"/>
    <path class="b" d="M27.77,13A2.55,2.55,0,0,0,26,11.16c-1.6-.43-8-.43-8-.43s-6.41,0-8,.43A2.57,2.57,0,0,0,8.1,13a26.38,26.38,0,0,0-.43,4.94,26.38,26.38,0,0,0,.43,4.94,2.58,2.58,0,0,0,1.82,1.81c1.6.43,8,.43,8,.43s6.42,0,8-.43a2.58,2.58,0,0,0,1.82-1.81,26.38,26.38,0,0,0,.43-4.94A26.35,26.35,0,0,0,27.77,13ZM15.89,21V14.84l5.33,3.08Z"/>
  </g>
</svg>
