<svg xmlns="http://www.w3.org/2000/svg" width="36" height="36" viewBox="0 0 36 36">
  <defs>
    <style>
      .a {
        fill: #7e84fe;
      }

      .b {
        fill: #fff;
      }
    </style>
  </defs>
  <title>social_icon_twitter</title>
  <g>
    <path class="a" d="M0,0H36V36H0Z"/>
    <path class="b" d="M14.57,26.62A11.66,11.66,0,0,0,26.32,15v-.69a8.55,8.55,0,0,0,2.06-2.14,8.42,8.42,0,0,1-2.37.65,4.16,4.16,0,0,0,1.81-2.29,8.51,8.51,0,0,1-2.62,1,4.13,4.13,0,0,0-7,3.76A11.73,11.73,0,0,1,9.64,11a4.14,4.14,0,0,0,1.28,5.51A4.06,4.06,0,0,1,9.05,16v.05a4.12,4.12,0,0,0,3.31,4.05,4.18,4.18,0,0,1-1.86.08A4.12,4.12,0,0,0,14.35,23a8.2,8.2,0,0,1-5.14,1.77,8.39,8.39,0,0,1-1-.06,11.58,11.58,0,0,0,6.34,1.85"/>
  </g>
</svg>
