<?xml version="1.0" encoding="UTF-8"?><svg id="_Слой_1" xmlns="http://www.w3.org/2000/svg" width="20" height="20" viewBox="0 0 20 20"><defs><style>.cls-1{fill:#cf6f49;stroke-width:0px;}</style></defs><path class="cls-1" d="M19.65,8.64c.68-.61.31-1.77-.58-1.84l-5.26-.44c-.38-.03-.71-.28-.85-.64L10.93.64c-.34-.85-1.52-.85-1.86,0l-2.03,5.08c-.14.36-.47.61-.85.64l-5.26.44c-.89.07-1.26,1.23-.58,1.84l4.02,3.57c.28.25.41.66.32,1.04l-1.23,5.34c-.2.91.74,1.62,1.51,1.14l4.51-2.87c.32-.2.72-.2,1.04,0l4.51,2.87c.77.48,1.71-.23,1.51-1.14l-1.23-5.34c-.09-.38.04-.79.32-1.04l4.02-3.57ZM14.06,12.47l1.48,5.3c.18.58-.43.98-.87.61l-4.27-2.77c-.25-.15-.55-.15-.8,0l-4.27,2.89c-.71.49-.95.14-.72-.61l1.33-5.42c.07-.29-.03-.6-.25-.79l-4.18-3.25c-.52-.46-.27-.87.25-.85l5.34-.38c.29-.02.54-.21.65-.49l1.77-4.77c.2-.5.78-.5.98,0l1.77,4.77c.11.28.36.47.65.49l5.23.31c.57.02.8.63.4,1.06l-4.23,3.11c-.22.19-.32.5-.25.79Z"/></svg>