<?xml version="1.0" encoding="UTF-8"?><svg id="_Слой_2" xmlns="http://www.w3.org/2000/svg" width="14" height="15" viewBox="0 0 14 15"><defs><style>.cls-1{fill:#65665c;stroke-width:0px;}</style></defs><g id="_Слой_1-2"><path class="cls-1" d="M8.7,8.8h1.44c0,1.05-.3,1.84-.89,2.36-.59.52-1.38.78-2.39.78-.7,0-1.3-.16-1.82-.49-.51-.33-.9-.78-1.18-1.36-.28-.58-.41-1.26-.41-2.02v-1.15c0-.77.14-1.44.41-2.02.28-.58.68-1.04,1.18-1.36.51-.33,1.12-.49,1.82-.49,1.01,0,1.81.26,2.4.78.59.52.89,1.31.89,2.35h-1.44c0-.66-.16-1.14-.47-1.42-.31-.29-.77-.43-1.37-.43-.43,0-.8.11-1.1.33-.3.22-.52.53-.67.92-.15.39-.23.83-.23,1.33v1.16c0,.51.08.96.23,1.35.15.39.37.69.67.91s.66.33,1.1.33c.61,0,1.06-.14,1.37-.43.31-.29.46-.76.46-1.43ZM1.13,7.48c0,.89.15,1.72.45,2.48.3.77.72,1.44,1.26,2.01.54.57,1.16,1.02,1.87,1.34.71.32,1.47.48,2.28.48s1.57-.16,2.27-.48c.71-.32,1.33-.77,1.86-1.34.54-.57.96-1.25,1.26-2.01.3-.77.45-1.6.45-2.48s-.15-1.72-.45-2.48c-.3-.76-.72-1.43-1.26-1.99-.53-.57-1.15-1.02-1.86-1.33-.7-.32-1.46-.48-2.27-.48s-1.57.16-2.28.48c-.71.31-1.34.76-1.87,1.33-.54.57-.96,1.23-1.26,1.99-.3.76-.45,1.59-.45,2.48ZM0,7.48c0-1.06.18-2.05.54-2.96.36-.91.86-1.7,1.51-2.37.64-.68,1.39-1.21,2.23-1.58.85-.38,1.76-.57,2.72-.57s1.87.19,2.71.57c.85.37,1.59.9,2.23,1.58.64.67,1.15,1.47,1.51,2.37.36.91.54,1.89.54,2.96s-.18,2.05-.54,2.96c-.36.91-.86,1.71-1.51,2.39-.64.68-1.38,1.21-2.23,1.59-.84.38-1.75.57-2.71.57s-1.87-.19-2.72-.57c-.84-.38-1.59-.91-2.23-1.59-.64-.69-1.15-1.49-1.51-2.39-.36-.91-.54-1.89-.54-2.96Z"/></g></svg>