<?xml version="1.0" encoding="UTF-8"?><svg id="_Слой_2" xmlns="http://www.w3.org/2000/svg" width="20" height="19.88" viewBox="0 0 20 19.88"><defs><style>.cls-1{fill:#cf6f49;stroke-width:0px;}</style></defs><g id="_Слой_1-2"><path class="cls-1" d="M19.65,8.64c.68-.61.31-1.77-.58-1.84l-5.26-.44c-.38-.03-.71-.28-.85-.64L10.93.64c-.34-.85-1.52-.85-1.86,0l-2.03,5.08c-.14.36-.47.61-.85.64l-5.26.44c-.89.07-1.26,1.23-.58,1.84l4.02,3.57c.28.25.41.66.32,1.04l-1.23,5.34c-.2.91.74,1.62,1.51,1.14l4.51-2.87c.32-.2.72-.2,1.04,0l4.51,2.87c.77.48,1.71-.23,1.51-1.14l-1.23-5.34c-.09-.38.04-.79.32-1.04l4.02-3.57ZM13.71,11.47c-.19.17-.27.43-.21.69l1.14,4.4c.15.5-.38.85-.76.53l-3.56-2.54c-.21-.13-.48-.13-.69,0l-3.7,2.83c-.51.43-.94-.01-.69-.6l1.22-4.62c.05-.26-.03-.52-.22-.69l-3.66-2.73c-.45-.4-.16-.95.29-.93l4.58-.22c.25-.02.47-.18.57-.42l1.53-4.14c.17-.43.68-.43.85,0l1.54,4.14c.09.24.31.4.56.42l4.27.29c.5.02.69.55.35.93l-3.41,2.66Z"/></g></svg>