<svg xmlns="http://www.w3.org/2000/svg" width="28" height="20.93" viewBox="0 0 28 20.93">
  <defs>
    <style>
      .a {
        fill: #fff;
      }
    </style>
  </defs>
  <title>Ресурс 1</title>
  <g>
    <path class="a" d="M17.14.2,27.42,10.42m0,0L17.14,20.63M27.42,10.42H0"/>
    <path class="a" d="M17.14,20.64h0a1,1,0,0,1,0-1.42l0,0,7.48-7.43a.19.19,0,0,0,0-.27.17.17,0,0,0-.12-.05H1a1,1,0,0,1-1-1H0a1,1,0,0,1,1-1H24.48a.2.2,0,0,0,.19-.19.19.19,0,0,0-.05-.13l-7.55-7.5a.91.91,0,0,1,0-1.29h0a1.11,1.11,0,0,1,1.57,0l0,0,8.74,8.6a2,2,0,0,1,0,2.89h0l-8.83,8.78a1,1,0,0,1-1.41,0Z"/>
  </g>
</svg>
