<?xml version="1.0" encoding="UTF-8"?><svg id="_Слой_2" xmlns="http://www.w3.org/2000/svg" width="42" height="42" viewBox="0 0 42 42"><g id="_Слой_1-2"><path d="M27.86,42h-15.32c-3.34,0-6.07-2.75-6.07-6.13V10.67h2.03v25.2c0,2.25,1.81,4.08,4.03,4.08h15.32v2.05Z" style="fill:#40ddb6; stroke-width:0px;"/><path d="M35.92,17.17h-2.03V6c0-2.17-1.75-3.94-3.9-3.94H4.09V0h25.89c3.27,0,5.93,2.69,5.93,6v11.18Z" style="fill:#40ddb6; stroke-width:0px;"/><path d="M8.5,10.83H0v-6.54C0,1.93,1.91,0,4.25,0s4.25,1.93,4.25,4.29v6.54ZM2.03,8.78h4.43v-4.48c0-1.23-.99-2.24-2.22-2.24s-2.22,1-2.22,2.24v4.48Z" style="fill:#40ddb6; stroke-width:0px;"/><path d="M34.07,34.37l-2.57-1.73-3.03-.61-.6-3.07-1.72-2.6,1.72-2.6.6-3.07,3.03-.61,2.57-1.74,2.57,1.74,3.03.61.61,3.07,1.72,2.6-1.72,2.6-.61,3.07-3.03.61-2.57,1.73ZM30.2,30.27l2.1.42,1.78,1.2,1.78-1.2,2.1-.42.42-2.12,1.19-1.8-1.19-1.8-.42-2.12-2.1-.42-1.78-1.2-1.78,1.2-2.1.42-.42,2.12-1.19,1.8,1.19,1.8.42,2.12Z" style="fill:#40ddb6; stroke-width:0px;"/><polygon points="38.79 41.94 34.07 38.75 29.35 41.94 29.35 31 31.39 31 31.39 38.09 34.07 36.27 36.76 38.09 36.76 31 38.79 31 38.79 41.94" style="fill:#40ddb6; stroke-width:0px;"/><rect x="14.23" y="7.54" width="12.19" height="2.05" style="fill:#40ddb6; stroke-width:0px;"/><rect x="14.23" y="13.87" width="12.19" height="2.05" style="fill:#40ddb6; stroke-width:0px;"/><rect x="14.23" y="20.13" width="12.19" height="2.05" style="fill:#40ddb6; stroke-width:0px;"/><rect x="14.23" y="26.25" width="8.08" height="2.05" style="fill:#40ddb6; stroke-width:0px;"/><rect x="14.23" y="32.51" width="8.08" height="2.05" style="fill:#40ddb6; stroke-width:0px;"/></g></svg>