<?xml version="1.0" encoding="UTF-8"?><svg id="_Слой_2" xmlns="http://www.w3.org/2000/svg" width="42" height="42" viewBox="0 0 42 42"><g id="_Слой_1-2"><path d="M30.93,22.87l-3.47-2.77-4.35-.58-.56-4.5-2.68-3.59,2.68-3.59.56-4.5,4.35-.58,3.47-2.77,3.47,2.77,4.35.58.56,4.5,2.68,3.59-2.68,3.59-.56,4.5-4.35.58-3.47,2.77ZM24.9,17.66l3.35.45,2.68,2.13,2.68-2.13,3.35-.45.43-3.46,2.07-2.76-2.07-2.76-.43-3.46-3.35-.45-2.68-2.13-2.68,2.13-3.35.45-.43,3.46-2.07,2.76,2.07,2.76.43,3.46Z" style="fill:#40ddb6; stroke-width:0px;"/><polygon points="24.6 32.17 24.6 18.26 26.61 18.26 26.61 28.28 30.93 25.29 35.26 28.28 35.26 18.26 37.27 18.26 37.27 32.17 30.93 27.79 24.6 32.17" style="fill:#40ddb6; stroke-width:0px;"/><path d="M15.77,26.54c-5.11,0-9.43-4.13-9.83-9.39l-1.12-14.83h17.09v2.08H6.99l.96,12.59c.32,4.19,3.76,7.48,7.83,7.48,2.54,0,4.94-1.28,6.41-3.43l1.64,1.2c-1.85,2.69-4.86,4.3-8.05,4.3Z" style="fill:#40ddb6; stroke-width:0px;"/><path d="M6.7,18.13h-2.22c-1.59,0-2.94-1.23-3.13-2.87L.03,8.79c-.12-1.01.16-1.94.76-2.63s1.46-1.09,2.35-1.09h2.96v2.08h-2.96c-.33,0-.63.14-.85.39-.22.25-.32.58-.28.92l1.33,6.47c.08.68.57,1.13,1.14,1.13h2.22v2.08Z" style="fill:#40ddb6; stroke-width:0px;"/><path d="M20.56,33.87c-3.07-2.72-3.58-8.49-3.6-8.73l2-.18c0,.05.47,5.17,2.91,7.34l-1.31,1.58Z" style="fill:#40ddb6; stroke-width:0px;"/><path d="M11.14,33.87l-1.31-1.58c2.03-1.8,2.79-5.91,2.91-7.34l2,.18c-.02.24-.54,6.02-3.6,8.73Z" style="fill:#40ddb6; stroke-width:0px;"/><path d="M25.1,38.58H6.6v-3.55c0-1.8,1.35-3.27,3-3.27h12.5c1.65,0,3,1.47,3,3.27v3.55ZM8.61,36.5h14.48v-1.47c0-.66-.44-1.19-.99-1.19h-12.5c-.55,0-.99.54-.99,1.19v1.47Z" style="fill:#40ddb6; stroke-width:0px;"/><path d="M26.98,42H4.72v-2.23c0-1.8,1.35-3.27,3-3.27h16.27c1.65,0,3,1.47,3,3.27v2.23ZM6.73,39.92h18.24v-.15c0-.66-.44-1.19-.99-1.19H7.72c-.55,0-.99.54-.99,1.19v.15Z" style="fill:#40ddb6; stroke-width:0px;"/><path d="M26.98,42H4.72v-2.23c0-1.8,1.35-3.27,3-3.27h16.27c1.65,0,3,1.47,3,3.27v2.23ZM6.73,39.92h18.24v-.15c0-.66-.44-1.19-.99-1.19H7.72c-.55,0-.99.54-.99,1.19v.15Z" style="fill:#40ddb6; stroke-width:0px;"/><polygon points="29.49 16.95 26.18 14.42 27.37 12.75 29.11 14.08 34.56 6.9 36.14 8.19 29.49 16.95" style="fill:#40ddb6; stroke-width:0px;"/></g></svg>