<svg xmlns="http://www.w3.org/2000/svg" width="23.58" height="20.99" viewBox="0 0 23.58 20.99">
  <defs>
    <style>
      .a {
        fill: #25377c;
      }
    </style>
  </defs>
  <title>icon_home</title>
  <path class="a" d="M23.09,9.3,12.66.45c-.67-.61-1-.6-1.75,0L8.26,2.71.49,9.32a1,1,0,0,0-.36,1.33.88.88,0,0,0,.12.17c.36.44.87.46,1.5,0l.93-.74v7.23A3.28,3.28,0,0,0,5.55,21a3.85,3.85,0,0,0,.68,0H17.35A3.29,3.29,0,0,0,21,17.31V10.16l.85.66q.87.66,1.5,0a1,1,0,0,0-.08-1.4ZM7.75,19h.11V13a1.67,1.67,0,0,1,1.43-1.87,1.6,1.6,0,0,1,.38,0h4.24a1.66,1.66,0,0,1,1.82,1.48,1,1,0,0,1,0,.35v6.08h-8Z"/>
</svg>
