<svg xmlns="http://www.w3.org/2000/svg" width="22" height="17.86" viewBox="0 0 22 17.86">
  <defs>
    <style>
      .a {
        fill: #03a9f4;
      }
    </style>
  </defs>
  <title>Twitter-2</title>
  <path class="a" d="M6.93,17.86A12.75,12.75,0,0,0,19.76,5c0-.19,0-.39,0-.58A9.27,9.27,0,0,0,22,2.1a8.67,8.67,0,0,1-2.59.71,4.53,4.53,0,0,0,2-2.49,9.11,9.11,0,0,1-2.86,1.09,4.51,4.51,0,0,0-7.68,4.12A12.8,12.8,0,0,1,1.55.81a4.52,4.52,0,0,0,1.39,6,4.56,4.56,0,0,1-2-.57v.07a4.52,4.52,0,0,0,3.62,4.42,4.54,4.54,0,0,1-2,.08A4.52,4.52,0,0,0,6.68,14,9,9,0,0,1,1.07,15.9,9.59,9.59,0,0,1,0,15.84a12.88,12.88,0,0,0,6.93,2"/>
</svg>
