<svg xmlns="http://www.w3.org/2000/svg" width="30" height="30" viewBox="0 0 30 30">
  <defs>
    <style>
      .a {
        fill: #1da1f2;
      }

      .b {
        fill: #fff;
      }
    </style>
  </defs>
  <title>twitter_icon</title>
  <g>
    <circle class="a" cx="15" cy="15" r="15"/>
    <path class="b" d="M12.42,21.57a8.84,8.84,0,0,0,8.9-8.9c0-.14,0-.27,0-.41a6.36,6.36,0,0,0,1.57-1.62,6.35,6.35,0,0,1-1.8.5A3.16,3.16,0,0,0,22.45,9.4a5.9,5.9,0,0,1-2,.76A3.14,3.14,0,0,0,15.13,13,8.93,8.93,0,0,1,8.68,9.75a3.14,3.14,0,0,0,1,4.18,3.1,3.1,0,0,1-1.42-.4v0a3.13,3.13,0,0,0,2.51,3.07,3.06,3.06,0,0,1-1.41.06,3.14,3.14,0,0,0,2.93,2.17,6.27,6.27,0,0,1-4.63,1.3,8.92,8.92,0,0,0,4.79,1.4"/>
  </g>
</svg>
