<svg xmlns="http://www.w3.org/2000/svg" width="290.75" height="291.76" viewBox="0 0 290.75 291.76">
  <defs>
    <style>
      .a {
        fill: #fff;
      }

      .b {
        fill: #62c7ca;
        stroke: #62c7ca;
        stroke-miterlimit: 10;
        stroke-width: 0.75px;
      }
    </style>
  </defs>
  <title>Ресурс 8</title>
  <g>
    <rect class="a" x="0.38" y="1.76" width="290" height="290"/>
    <path class="b" d="M119.69,240.07c-3.27-4.73-11.87-6.89-18.48-6.89a27.09,27.09,0,0,0-5.61.55c-6.21,1.34-11.52,2.54-16.19,3.6-12.53,2.85-20.09,4.56-26.37,4.56-5.24,0-9.72-1.16-16-4.16a149.53,149.53,0,0,1-15.23-8.51C15.75,225.47,11.75,223,6.27,223a23.46,23.46,0,0,0-5.89.84v.46a23.17,23.17,0,0,1,5.89-.85c5.35,0,9.31,2.45,15.31,6.17a149.23,149.23,0,0,0,15.27,8.52c6.34,3,10.88,4.21,16.19,4.21,6.33,0,13.91-1.72,26.47-4.57,4.67-1.06,10-2.26,16.18-3.6a26.23,26.23,0,0,1,5.52-.54c6.49,0,14.93,2.1,18.11,6.69a7.06,7.06,0,0,1,.68,6.85c-1.9,5-10.76,9.46-18.58,13.38-4.73,2.37-9.19,4.6-11.49,6.68-6.7,6.06-5.1,14.28-2.37,23.15H88c-2.7-8.78-4.33-16.9,2.21-22.82,2.25-2,6.68-4.25,11.38-6.61,7.89-3.95,16.84-8.43,18.8-13.62A7.46,7.46,0,0,0,119.69,240.07Z"/>
    <path class="b" d="M2.42,188.49c.92-19.88,13.59-34.37,23.77-46l.72-.83c1.19-1.24,3.91-4.57,3.7-8.58a9.24,9.24,0,0,0-3.6-6.58c-1.36-1.15-2.61-2.23-3.8-3.25A177.73,177.73,0,0,0,7.32,110.67C5,109,2.64,107.48.38,106v.23c2.23,1.43,4.51,3,6.83,4.57a175.51,175.51,0,0,1,15.87,12.56l3.8,3.25a9,9,0,0,1,3.53,6.44c.21,3.94-2.47,7.21-3.64,8.44l-.73.83C15.84,154,3.15,168.54,2.23,188.48c-.1,2.12-.93,3.42-1.85,3.87v.23C1.38,192.16,2.31,190.85,2.42,188.49Z"/>
    <path class="b" d="M115.3,270.25A4.45,4.45,0,0,0,112,269c-4,0-9.12,4-10.81,5.83-6.23,6.73-6.94,10.5-5.7,15.58h.34c-1.24-5-.54-8.73,5.6-15.36,1.66-1.8,6.62-5.73,10.57-5.73a4.15,4.15,0,0,1,3,1.18c1.35,1.35,2,3.86,2,7.45a55.21,55.21,0,0,1-1.72,12.46h.33a55.14,55.14,0,0,0,1.72-12.46C117.41,274.24,116.71,271.66,115.3,270.25Z"/>
    <path class="b" d="M6.93,188.7c.84-18.31,12.94-32.14,22.66-43.25l.72-.83a77.25,77.25,0,0,0,4.92-6.15c1.51-2.17,4.32-6.19-2.32-12.61a185,185,0,0,0-23-18.9c-3.3-2.29-6.48-4.36-9.51-6.21V101q4.5,2.74,9.4,6.14a184.53,184.53,0,0,1,23,18.88c6.53,6.3,3.78,10.24,2.3,12.36a77.06,77.06,0,0,1-4.9,6.13l-.73.83c-9.74,11.14-21.86,25-22.71,43.37-.39,8.52-1.9,13.48-4.76,15.6A3.4,3.4,0,0,1,.38,205v.19a3.45,3.45,0,0,0,1.71-.74C5,202.28,6.53,197.28,6.93,188.7Z"/>
    <path class="b" d="M85.59,57.79c-1.26-4.95-11.36-6.27-23.06-7.8-2.89-.38-5.88-.77-8.78-1.23-12.83-2-24.58-8.47-35.93-14.69C12.13,31,6.32,27.76.38,25.14v.5C6.24,28.23,12,31.38,17.6,34.46,29,40.71,40.77,47.17,53.68,49.2c2.9.46,5.9.85,8.79,1.23C73.53,51.88,84,53.25,85.15,57.9c.92,3.62-3.8,9.11-14.42,16.8C55.82,85.48,43.32,90.5,31.37,90.5a43.67,43.67,0,0,1-20-5,76.48,76.48,0,0,1-11-7.13v.57a75.68,75.68,0,0,0,10.77,7A44.19,44.19,0,0,0,31.37,91h0C43.42,91,56,85.9,71,75.06,81.93,67.15,86.57,61.66,85.59,57.79Z"/>
    <path class="b" d="M2.05,159.51A62.75,62.75,0,0,1,8.21,151c3.14-3.86,6.39-7.86,8.14-12.77,3.08-8.66-3-12.66-9.36-16.89l-1.78-1.19c-1-.71-2-1.39-3-2.07-.48-.33-1.07-.76-1.8-1.29V117c.67.49,1.24.9,1.69,1.21,1,.68,2,1.36,3,2.07l1.78,1.19c6.33,4.19,12.31,8.15,9.28,16.67-1.74,4.88-5,8.86-8.11,12.71a64,64,0,0,0-6.18,8.53,29.1,29.1,0,0,0-1.5,3.38v.52l.15-.39A28.1,28.1,0,0,1,2.05,159.51Z"/>
    <path class="b" d="M204.26,271.29c-.24-2.18-1.62-4.07-4.07-5.62-4.45-2.8-13.74-4.05-21-4.05-1.41,0-2.71.05-3.85.14a118.76,118.76,0,0,0-22.5,4.26c-1.15.33-2.3.68-3.41,1.05-13.47,4.47-21.25,11.54-25,23.31h.35c3.72-11.6,11.43-18.58,24.74-23,1.11-.37,2.25-.72,3.4-1.05a118.78,118.78,0,0,1,22.44-4.25c1.13-.09,2.42-.14,3.82-.14,7.19,0,16.42,1.24,20.8,4,2.38,1.49,3.7,3.3,3.93,5.38.6,5.23-5.5,11.36-10.39,16.28-1,1-1.91,1.92-2.71,2.78h.44c.75-.8,1.59-1.64,2.5-2.55C198.72,282.85,204.87,276.66,204.26,271.29Z"/>
    <path class="b" d="M81.18,254.9a6,6,0,0,1,3.29-.75c.49,0,1,0,1.5,0s1.06.05,1.59.05a7.82,7.82,0,0,0,4.19-1c3.66-2.26,4.87-4.9,4.45-6.38-.28-1-1.23-1.55-2.61-1.55a11,11,0,0,0-4.52,1.27A13.2,13.2,0,0,0,86,249a9.61,9.61,0,0,1-3.73,2.64,4.71,4.71,0,0,1-1.28.18,9,9,0,0,1-2.48-.46,9.08,9.08,0,0,0-2.59-.48,5.12,5.12,0,0,0-1,.09,7.76,7.76,0,0,0-3.84,2.35,9,9,0,0,1-3,2.12,17.81,17.81,0,0,1-5.75.72,88.4,88.4,0,0,1-9.67-.73l-2.27-.25a56.87,56.87,0,0,1-19-5.71A161.14,161.14,0,0,1,15,240.29a13,13,0,0,0-6.87-2.11A12.47,12.47,0,0,0,.38,241v.24a12.32,12.32,0,0,1,7.71-2.87,12.75,12.75,0,0,1,6.77,2.09,162.41,162.41,0,0,0,16.49,9.19,57.41,57.41,0,0,0,19,5.73l2.27.25a91.14,91.14,0,0,0,9.69.73,18.18,18.18,0,0,0,5.81-.73,9.07,9.07,0,0,0,3.12-2.17,7.61,7.61,0,0,1,3.74-2.3,4.87,4.87,0,0,1,.93-.08,9.21,9.21,0,0,1,2.54.46A9.07,9.07,0,0,0,81,252a5.07,5.07,0,0,0,1.33-.18,9.92,9.92,0,0,0,3.82-2.69,12.87,12.87,0,0,1,3-2.37,10.87,10.87,0,0,1,4.44-1.26c1.3,0,2.17.5,2.42,1.41.41,1.42-.79,4-4.37,6.17a7.6,7.6,0,0,1-4.08,1c-.53,0-1.06,0-1.58,0s-1,0-1.51,0a6.21,6.21,0,0,0-3.39.77c-1.2.75-2.11,2.65-3,4.48a19.52,19.52,0,0,1-1.56,2.87c-4.41,6-4.68,12.48-3.73,20.34a64,64,0,0,0,1.54,8h.2a62.5,62.5,0,0,1-1.55-8c-.94-7.82-.68-14.25,3.69-20.2a18.31,18.31,0,0,0,1.58-2.91C79.14,257.48,80,255.62,81.18,254.9Z"/>
    <path class="b" d="M101.39,39.64c-1.11,0-2.68.71-3.83,4.08-1.29,3.78,1.2,4.66,3.84,5.6l1.41.51a7.28,7.28,0,0,0,2.6.63A1.76,1.76,0,0,0,107,49.7c1-1.56-.59-5-1.32-6.44C104.54,41,102.92,39.64,101.39,39.64Zm5.37,9.89c-.52.82-1.82.82-3.83,0-.47-.19-1-.36-1.42-.53-2.59-.91-4.83-1.7-3.64-5.19C98.73,41.3,100,40,101.39,40s2.92,1.29,4,3.45C106.88,46.26,107.38,48.54,106.76,49.53Z"/>
    <path class="b" d="M17.79,145.32c.29-.34.58-.69.88-1,4.15-4.88,8.43-9.93,3.56-16-3.77-4.67-9.46-8.52-14.48-11.91-1-.71-2-1.37-3-2-.65-.45-1.53-1.1-2.54-1.84L.38,111.21v.24l1.71,1.25c1,.74,1.9,1.38,2.55,1.83,1,.68,2,1.34,3,2,5,3.38,10.69,7.22,14.44,11.87,4.77,5.91.54,10.89-3.56,15.71l-.88,1A113.71,113.71,0,0,0,5.8,161.64,68,68,0,0,0,.38,173.8v.64A67.26,67.26,0,0,1,6,161.74,113.23,113.23,0,0,1,17.79,145.32Z"/>
    <path class="b" d="M105.18,289.3a7.92,7.92,0,0,0-1.23-2.47,4.8,4.8,0,0,1-1.08-3.77c.33-2.41,3.24-8.35,6.39-8.35h.09c1.57.06,2.57.46,3,1.18.72,1.33-.58,3.57-1.64,5.37a9.07,9.07,0,0,0-1.15,2.36,2.72,2.72,0,0,0,.78,2.31,2.43,2.43,0,0,1,.7,1.6,3.69,3.69,0,0,1-1.31,2.75l-.09.1h.27a3.86,3.86,0,0,0,1.33-2.85,2.62,2.62,0,0,0-.75-1.72,2.58,2.58,0,0,1-.74-2.16,9.53,9.53,0,0,1,1.13-2.3c1.08-1.84,2.42-4.13,1.64-5.55-.44-.8-1.46-1.22-3.13-1.28h-.1c-3.25,0-6.24,6.05-6.58,8.51a5,5,0,0,0,1.11,3.9,8.18,8.18,0,0,1,1.21,2.42,6.71,6.71,0,0,1,.19,1h.19A6.44,6.44,0,0,0,105.18,289.3Z"/>
    <path class="b" d="M14.12,80.09c4.9,2.51,9.06,3.68,13.1,3.68,4.22,0,8-1.27,12.33-2.74C42,80.2,44.82,79.25,48,78.46A15.62,15.62,0,0,1,51.92,78c.61,0,1.2,0,1.77,0s1.05,0,1.56,0c2.61,0,4.69-.62,7-3.7a17.45,17.45,0,0,0,2.62-5.09c.76-2.11,1.36-3.78,4.7-6.17a16,16,0,0,1,3.27-1.56c1.91-.75,3.56-1.4,3.63-2.5.06-.89-1-1.89-3.27-3.13-2.73-1.49-6.63-1.69-10.09-1.69-1.54,0-3.16.05-4.73.1s-3.2.09-4.76.09a30.26,30.26,0,0,1-7.89-.78c-11.21-3-21.73-8.81-31-13.9C9.82,37.1,5.09,34.51.38,32.29v.36c4.66,2.2,9.33,4.76,14.15,7.41C23.83,45.15,34.36,50.93,45.61,54a30.38,30.38,0,0,0,8,.79c1.57,0,3.19,0,4.77-.09s3.18-.09,4.72-.09c3.42,0,7.27.19,9.94,1.64,2.1,1.15,3.14,2.1,3.1,2.83-.06.89-1.69,1.53-3.43,2.22a15.94,15.94,0,0,0-3.34,1.6,11.05,11.05,0,0,0-4.81,6.32,17.16,17.16,0,0,1-2.58,5c-2.19,3-4.19,3.56-6.7,3.57-.5,0-1,0-1.55,0s-1.16,0-1.78,0a15.89,15.89,0,0,0-4,.46c-3.18.79-6,1.74-8.46,2.58-4.32,1.46-8.06,2.72-12.23,2.72-4,0-8.1-1.16-12.95-3.64A84,84,0,0,1,2,71.59L.38,70.37v.4l1.41,1.07A83.85,83.85,0,0,0,14.12,80.09Z"/>
    <path class="b" d="M171,281.4a4,4,0,0,0-1.43-.2c-3.74,0-11.66,2.23-11.74,2.25-.89.25-1.77.53-2.63.81-4.38,1.45-7.62,3.4-10,6.12h.25c2.33-2.63,5.52-4.52,9.79-5.94.86-.28,1.74-.55,2.62-.8.08,0,8-2.25,11.69-2.25a3.72,3.72,0,0,1,1.35.19c1.43.61.91,2.25-.25,5.82-.27.86-.59,1.86-.93,3h.21c.32-1.1.64-2.08.91-2.92C172,283.88,172.54,282.09,171,281.4Z"/>
    <path class="b" d="M162.2,287.2a12.19,12.19,0,0,0-3.21.53c-.83.24-1.65.49-2.43.75a23.48,23.48,0,0,0-4.35,1.9h.67a25.27,25.27,0,0,1,3.78-1.6c.78-.26,1.6-.51,2.42-.74a11.82,11.82,0,0,1,3.12-.51c1.61,0,2.58.58,2.9,1.74a3.6,3.6,0,0,1,.09,1.11h.32a3.81,3.81,0,0,0-.1-1.19C165.16,288.28,164.41,287.2,162.2,287.2Z"/>
    <path class="b" d="M182.45,276.55c-.57-1.12-2.5-1.53-6-1.24a104.75,104.75,0,0,0-19.93,3.8c-1,.27-1.91.56-2.83.87-6.55,2.17-11.12,5.51-14.1,10.4h.23c2.95-4.8,7.48-8.08,13.93-10.22.91-.3,1.86-.59,2.83-.87a105.8,105.8,0,0,1,19.88-3.79c.71-.05,1.36-.08,1.94-.08,2.17,0,3.42.4,3.83,1.22.72,1.45-1.3,4.13-3.26,6.73-.35.45-.7.92-1,1.37a59.43,59.43,0,0,0-3.66,5.64h.23a59,59,0,0,1,3.59-5.52c.33-.46.68-.92,1-1.38C181.25,280.72,183.22,278.11,182.45,276.55Z"/>
    <path class="b" d="M189,279.87c3-2.79,4.16-5,3.54-6.57-.73-1.86-4-2.8-9.74-2.8-1.91,0-4.08.1-6.64.32a109.05,109.05,0,0,0-20.78,3.95c-1,.28-2,.6-3,.93-8.59,2.85-14.4,7.6-17.81,14.68h.22c3.4-7,9.15-11.68,17.65-14.5,1-.33,2-.64,3-.93A108.33,108.33,0,0,1,176.13,271c2.55-.21,4.72-.32,6.62-.32,5.64,0,8.86.91,9.56,2.68.59,1.49-.58,3.63-3.49,6.36-.59.55-1.15,1.08-1.63,1.56a58.78,58.78,0,0,0-5.58,6.12q-1.06,1.45-2,3h.23c.63-1,1.28-1.92,2-2.86a58.25,58.25,0,0,1,5.56-6.1C187.8,281,188.37,280.42,189,279.87Z"/>
    <path class="b" d="M17.09,74.3a30.74,30.74,0,0,0,14.28,3.63A49.33,49.33,0,0,0,45,75c4.47-1.62,9.81-4.32,9.82-7.94,0-4.27-8.23-6.64-13.15-8.06-1.07-.3-2-.57-2.61-.79a193.89,193.89,0,0,1-27.54-12.7C7.75,43.39,4,41.36.38,39.53v.21C4,41.56,7.69,43.58,11.47,45.65A194.69,194.69,0,0,0,39,58.36c.62.22,1.55.49,2.63.8,4.87,1.4,13,3.75,13,7.87,0,6.26-17.68,10.71-23.31,10.71a30.6,30.6,0,0,1-14.18-3.61A79.83,79.83,0,0,1,5.84,66.5c-1.76-1.33-3.57-2.7-5.46-4v.24C2.23,64,4,65.35,5.72,66.66A80.17,80.17,0,0,0,17.09,74.3Z"/>
    <path class="b" d="M19.15,70.29a26.36,26.36,0,0,0,12.21,3.13c3.58,0,8.25-1.06,10-3.39a3.86,3.86,0,0,0,.66-3.53c-.82-3.12-7.36-5.33-12.14-6.94-1.54-.53-2.88-1-3.7-1.36-5.52-2.56-11-5.56-16.27-8.45l-.59-.33c-3-1.67-6-3.31-9-4.83v.22c2.91,1.5,5.87,3.12,8.89,4.78l.59.33c5.29,2.9,10.75,5.89,16.28,8.46.83.38,2.17.84,3.72,1.36,4.47,1.51,11.22,3.79,12,6.81a3.72,3.72,0,0,1-.62,3.36c-1.76,2.28-6.36,3.31-9.9,3.31a26.27,26.27,0,0,1-12.12-3.1A77.6,77.6,0,0,1,8.56,62.91C6,61,3.34,59,.38,57v.23C3.29,59.16,6,61.18,8.45,63.06A76.83,76.83,0,0,0,19.15,70.29Z"/>
    <path class="b" d="M114.75,4.23c.32-1.3.64-2.58.93-3.85h-.33c-.29,1.25-.6,2.5-.91,3.78-.6,2.39-1.21,4.86-1.7,7.38-1.65,8.41-3.08,19.44.6,30.14,1.5,4.35,5.23,7.9,8.52,11,2.92,2.79,5.45,5.2,5.22,7.23A3.6,3.6,0,0,1,125,62.47a6.37,6.37,0,0,1-3,.53c-5,0-13.68-2.18-20.13-4.34-7-2.36-15.68-6.11-17-10.61a4.59,4.59,0,0,1,1-4.3c1.44-1.82,3-3.42,4.47-5,2.93-3.05,5.71-5.93,7.54-10.2a26.7,26.7,0,0,0,.94-18.9c-.48-1.56-1-3-1.39-4.27-.64-1.88-1.19-3.52-1.56-5h-.34c.38,1.54,1,3.22,1.59,5.13.43,1.27.91,2.7,1.4,4.26a26.42,26.42,0,0,1-.94,18.68C95.76,32.67,93,35.53,90.1,38.56a66.93,66.93,0,0,0-4.49,5,4.92,4.92,0,0,0-1.1,4.6c1.38,4.63,10.13,8.43,17.22,10.81,6.48,2.17,15.25,4.37,20.24,4.37a6.55,6.55,0,0,0,3.2-.59A3.89,3.89,0,0,0,127.4,60c.25-2.18-2.33-4.64-5.32-7.49-3.26-3.11-7-6.63-8.43-10.91-3.66-10.63-2.24-21.6-.6-30C113.55,9.09,114.16,6.62,114.75,4.23Z"/>
    <path class="b" d="M61.36,155c-.32.53-.62,1-.89,1.41A112.76,112.76,0,0,1,49,169.51l-1.79,1.82c-3.59,3.63-7.3,7.37-9.52,11.8-.86,1.72-1.12,3.06-.76,3.87a1.23,1.23,0,0,0,.84.73,1.88,1.88,0,0,0,.55.07,6.34,6.34,0,0,0,3-1.11,69,69,0,0,0,6.84-4.94c1.8-1.42,3.65-2.88,5.57-4.14,7.71-5.12,12.81-8.5,15.19-18,.5-2,.79-6.48-.74-8.43a2.37,2.37,0,0,0-2.07-1C64.17,150.3,62.55,153,61.36,155Zm5-4.57a2.14,2.14,0,0,1,1.77.88c1.48,1.9,1.19,6.32.7,8.27-2.36,9.46-7.43,12.82-15.11,17.91-1.92,1.27-3.78,2.73-5.58,4.14a68.76,68.76,0,0,1-6.82,4.94c-1.44.87-2.67,1.24-3.44,1a1.08,1.08,0,0,1-.72-.63c-.33-.75-.06-2.06.77-3.7,2.2-4.4,5.9-8.14,9.47-11.75.61-.62,1.21-1.22,1.8-1.83a112.31,112.31,0,0,0,11.48-13.16c.27-.38.57-.88.9-1.42,1.16-1.93,2.76-4.57,4.64-4.67Z"/>
    <path class="b" d="M21.17,66.33a20.77,20.77,0,0,0,7.52,1.83,3.93,3.93,0,0,0,2.12-.46c1-.66,1.47-1.28,1.37-1.9C32,64.44,29,63.62,26.65,63a18.62,18.62,0,0,1-2.3-.72c-5.66-2.63-11.19-5.66-16.53-8.6l-.6-.32C4.9,52.05,2.62,50.8.38,49.61V50c2.19,1.17,4.42,2.39,6.69,3.63l.59.33c5.35,2.93,10.89,6,16.56,8.6a19.34,19.34,0,0,0,2.34.75c2.17.6,5.13,1.42,5.31,2.57.07.47-.35,1-1.24,1.58a3.66,3.66,0,0,1-1.94.41A20.65,20.65,0,0,1,21.32,66a72.34,72.34,0,0,1-10-6.78A119.85,119.85,0,0,0,.38,51.63V52a118.44,118.44,0,0,1,10.76,7.51A74.16,74.16,0,0,0,21.17,66.33Z"/>
    <path class="b" d="M11.5,188.91C12.27,172.2,23.78,159,33,148.46l.73-.83c11-12.6,10.55-17,5.39-22.08A198.91,198.91,0,0,0,12.5,103.2C8.38,100.34,4.31,97.73.38,95.41v.37c3.87,2.3,7.88,4.87,11.94,7.69a199.07,199.07,0,0,1,26.61,22.3c5,5,5.42,9.25-5.41,21.65l-.73.83C23.5,158.86,12,172.08,11.18,188.89c-.73,15.79-6.68,20.42-10.8,21.72V211C4.6,209.66,10.76,205,11.5,188.91Z"/>
    <path class="b" d="M198.26,270.9c-1.9-4-9.55-4.88-15.64-4.88-2.13,0-4.45.1-6.88.3a113,113,0,0,0-21.63,4.11c-1.09.31-2.17.64-3.22,1-6.7,2.23-11.86,5.45-15.76,9.84a31.21,31.21,0,0,0-5.58,9.13h.2c3.73-9.21,10.61-15.27,21.2-18.78,1-.35,2.12-.68,3.21-1a113.43,113.43,0,0,1,21.6-4.1c2.42-.2,4.73-.3,6.86-.3,6,0,13.61.83,15.46,4.77,2,4.32-2.9,9-6.17,12-.55.52-1.08,1-1.52,1.45a57,57,0,0,0-5.14,5.62c-.08.1-.14.2-.21.3h.23l.13-.18a54.5,54.5,0,0,1,5.13-5.6c.44-.44,1-.93,1.52-1.45C195.35,280,200.34,275.35,198.26,270.9Z"/>
    <path class="b" d="M65.49,260.49a39.09,39.09,0,0,0-8.93-.83c-1.71,0-3.49-.05-5.19-.21a63.07,63.07,0,0,1-21.88-5.91,164.34,164.34,0,0,1-16.91-9.42,8.54,8.54,0,0,0-4.49-1.43c-2.69,0-5.48,1.77-7.71,4.71v.33c2.22-3,5-4.84,7.71-4.84a8.37,8.37,0,0,1,4.39,1.4,166.36,166.36,0,0,0,16.92,9.43,63.53,63.53,0,0,0,22,5.92c1.71.16,3.49.19,5.21.22a38.19,38.19,0,0,1,8.89.82c4.43,1.14,4.27,4.37,3.64,8.17A48.16,48.16,0,0,0,68.33,283a66.12,66.12,0,0,0,1.38,7.42h.2a64.29,64.29,0,0,1-1.39-7.44,47.83,47.83,0,0,1,.76-14.06C69.9,265.13,70.08,261.67,65.49,260.49Z"/>
    <path class="b" d="M82.63,6c4.42,13.75,6.21,21.23-4.75,27.56a20.58,20.58,0,0,1-6.07,2.28,29.3,29.3,0,0,1-6.18.61c-20.37,0-48.36-17-63.39-26.17l-.52-.31L.38,9.1v.37c.38.24.77.48,1.18.72l.51.31c15.06,9.17,43.1,26.22,63.56,26.22a29.91,29.91,0,0,0,6.25-.61A20.92,20.92,0,0,0,78,33.79c11.18-6.46,9.37-14,4.9-27.94-.57-1.76-1.16-3.6-1.7-5.47h-.33C81.46,2.29,82.05,4.16,82.63,6Z"/>
    <path class="b" d="M56.91,4c.13.48.31,1.08.51,1.75.58,1.9.48,3.19-.31,3.82A2.72,2.72,0,0,1,55.4,10C52.26,10,47,7.23,45.3,6.31c-.84-.46-1.47-.79-2-1L40.69,4C38.26,2.78,35.9,1.58,33.61.38H33.2q3.59,1.89,7.4,3.76l2.64,1.3c.5.25,1.13.59,2,1,1.73.92,7,3.75,10.19,3.75a2.89,2.89,0,0,0,1.83-.52c.86-.68,1-2,.38-4-.21-.67-.39-1.26-.52-1.75-.31-1.16-.62-2.34-.91-3.55H56C56.27,1.6,56.59,2.8,56.91,4Z"/>
    <path class="b" d="M76.56,7.9c1.78,5.57,3.49,12.55.82,17.17-1.32,2.28-3.64,3.79-6.9,4.48a23.31,23.31,0,0,1-4.84.47C47.05,30,20.05,13.6,5.55,4.78L2.88,3.15c-.82-.49-1.66-1-2.5-1.39V2c.81.42,1.61.86,2.4,1.34L5.45,4.94C20,13.77,47,30.21,65.64,30.21a23.1,23.1,0,0,0,4.88-.47c3.31-.7,5.68-2.24,7-4.58,2.71-4.68,1-11.71-.81-17.32C76,5.44,75.2,2.94,74.55.38h-.2C75,3,75.78,5.48,76.56,7.9Z"/>
    <path class="b" d="M61.27,2.83c.11.43.28,1,.47,1.59.93,3.07,2.35,7.7,1,9.84A3.82,3.82,0,0,1,60.24,16a6.39,6.39,0,0,1-1.5.16C54,16.11,47,12.32,43.17,10.28c-.74-.39-1.38-.74-1.85-1L41,9.14l-1.05-.52L38.7,8C33.57,5.5,28.69,2.93,24.21.38h-.39C28.39,3,33.37,5.62,38.61,8.19l1.25.61,1,.52.33.16c.48.24,1.11.58,1.85,1C46.89,12.5,54,16.3,58.74,16.3a6.68,6.68,0,0,0,1.54-.16,4,4,0,0,0,2.63-1.78c1.39-2.21,0-6.89-1-10-.19-.62-.35-1.16-.47-1.59-.21-.8-.42-1.6-.62-2.4h-.2C60.84,1.2,61.05,2,61.27,2.83Z"/>
    <path class="b" d="M65.63,1.67a46.77,46.77,0,0,1,2,10.66c.13,4.74-1.72,7.46-5.49,8.07a11.59,11.59,0,0,1-1.82.14c-6.56,0-15.94-4.68-21-7.2L38,12.67l-1.24-.61C28.87,8.22,21.61,4.24,15.37.38H15c6.3,3.92,13.67,8,21.63,11.86l1.24.61,1.35.67c5.05,2.52,14.46,7.21,21.06,7.21a12,12,0,0,0,1.85-.14c3.88-.63,5.78-3.41,5.65-8.27a46.48,46.48,0,0,0-2-10.7L65.48.38h-.2C65.4.81,65.51,1.24,65.63,1.67Z"/>
    <path class="b" d="M72.26,9.28c.1.29.19.59.29.89,1,3.13,2.1,6.37.38,9.5a11.53,11.53,0,0,1-7.41,5.39c-.32.07-.63.12-.94.16a20.81,20.81,0,0,1-2.4.13c-8.65,0-18.8-5-26.21-8.63l-1.24-.6C25.2,11.45,16,5.86,7.9.92L7,.38H6.62l1.18.71C15.91,6,25.11,11.62,34.64,16.29l1.24.61c7.43,3.65,17.61,8.65,26.3,8.65a21,21,0,0,0,2.42-.14,8,8,0,0,0,1-.16,11.68,11.68,0,0,0,7.53-5.49c1.77-3.2.69-6.48-.36-9.65-.09-.3-.19-.6-.29-.89-.9-2.82-1.8-5.78-2.53-8.84h-.2C70.45,3.46,71.35,6.44,72.26,9.28Z"/>
    <path class="b" d="M65.24,144.24c-2.82.7-5.29,4.61-7.28,7.75-.7,1.1-1.35,2.14-1.93,2.89a138.63,138.63,0,0,1-10.3,11.44c-.91.94-2,2-3.26,3.12-3.6,3.33-8.07,7.48-9.43,11.27-1.15,3.19-.47,6.24.18,9.18a19.49,19.49,0,0,1,.65,7.51,14.63,14.63,0,0,1-2.28,4.87c-1.24,2-2.51,4.09-2.59,6.32a5.86,5.86,0,0,0,.35,2.23c.85,2.39,1.74,3.5,2.79,3.5s2.19-1.08,3.87-3.75a25,25,0,0,0,2.86-8.34,25,25,0,0,1,2.87-8.38c3.09-4.87,8.55-8.47,13.36-11.63l1.2-.8c8-5.29,14.3-9.47,17.11-20.73.75-3,.55-10.56-2.48-14.44A5.17,5.17,0,0,0,65.24,144.24Zm5.44,2.2c2.71,3.48,3.25,10.84,2.42,14.17-2.79,11.14-9,15.29-17,20.54l-1.2.8c-4.84,3.18-10.32,6.79-13.45,11.73-1.65,2.61-2.29,5.59-2.92,8.48a24.7,24.7,0,0,1-2.81,8.24c-1.12,1.78-2.43,3.6-3.6,3.6-.88,0-1.7-1.07-2.49-3.29a5.62,5.62,0,0,1-.33-2.11c.07-2.14,1.33-4.18,2.54-6.16a15,15,0,0,0,2.33-5,19.67,19.67,0,0,0-.66-7.63c-.67-3-1.3-5.89-.19-9,1.33-3.72,5.78-7.84,9.35-11.15,1.21-1.12,2.36-2.18,3.27-3.13a136.2,136.2,0,0,0,10.33-11.47c.58-.75,1.24-1.8,1.94-2.9,2-3.1,4.39-6.95,7.09-7.62a6,6,0,0,1,1.42-.18A4.89,4.89,0,0,1,70.68,146.44Z"/>
    <path class="b" d="M68.21,130.24a5.83,5.83,0,0,0-4.28-2.79,7.11,7.11,0,0,1-3.14-1.3l-.09-.1c-3.29-3.68-14.31-15.68-18.05-15.68a1.24,1.24,0,0,0-1,.46c-.49.65-.47,2,.08,4,.33,1.21,3.45,2.88,6.75,4.66,2.76,1.48,5.6,3,6.57,4.15s2,2.45,1.9,2.95c0,.13-.17.21-.43.33-.57.29-1.44.72-1,2.76a14.63,14.63,0,0,0,2,4.15,14.07,14.07,0,0,1,1.83,3.6c.83,3.17-4.37,9-7.8,12.84-1.14,1.27-2.12,2.37-2.74,3.2a88.48,88.48,0,0,1-8.64,9.37c-5.87,5.78-11.94,11.76-14.07,20-3.19,12.34-3.83,23.24-1.89,32.39,1,4.88,4.59,11.69,8,11.69,2.15,0,3.72-2.58,4.65-7.67,3.61-19.6,13.46-26.12,23-32.43,8.43-5.59,16.4-10.87,19.82-24.58,1.3-5.17-.69-13.13-3.27-17.53a14.09,14.09,0,0,0-4-4.14,12.34,12.34,0,0,1-3.3-3.23,5.17,5.17,0,0,1-.41-3.41A5.27,5.27,0,0,0,68.21,130.24Zm.55,7.37a12.87,12.87,0,0,0,3.4,3.35,13.61,13.61,0,0,1,3.9,4c2.53,4.33,4.49,12.13,3.23,17.19C75.9,175.7,68,180.93,59.65,186.47c-9.6,6.36-19.53,12.94-23.17,32.73-.88,4.78-2.33,7.3-4.21,7.3-2.92,0-6.48-6.09-7.59-11.33-1.92-9.09-1.29-19.91,1.88-32.19,2.11-8.13,8.13-14.07,14-19.81a89.53,89.53,0,0,0,8.68-9.42c.61-.81,1.59-1.9,2.71-3.17,3.71-4.16,8.79-9.85,7.91-13.25a14.68,14.68,0,0,0-1.88-3.73,14.23,14.23,0,0,1-2-4c-.38-1.69.22-2,.74-2.25.3-.15.6-.3.67-.65s-.2-1.2-2-3.33c-1-1.21-3.9-2.76-6.69-4.26s-6.26-3.36-6.53-4.38c-.63-2.33-.43-3.25-.16-3.61a.77.77,0,0,1,.66-.29c2.82,0,11,8,17.71,15.53l.13.14a7.67,7.67,0,0,0,3.34,1.4,5.4,5.4,0,0,1,4,2.61,4.88,4.88,0,0,1,.44,3.42A5.61,5.61,0,0,0,68.76,137.61Z"/>
    <path class="b" d="M.38,88.41c21.73,12.3,45.15,31.86,49.41,41.59,2.56,5.84-3.65,12.82-11.5,21.65-8.94,10-20,22.54-20.74,37.54C16.71,207.47,7.65,215,.38,217.25v.47c7.43-2.27,16.76-9.87,17.62-28.51.68-14.84,11.74-27.27,20.62-37.26,8-8.95,14.26-16,11.58-22.13C45.91,120,22.26,100.28.38,87.93Z"/>
    <path class="b" d="M109.84.41l0,0h-.27a5,5,0,0,0-1.09,1.54,11,11,0,0,0-.35,5.73,20.41,20.41,0,0,1,.2,3.22,36,36,0,0,1-.76,5.11c-.27,1.39-.55,2.83-.69,4.23-.82,8.53-.08,16.24,2.22,22.91.48,1.39,2.34,3.52,4.32,5.78,2.53,2.88,5.14,5.87,5.25,7.68a1.22,1.22,0,0,1-.32,1c-.68.73-2.51.86-5.44.4a26.19,26.19,0,0,1-6.16-2.09c-1.15-.5-2.35-1-3.54-1.42l-1-.35c-4.28-1.41-10.15-3.35-11-6.74-.4-1.62.38-3.47,2.34-5.5,3.07-3.2,6.25-6.5,8.41-11.52,2.06-4.81,4.43-14.18,3.53-19.25a6.53,6.53,0,0,0-1-2.41,4.25,4.25,0,0,1-.85-3.32,5.54,5.54,0,0,1,1-2.41,3.43,3.43,0,0,0,.77-2.56h-.19a3.34,3.34,0,0,1-.74,2.46,5.58,5.58,0,0,0-1,2.48,4.45,4.45,0,0,0,.87,3.45,6.36,6.36,0,0,1,1,2.35c.9,5-1.47,14.34-3.52,19.13-2.14,5-5.31,8.28-8.37,11.47-2,2.08-2.81,4-2.39,5.67.87,3.5,6.79,5.46,11.12,6.89l1,.34c1.18.4,2.37.92,3.52,1.42a26.29,26.29,0,0,0,6.21,2.1,19.6,19.6,0,0,0,3,.27,3.62,3.62,0,0,0,2.66-.72,1.45,1.45,0,0,0,.37-1.12c-.11-1.88-2.74-4.89-5.29-7.8-2-2.24-3.82-4.36-4.29-5.71-2.29-6.65-3-14.33-2.21-22.83.14-1.39.42-2.82.69-4.21a36.22,36.22,0,0,0,.76-5.14,20.79,20.79,0,0,0-.2-3.25c-.23-1.95-.44-3.8.34-5.64A5.44,5.44,0,0,1,109.84.41Z"/>
    <path class="b" d="M88.7,4c4.08,12.7,8.3,25.83-7.63,35a27.43,27.43,0,0,1-7.93,3,36.57,36.57,0,0,1-7.51.74c-21.53,0-48.46-16-65.25-26.22v.53c16.84,10.24,43.7,26.14,65.25,26.14a36.68,36.68,0,0,0,7.6-.75,27.71,27.71,0,0,0,8.07-3c16.24-9.39,12-22.7,7.83-35.57-.37-1.17-.74-2.33-1.1-3.48h-.47C87.93,1.57,88.31,2.78,88.7,4Z"/>
    <path class="b" d="M62.16,266.6c-2.35-2.17-5.85-2.35-8.95-2.51-.79,0-1.54-.08-2.27-.15a67.6,67.6,0,0,1-23.4-6.33A110.24,110.24,0,0,1,12.22,249a6.08,6.08,0,0,0-3.47-1.19c-2.64,0-5.13,2.07-6.65,5.54C1.52,254.66,1,256,.38,257.23v.46c.64-1.4,1.26-2.82,1.9-4.26C3.77,250,6.19,248,8.75,248a5.88,5.88,0,0,1,3.36,1.16,111.7,111.7,0,0,0,15.35,8.63,67.72,67.72,0,0,0,23.46,6.34c.73.07,1.48.11,2.28.15,3.06.16,6.53.34,8.83,2.46,2.66,2.46,2.28,7.14,1.95,11.26a29.7,29.7,0,0,0-.13,5.5,54.88,54.88,0,0,0,1.43,6.88h.2a52.15,52.15,0,0,1-1.43-6.9,29.32,29.32,0,0,1,.12-5.47C64.51,273.85,64.89,269.13,62.16,266.6Z"/>
    <path class="b" d="M1.93,277.79c-.57-.23-1.09-.44-1.55-.68v.22c.45.23,1,.43,1.47.64.28.1.55.22.84.34a57.94,57.94,0,0,1,10,5.18c3.32,2.24,7.08,4.56,11.16,6.89h.39c-4.19-2.39-8-4.76-11.45-7.05a58.14,58.14,0,0,0-10-5.2Z"/>
    <path class="b" d="M10.14,287.23c1.53,1,3.16,2.09,4.86,3.15h.37q-2.7-1.68-5.13-3.31A61.47,61.47,0,0,0,.38,282v.21A61.5,61.5,0,0,1,10.14,287.23Z"/>
    <path class="b" d="M6.4,134.54c-.32-2.08-1.75-3.94-4.39-5.68L.38,127.77V128l1.53,1c2.58,1.71,4,3.53,4.3,5.55.51,3.34-2,6.78-5.15,10.62-.21.26-.44.58-.68.92v.34c.29-.43.58-.83.83-1.14C4.36,141.44,6.92,138,6.4,134.54Z"/>
    <path class="b" d="M5.21,289.3h0a44.51,44.51,0,0,0-4.84-2.53V287a47.45,47.45,0,0,1,4.74,2.48l1.5.92H7Z"/>
    <path class="b" d="M44.32,1a10.5,10.5,0,0,0,4.32,1.45A2.77,2.77,0,0,0,50.22,2l.11-.08a3.17,3.17,0,0,0,1-1.56H51a2.68,2.68,0,0,1-.84,1.3L50,1.75a2.43,2.43,0,0,1-1.4.39A10.53,10.53,0,0,1,44.46.73L44,.48l-.21-.1H43l.79.39Z"/>
    <path class="b" d="M47.35,284.58a2.53,2.53,0,0,0-.23-2.16c-.94-1.46-3.49-1.83-5.36-2.1l-.85-.14-.42-.08a26.44,26.44,0,0,0-4.52-.6,2.46,2.46,0,0,0-1.77.45.69.69,0,0,0-.2.55c.09,1.66,2.64,2.69,4.17,3.3l.63.26c.41.18.88.41,1.37.66,1.57.78,3.36,1.67,4.88,1.67a3.45,3.45,0,0,0,.57-.05A2.17,2.17,0,0,0,47.35,284.58ZM45.56,286a4.06,4.06,0,0,1-.51,0c-1.44,0-3.18-.87-4.72-1.63-.49-.25-1-.48-1.38-.67l-.64-.26c-1.45-.58-3.86-1.55-3.94-3a.33.33,0,0,1,.1-.28c.14-.15.52-.33,1.5-.33a25,25,0,0,1,4.45.6l.43.08c.25.05.54.09.86.13,1.69.25,4.25.62,5.1,1.94a2.16,2.16,0,0,1,.18,1.85A1.82,1.82,0,0,1,45.56,286Z"/>
    <path class="b" d="M59.91,276c.3-1.89.62-3.85-.63-5.34-1.49-1.78-3.93-1.91-6.08-2H53c-.77,0-1.64-.08-2.47-.16a71.79,71.79,0,0,1-24.91-6.75c-2.46-1.17-4.87-2.51-7.2-3.8-1.28-.71-2.61-1.44-3.93-2.14l-.09-.05A10.73,10.73,0,0,0,9.59,254a4.29,4.29,0,0,0-2.39.72c-2.62,1.71-3.88,5-5.1,8.22a36.62,36.62,0,0,1-1.72,4v.4A32.39,32.39,0,0,0,2.28,263c1.21-3.17,2.45-6.45,5-8.13a4.13,4.13,0,0,1,2.29-.69,10.6,10.6,0,0,1,4.7,1.65l.09,0c1.32.7,2.64,1.43,3.92,2.14,2.34,1.3,4.76,2.63,7.22,3.81a72.13,72.13,0,0,0,25,6.76c.84.08,1.71.13,2.48.16l.22,0c2.11.11,4.5.23,5.94,1.94,1.2,1.42.89,3.34.59,5.19-.1.59-.19,1.16-.24,1.71a32.86,32.86,0,0,0-.1,6.41,48.89,48.89,0,0,0,1.25,6.33h.2A49.35,49.35,0,0,1,59.57,284a32.51,32.51,0,0,1,.11-6.37C59.72,277.11,59.81,276.55,59.91,276Z"/>
    <path class="b" d="M12.1,136.72c1.67-4.71,0-6.6-7.6-11.62-.6-.4-1.21-.8-1.82-1.22-.8-.54-1.56-1-2.3-1.57v.24L2.57,124l1.83,1.22c7.48,5,9.15,6.81,7.52,11.39-1.48,4.15-4.34,7.67-7.36,11.39-1.41,1.73-2.84,3.5-4.18,5.38v.34c1.38-2,2.87-3.81,4.33-5.6C7.74,144.42,10.61,140.9,12.1,136.72Z"/>
    <path class="b" d="M51.34,273.43a20.51,20.51,0,0,0-6.41-1.31c-1.22-.12-2.49-.24-3.7-.48a75.67,75.67,0,0,1-17.57-5.88c-2.58-1.24-5.05-2.6-7.45-3.93-.34-.19-.73-.44-1.15-.71-1.38-.88-3.1-2-4.64-2a2.61,2.61,0,0,0-1.53.47c-1.18.82-1.73,2.47-2.22,3.94-.12.36-.23.7-.35,1a20.07,20.07,0,0,1-1.07,2.11c-1.07,1.94-2.41,4.36-1.93,5.82s2.4,2.27,3.94,2.92c.35.14.68.28,1,.42a54.1,54.1,0,0,1,7,3.91,198.17,198.17,0,0,0,18,10.63h.41a202,202,0,0,1-18.33-10.79,53.74,53.74,0,0,0-7-3.93l-1-.42c-1.5-.63-3.37-1.42-3.82-2.8s.85-3.76,1.91-5.67a21.49,21.49,0,0,0,1.08-2.13c.12-.32.23-.67.36-1,.47-1.44,1-3.06,2.14-3.84a2.41,2.41,0,0,1,1.42-.43c1.48,0,3.17,1.08,4.53,1.94.43.27.82.53,1.17.72,2.4,1.33,4.87,2.7,7.45,3.93a76.19,76.19,0,0,0,17.63,5.9c1.22.24,2.49.36,3.72.48a20.87,20.87,0,0,1,6.34,1.29c3.55,1.55,3.54,4.58,3.52,7.78a26.42,26.42,0,0,0,.12,3.21A50.39,50.39,0,0,0,56,290.38h.2a50.32,50.32,0,0,1-1.09-5.81,25.93,25.93,0,0,1-.12-3.18C55,278.11,55,275,51.34,273.43Z"/>
    <path class="b" d="M42.7,289.86a213.74,213.74,0,0,1-24.86-14.07,28.1,28.1,0,0,0-2.77-1.57,18.93,18.93,0,0,1-3.73-2.3c-1.53-1.29-1.93-2.57-1.28-4.13A2.62,2.62,0,0,1,12.67,266c2.09,0,4.87,1.69,6.9,2.92.8.49,1.49.91,2,1.17a80.57,80.57,0,0,0,18.69,6.25,41,41,0,0,0,4.19.56l.72.06c1.62.13,3.45.27,4.55,1.47S50.94,282.05,51,284c0,.55,0,1.06.08,1.51l0,.24a12.49,12.49,0,0,1-.17,4.62h.34a13.11,13.11,0,0,0,.15-4.65l0-.24c0-.44-.07-.95-.09-1.49-.09-2-.19-4.52-1.37-5.81s-3.08-1.45-4.75-1.58l-.72-.06a40.45,40.45,0,0,1-4.16-.56,79.88,79.88,0,0,1-18.61-6.22c-.53-.25-1.21-.67-2-1.15-2.06-1.26-4.89-3-7.07-3a3,3,0,0,0-2.91,2c-.7,1.69-.26,3.12,1.37,4.5a19.67,19.67,0,0,0,3.79,2.34,29.61,29.61,0,0,1,2.74,1.55,216.77,216.77,0,0,0,24.9,14.09l.47.23h.73Z"/>
    <path class="b" d="M62.93,161h0c-.92,0-1.85,1.16-2.52,2l-.39.48c-.64.73-1.26,1.5-1.85,2.24-.39.48-.77,1-1.17,1.43l-.05.06c-1.28,1.53-1.81,2.52-1.6,3a.62.62,0,0,0,.55.36H56c2.58-.06,4.67-2.39,5.68-3.78a10.74,10.74,0,0,0,1.9-3.92,2.31,2.31,0,0,0-.15-1.66A.7.7,0,0,0,62.93,161Zm.38,1.87a10.56,10.56,0,0,1-1.85,3.79c-1,1.34-3,3.59-5.43,3.65l0,.16v-.16h-.12c-.23,0-.27-.13-.28-.16-.07-.18-.06-.8,1.55-2.71l.05-.06c.4-.47.78-1,1.17-1.44.59-.74,1.2-1.5,1.84-2.23l.4-.49c.6-.75,1.5-1.89,2.3-1.89h0a.42.42,0,0,1,.3.15A2,2,0,0,1,63.31,162.88Z"/>
    <path class="b" d="M130.92,226.3c8.55-1,17.72-10.88,17.84-19.27.18-12.86-7.22-23.14-14.37-33.08-1.21-1.69-2.47-3.43-3.66-5.14l-.71-1c-3.36-4.85-7.18-10.35-8.42-16.28-1-5-2.66-16.74-.91-20.79,1.28-3,4.93-4.66,8.46-6.3a25.87,25.87,0,0,0,6.36-3.66l.07-.07c5.53-5,5.53-5,9.3-5.14,1.14,0,2.56-.09,4.56-.28a32.42,32.42,0,0,0,5.43-.93,7.89,7.89,0,0,1,1.75-.31c1.16,0,2.13.82,5.35,3.55,9.5,8,9.33,22,9.15,35.58-.22,17-.44,34.65,18.84,40.23a29,29,0,0,0,8,1.21,21.37,21.37,0,0,0,17.85-9.37c6.49-9,8.22-23,4.29-34.9-9.06-27.44-30.73-43.14-54-58.09-21.18-13.58-41.35-17.33-58.6-19.77a24.87,24.87,0,0,0-3.53-.27c-7,0-10.32,3.56-14.53,8.06a72.8,72.8,0,0,1-5.35,5.33,35.22,35.22,0,0,1-8.3,4.89c-4.75,2.24-9.24,4.37-11.1,9.09-3.94,10,5.74,17.83,14.27,24.72,4,3.19,7.69,6.2,9.87,9.21,8.67,11.94,6.08,32.06-1.78,43.37-2.46,3.53-7.16,7.9-12.14,12.52C66.64,197,57.29,205.71,55.64,213c-.78,3.43-.57,5.82.62,7.31,1,1.25,2.68,1.86,5.14,1.86,4.05,0,9.85-1.67,16-3.44,7.51-2.16,16-4.61,23.28-4.61a20.77,20.77,0,0,1,8.75,1.65,37.69,37.69,0,0,1,7.46,4.89c3.78,2.94,7.35,5.72,12.4,5.72A15.12,15.12,0,0,0,130.92,226.3Zm-21.35-10.82a21.31,21.31,0,0,0-8.89-1.67c-7.31,0-15.84,2.46-23.37,4.62-6.12,1.76-11.9,3.43-15.91,3.43-2.36,0-4-.57-4.89-1.74-1.13-1.41-1.31-3.72-.56-7,1.63-7.2,10.94-15.84,19.16-23.46,5-4.64,9.71-9,12.18-12.58,7.93-11.39,10.53-31.69,1.78-43.74-2.21-3-6-6.07-9.92-9.27-8.46-6.82-18-14.55-14.18-24.35,1.81-4.61,6.24-6.7,10.94-8.92a35.63,35.63,0,0,0,8.38-4.94,75.39,75.39,0,0,0,5.37-5.35c4.15-4.45,7.44-8,14.29-8a24.44,24.44,0,0,1,3.49.27c17.21,2.43,37.34,6.17,58.47,19.73,23.25,14.91,44.88,30.57,53.91,57.91,3.89,11.8,2.18,25.71-4.25,34.61A21.1,21.1,0,0,1,198,194.27a28.77,28.77,0,0,1-7.93-1.2c-8.55-2.47-14-7.55-16.52-15.51-2.31-7.14-2.19-15.92-2.09-24.41.18-13.61.36-27.68-9.27-35.83-4.59-3.89-4.72-3.95-7.37-3.3a33.74,33.74,0,0,1-5.39.92c-2,.19-3.4.24-4.54.28-3.89.13-3.89.13-9.51,5.22l-.07.07a25.48,25.48,0,0,1-6.28,3.61c-3.58,1.67-7.28,3.39-8.61,6.46-1.78,4.12-.17,15.92.89,21,1.25,6,5.08,11.53,8.47,16.4l.71,1c1.19,1.72,2.44,3.46,3.66,5.15,7.12,9.9,14.49,20.13,14.31,32.88-.12,8.26-9.14,18-17.56,19a14.26,14.26,0,0,1-1.59.09c-4.94,0-8.47-2.75-12.2-5.65A38.49,38.49,0,0,0,109.57,215.48Z"/>
    <path class="b" d="M290.38,1.76q-1.45-.75-3-1.38h-.52c1.19.48,2.35,1,3.49,1.6Z"/>
    <path class="b" d="M281.61,127.06c-.33-.24-.84-.68-1.48-1.24-2.45-2.13-6.55-5.71-9.45-5.71a2.66,2.66,0,0,0-2.51,1.63c-.67,1.35.81,4.5,1.79,6.58.24.51.44,1,.57,1.26.26.65.51,1.25.71,1.78a104.62,104.62,0,0,1,3.83,11.3c.11.42.22.89.33,1.4.48,2.14,1.08,4.81,2.56,6.11a4.66,4.66,0,0,0,1.67,1,2.57,2.57,0,0,0,.72.11c1.75,0,3-2,4.12-3.92.27-.44.54-.9.82-1.31l.26-.4c4.44-6.76,7.12-10.84-1.05-16.51C283.71,128.6,282.68,127.85,281.61,127.06Zm3.67,18.42-.26.4c-.28.42-.56.88-.82,1.32-1.12,1.85-2.28,3.76-3.85,3.76a2.34,2.34,0,0,1-.63-.09,4.34,4.34,0,0,1-1.54-.94c-1.41-1.24-2-3.85-2.46-5.94-.12-.51-.22-1-.33-1.41a108.94,108.94,0,0,0-3.85-11.33c-.2-.54-.45-1.14-.71-1.79-.13-.32-.34-.77-.58-1.28-.9-1.9-2.39-5.08-1.79-6.3a2.33,2.33,0,0,1,2.22-1.45c2.78,0,6.82,3.53,9.24,5.64.65.56,1.16,1,1.5,1.25,1.07.79,2.1,1.54,2.9,2.09C292.23,134.9,289.61,138.89,285.28,145.48Z"/>
    <path class="b" d="M286.89,119.83c-1.42-1-2.84-2.2-4.35-3.43-4.59-3.75-9.79-8-14.47-8a7.32,7.32,0,0,0-2.68.5c-8.26,3.12-7.08,11.86-5.64,16.79.88,3,2,6,3.12,8.87a100.42,100.42,0,0,1,3.54,10.37,50.2,50.2,0,0,1,1.11,6.56c.83,6.66,1.61,13,10.51,13a22.53,22.53,0,0,0,2.25-.12,12.75,12.75,0,0,0,2.55-.48c2.37-.76,3.08-2.2,4.15-4.37.32-.66.69-1.4,1.15-2.2a38.32,38.32,0,0,1,2.25-3.52v-.34a43.86,43.86,0,0,0-2.42,3.76c-.46.81-.83,1.56-1.15,2.21-1.05,2.13-1.75,3.54-4,4.27a11.89,11.89,0,0,1-2.52.48,22.14,22.14,0,0,1-2.23.12c-8.73,0-9.47-5.93-10.32-12.8a51.07,51.07,0,0,0-1.11-6.58,100,100,0,0,0-3.55-10.39c-1.1-2.88-2.23-5.85-3.11-8.86-1.42-4.86-2.6-13.48,5.52-16.55a7.15,7.15,0,0,1,2.61-.49c4.61,0,9.78,4.23,14.35,8,1.51,1.23,2.93,2.39,4.35,3.43,1.08.79,2,1.48,2.73,2l.88.6v-.24l-.77-.52C288.91,121.3,288,120.61,286.89,119.83Z"/>
    <path class="b" d="M281.8,263.79A137.06,137.06,0,0,1,273,275.64l-.46.55c-1.16,1.36-2.6,3.05-1.58,4.75s3.8,2,5.86,2.22l1,.13A47.34,47.34,0,0,1,290.38,287v-.21a48,48,0,0,0-12.51-3.67c-.3-.05-.65-.09-1-.13-2-.24-4.78-.56-5.72-2.13s.45-3.22,1.56-4.53l.47-.55A135.74,135.74,0,0,0,282,263.9a86.06,86.06,0,0,0,6.19-12.28,19.68,19.68,0,0,1,2.23-3.89v-.33a20.46,20.46,0,0,0-2.41,4.14A85.62,85.62,0,0,1,281.8,263.79Z"/>
    <path class="b" d="M212.85,3.77c1,3.4,8.2,5.28,12.79,5.28,6.55,0,13.41-1.29,20.68-2.65s14.93-2.81,22.31-2.81c8.09,0,14.89,1.73,20.78,5.3l1,.59V9.1l-.81-.49C283.63,5,276.78,3.27,268.63,3.27c-7.41,0-15,1.43-22.37,2.81s-14.1,2.65-20.62,2.65c-4.59,0-11.56-1.92-12.48-5.05a3.41,3.41,0,0,1,1.11-3.3h-.42A3.55,3.55,0,0,0,212.85,3.77Z"/>
    <path class="b" d="M267.21,26.11h-2.49l-2.29,0a38.25,38.25,0,0,0-11.75,1.41A35,35,0,0,0,245,30c-3.06,1.55-5.94,3-9.39,3a12.45,12.45,0,0,1-1.72-.13c-2.54-.37-4.45-1.87-6.29-3.32-2.07-1.63-4-3.17-6.77-3.17-.25,0-.5,0-.76,0-1.69.18-4.4,1.7-7,3.17a37.41,37.41,0,0,1-4.41,2.26A28.78,28.78,0,0,1,204.82,33c-2.71.65-3,.89-4.36,5.87-.37,1.38-.63,2.67-.89,3.92-.94,4.62-1.69,8.28-6.62,11.77C189.62,56.89,185.4,58,180,58s-10.86-1.11-15.76-2.09c-2.56-.52-5-1-6.77-1.19-1-.11-2.66-.18-4.31-.18-4.73,0-10.27,1.73-10.65,4.22-.19,1.17.73,2.94,6.15,4.67l.61.2c20.67,6.63,35.08,15.28,49.75,29.86,4.05,4,7.14,5.89,9.73,5.89a5,5,0,0,0,1.76-.32c2.76-1,4.76-4.5,7.09-8.52,1.2-2.07,2.56-4.43,4.16-6.69a58.76,58.76,0,0,1,31.45-22.57,38.9,38.9,0,0,1,10.7-1.6c11.13,0,19,5.45,26.43,11.06v-.4c-7.43-5.59-15.29-11-26.43-11A39,39,0,0,0,253.17,61a59,59,0,0,0-31.63,22.69c-1.62,2.28-3,4.64-4.18,6.72-2.3,4-4.27,7.4-6.92,8.38a4.64,4.64,0,0,1-1.65.3c-2.5,0-5.52-1.84-9.5-5.8C184.58,78.67,170.13,70,149.41,63.35l-.61-.19c-4.06-1.3-6.17-2.84-5.94-4.32.33-2.07,5.25-4,10.34-4,1.64,0,3.24.07,4.27.18,1.79.19,4.2.67,6.75,1.18,4.91,1,10.48,2.1,15.82,2.1s9.71-1.16,13.09-3.55c5-3.56,5.8-7.27,6.76-12,.25-1.24.52-2.52.88-3.89,1.31-5,1.58-5,4.13-5.64a32.52,32.52,0,0,0,3.8-1.13,35.21,35.21,0,0,0,4.46-2.28c2.47-1.39,5.27-3,6.9-3.13q.36,0,.72,0c2.63,0,4.55,1.5,6.57,3.1s3.82,3,6.45,3.38a11.58,11.58,0,0,0,1.76.13c3.53,0,6.58-1.55,9.53-3.06a35.51,35.51,0,0,1,5.68-2.48,38,38,0,0,1,11.66-1.39h4.78A38.66,38.66,0,0,1,278,27.84a80.87,80.87,0,0,1,12.4,4.81v-.36a81.39,81.39,0,0,0-12.32-4.76A38.81,38.81,0,0,0,267.21,26.11Z"/>
    <path class="b" d="M283.39,269.06c-2.08,2.51-4.45,5.35-4.34,8.07.09,2.09,2.12,2.45,3.91,2.76.43.07.84.14,1.22.24a45,45,0,0,1,6.2,2.1V282a45.2,45.2,0,0,0-6.16-2.08c-.39-.09-.79-.17-1.23-.24-1.8-.32-3.66-.64-3.74-2.58-.11-2.64,2.23-5.45,4.29-7.93a31.08,31.08,0,0,0,2.21-2.85,69.07,69.07,0,0,0,4.63-8.65v-.46a71.11,71.11,0,0,1-4.79,9A29.49,29.49,0,0,1,283.39,269.06Z"/>
    <path class="b" d="M287,125.5c-.75-.52-1.76-1.26-2.81-2-1.52-1.11-3-2.3-4.54-3.57l-1.14-1c-2.6-2.2-6.15-5.22-9.43-5.22a4.67,4.67,0,0,0-2.48.7c-5.66,3.5-2.26,11.85-.23,16.84.25.61.48,1.18.68,1.69a103.67,103.67,0,0,1,3.68,10.84c.19.71.37,1.54.57,2.43.9,4.05,2.14,9.59,5.24,11.59a3.85,3.85,0,0,0,1.6.61,2.74,2.74,0,0,0,.5,0c3.79,0,7.56-5.76,10.32-10,.5-.76,1-1.45,1.38-2.05v-.34c-.46.65-1,1.42-1.54,2.28-2.73,4.17-6.48,9.88-10.16,9.88a3.88,3.88,0,0,1-.48,0,3.8,3.8,0,0,1-1.52-.58c-3-2-4.26-7.46-5.15-11.47-.2-.89-.38-1.73-.57-2.44a103.27,103.27,0,0,0-3.69-10.86c-.2-.51-.43-1.08-.68-1.69-2-4.94-5.37-13.19.15-16.61a4.49,4.49,0,0,1,2.38-.66c3.21,0,6.73,3,9.31,5.17.4.34.79.67,1.15,1,1.55,1.27,3,2.47,4.53,3.58,1.06.77,2.07,1.51,2.82,2l3.11,2.11.34.23v-.23l-.24-.16Z"/>
    <path class="b" d="M253.54,171.23a3.49,3.49,0,0,0,2.78,1.27c6.44.53,16.17,1.33,24.39,8.81l.09.09a28.38,28.38,0,0,1,6.79,9.65,2.39,2.39,0,0,0,2.08,1.67,2,2,0,0,0,.71-.14v-.23a1.73,1.73,0,0,1-.71.18,2.23,2.23,0,0,1-1.91-1.56,28.72,28.72,0,0,0-6.83-9.72l-.09-.08c-8.27-7.53-18-8.33-24.51-8.86a3.35,3.35,0,0,1-2.63-1.19,5,5,0,0,1-.83-3.24c.89-3.95,2-8.85,1.59-14.23-.71-9.09-4.34-16.91-7.86-24.46-2.82-6.07-6-12.94-4.91-16.08,2-5.57,10.06-13.57,13.44-16.75a10.77,10.77,0,0,1,7.59-3,13,13,0,0,1,4,.64c5.93,1.91,14.32,6.29,23.68,12.3V106c-9.33-6-17.7-10.35-23.62-12.26a13.56,13.56,0,0,0-4-.65,11,11,0,0,0-7.72,3.1c-3.4,3.19-11.5,11.21-13.49,16.83-1.14,3.21,2.08,10.12,4.92,16.22,3.5,7.54,7.13,15.34,7.83,24.4.42,5.34-.69,10.23-1.58,14.17A5.24,5.24,0,0,0,253.54,171.23Z"/>
    <path class="b" d="M289.8,268c-1,1.7-2.21,3.63-1.93,5.72a4.19,4.19,0,0,0,2.51,3.6v-.22a4,4,0,0,1-2.32-3.4c-.27-2,.89-3.93,1.91-5.6l.19-.32c.08-.12.14-.26.22-.39V267c-.13.23-.25.47-.38.69Z"/>
    <path class="b" d="M205.82,10.37c5.56,3.49,12,5.19,19.82,5.19,7.15,0,14.64-1.41,21.88-2.77,7-1.32,14.34-2.69,21.11-2.69s12.56,1.42,17.4,4.35l2.66,1.62,1.69,1v-.53c-.5-.29-1-.59-1.45-.88l-2.66-1.61c-4.92-3-10.69-4.42-17.64-4.42s-14.12,1.37-21.19,2.7c-7.22,1.36-14.69,2.76-21.8,2.76-7.69,0-14.09-1.67-19.58-5.12-3.69-2.31-5.47-4.75-5.29-7.23a5.81,5.81,0,0,1,.76-2.38H201a6,6,0,0,0-.71,2.35C200.13,5.39,202,8,205.82,10.37Z"/>
    <path class="b" d="M265.68,165.39a18.22,18.22,0,0,0,5.42,1.48,24.35,24.35,0,0,1,4.15.94,24.8,24.8,0,0,1,2.51,1.13c1.85.91,3.94,1.94,5.85,1.94a4.59,4.59,0,0,0,1.06-.11l.26-.07c2.73-.81,4.19-4.24,5.45-7.39v-.52l0,.06c-1.27,3.21-2.72,6.84-5.48,7.67l-.25.06a4.6,4.6,0,0,1-1,.11c-1.86,0-3.93-1-5.76-1.92a26.53,26.53,0,0,0-2.53-1.15,25.16,25.16,0,0,0-4.18-.94,18,18,0,0,1-5.37-1.46c-3.18-1.74-2.85-4.94-2.5-8.32a22.11,22.11,0,0,0,.18-4c-.83-10.72-4.81-19.28-8.67-27.56a14.42,14.42,0,0,1-.36-11.61,16.3,16.3,0,0,1,9.44-8.92,11.76,11.76,0,0,1,4.21-.78c6.21,0,12.05,4.77,17.2,9,1.46,1.19,2.84,2.31,4.16,3.28l.95.69v-.24l-.83-.61c-1.32-1-2.7-2.08-4.15-3.27-5.18-4.23-11-9-17.33-9a12.11,12.11,0,0,0-4.28.79,16.52,16.52,0,0,0-9.55,9,14.61,14.61,0,0,0,.37,11.76c3.84,8.26,7.82,16.81,8.65,27.5a23.72,23.72,0,0,1-.18,3.91C262.73,160.17,262.38,163.58,265.68,165.39Z"/>
    <path class="b" d="M267.21,32.62c-5.42,0-11.19,1-17.3,2C243,35.82,235.92,37,228.35,37l-1.61,0a38.31,38.31,0,0,1-6.83-.88,24.62,24.62,0,0,0-4.58-.61c-3.35,0-5.81,1.76-8.5,6.08a41.33,41.33,0,0,0-3.15,7c-1.62,4.26-3.29,8.67-7,11.28-1.27.9-3.71,1.59-6.28,2.33-4.51,1.29-9.61,2.74-10.31,5.78-.86,3.82,7,9,11.18,11.84.78.52,1.46,1,1.9,1.3,4.94,3.62,9,6,12.9,6a9.08,9.08,0,0,0,1.57-.14c3.09-.56,5.91-2.74,8.84-6.89a65.3,65.3,0,0,1,35-25.06A45.63,45.63,0,0,1,264,53.21c11.12,0,19.35,4.49,26.43,9.49v-.24C283.3,57.47,275.07,53,264,53a45.65,45.65,0,0,0-12.54,1.86A65.4,65.4,0,0,0,216.34,80c-2.91,4.1-5.68,6.26-8.72,6.81a8.73,8.73,0,0,1-1.54.13c-3.83,0-7.88-2.39-12.78-6-.45-.33-1.13-.78-1.91-1.3-4.17-2.78-11.93-8-11.1-11.63.67-2.93,5.72-4.37,10.17-5.64,2.59-.75,5-1.44,6.34-2.36,3.75-2.65,5.43-7.08,7.06-11.37A40.29,40.29,0,0,1,207,41.7c2.65-4.25,5.06-6,8.33-6a24.34,24.34,0,0,1,4.54.61,39.55,39.55,0,0,0,6.86.89h1.62c7.59,0,14.71-1.21,21.6-2.39,6.1-1,11.85-2,17.26-2a32.46,32.46,0,0,1,9,1.16,83.51,83.51,0,0,1,14.16,5.77v-.21a82.77,82.77,0,0,0-14.1-5.74A32.51,32.51,0,0,0,267.21,32.62Z"/>
    <path class="b" d="M261.5,168.86c1.32.33,2.61.63,3.85.92,6.74,1.56,12.56,2.91,18.38,8.18l.11.11c1.34,1.21,2.4,1.8,3.23,1.8a1.58,1.58,0,0,0,.38-.05c1.27-.29,1.9-2,2.59-4.33.11-.35.22-.7.34-1.05v-.64c-.19.55-.36,1.09-.53,1.64-.67,2.21-1.28,3.93-2.44,4.19-.84.2-1.94-.36-3.44-1.71l-.11-.1c-5.86-5.3-11.7-6.66-18.46-8.23-1.25-.29-2.54-.58-3.85-.91-4.73-1.19-3.93-5.63-3.16-9.93a22.68,22.68,0,0,0,.56-5.45c-.76-9.9-4.57-18.09-8.26-26-.44-.94-.91-1.87-1.37-2.76-2.37-4.65-4.41-8.66-1.49-13.6,2.2-3.71,5.5-6.75,8.68-9.69l1.71-1.59a7,7,0,0,1,5-1.74c7.94,0,20.15,8.45,27.18,13.55v-.24c-7.07-5.11-19.23-13.5-27.18-13.5a7.2,7.2,0,0,0-5.11,1.79l-1.71,1.59c-3.19,3-6.5,6-8.71,9.74-3,5-.81,9.27,1.48,13.77.46.9.93,1.82,1.37,2.77,3.67,7.9,7.48,16.08,8.24,25.95a22.26,22.26,0,0,1-.56,5.39C257.42,163.1,256.6,167.63,261.5,168.86Z"/>
    <path class="b" d="M125.88,261.67c-1.63,2.46-3.66,5.52-3,7.63a3.2,3.2,0,0,0,2.14,1.92,2.28,2.28,0,0,0,.7.11c2.49,0,6.43-3.84,9.91-7.24,2.21-2.15,4.31-4.19,5.56-4.76,6-2.73,14.29-4,21.6-5.17,2.89-.45,5.61-.88,8.13-1.37a86.3,86.3,0,0,1,16.46-1.69c17,0,31.22,6.1,42.36,18.15a7,7,0,0,0,5.39,2c7.27,0,19.74-7.08,28.52-20.2,5.26-7.84,12.88-23.88,4.95-43.14-3.18-7.72-7.9-11.32-14.87-11.32-5.3,0-11.34,2-18.34,4.2-8.61,2.78-18.37,5.93-28.87,5.93a47.63,47.63,0,0,1-23-5.77c-22.42-12-23.08-33.77-21.14-51.44.75-6.87-.47-12.31-3.54-15.73a11.12,11.12,0,0,0-8.52-3.69c-6.48,0-14.55,5-17.46,14.62-2.74,9,3.75,17.25,11.28,26.76,8.48,10.73,18.1,22.88,16.23,39.1-.92,8-3.86,15.76-7.85,20.65-3,3.7-5.71,4-8.54,4.38a15.24,15.24,0,0,0-7,2.2c-2,1.27-2.63,3.44-3.29,5.73a14.44,14.44,0,0,1-1.9,4.54,3.46,3.46,0,0,1-2.42,1.07c-1.28.22-2.74.47-3.51,2.13-.53,1.15.17,2.51.86,3.83.57,1.09,1.16,2.22,1,3.17A12.79,12.79,0,0,1,125.88,261.67Zm1.22-6.7c-.67-1.3-1.31-2.51-.85-3.5.69-1.49,2-1.71,3.24-1.93a3.75,3.75,0,0,0,2.65-1.21,15,15,0,0,0,2-4.66c.64-2.22,1.25-4.32,3.13-5.51A14.92,14.92,0,0,1,144.1,236c2.91-.36,5.66-.7,8.79-4.52,4-4.94,7-12.73,7.93-20.83,1.89-16.38-7.78-28.6-16.31-39.38-7.46-9.43-13.9-17.57-11.22-26.42,2.86-9.43,10.77-14.36,17.11-14.36a10.74,10.74,0,0,1,8.25,3.57c3,3.33,4.18,8.67,3.44,15.44-2,17.78-1.29,39.75,21.33,51.81a48,48,0,0,0,23.14,5.81c10.56,0,20.35-3.16,29-5.94,7-2.25,13-4.19,18.22-4.19,6.89,0,11.37,3.42,14.53,11.09,7.87,19.11.3,35-4.92,42.8-8.39,12.53-20.93,20-28.21,20a6.65,6.65,0,0,1-5.12-1.91c-11.21-12.13-25.55-18.27-42.63-18.27a86.32,86.32,0,0,0-16.53,1.7c-2.51.49-5.23.91-8.12,1.36-7.33,1.15-15.64,2.45-21.69,5.2-1.32.6-3.33,2.56-5.67,4.84-3.43,3.34-7.31,7.13-9.65,7.13a1.7,1.7,0,0,1-.57-.09,2.78,2.78,0,0,1-1.91-1.68c-.65-1.95,1.33-4.92,2.91-7.31a13.11,13.11,0,0,0,1.93-3.51C128.32,257.31,127.7,256.12,127.1,255Z"/>
    <path class="b" d="M85.87,262.74c2.91-2.63,7.51-4.94,12.84-7.61,3.72-1.86,8.71-6.43,8.42-10.18-.17-2-1.81-3.57-4.89-4.54a13.1,13.1,0,0,0-4.06-.57c-3.94,0-8.39,1.31-12.31,2.46-1.79.53-3.48,1-5,1.38-13,2.94-20.8,4.72-27.81,4.72-6.21,0-11.66-1.39-18.8-4.8a153.81,153.81,0,0,1-15.85-8.84c-5.89-3.65-8.64-5.26-12.12-5.26a19.83,19.83,0,0,0-5.89,1.1v.34a19.73,19.73,0,0,1,5.89-1.12c3.39,0,6.11,1.6,12,5.21a156.25,156.25,0,0,0,15.88,8.86c7.19,3.43,12.67,4.83,18.94,4.83,7.05,0,14.89-1.78,27.88-4.72,1.55-.36,3.25-.86,5-1.39,3.9-1.15,8.32-2.45,12.22-2.45a13.07,13.07,0,0,1,4,.55c2.94.93,4.51,2.37,4.66,4.27.29,3.6-4.6,8-8.24,9.87-5.35,2.67-10,5-12.9,7.65-8.87,8-7.44,18.48-4.75,27.88h.33C78.57,281.05,77.12,270.65,85.87,262.74Z"/>
    <path class="b" d="M281.64,217.69a7.33,7.33,0,0,0,3.79.82,17.39,17.39,0,0,0,4.95-.79v-.47a17.13,17.13,0,0,1-4.95.81,7,7,0,0,1-3.55-.75c-3.78-2.42-5.46-6.69-7.23-11.21-1.53-3.9-3.11-7.93-6.18-10.77v-.14h-.13c-3.53-3.12-8.28-4.63-14.53-4.63s-12.51,1.46-17.66,2.64a47.3,47.3,0,0,1-8.52,1.5c-1.15,0-1.85-.24-2.14-.73s-.09-1.86.86-3.6c4.46-8.13,13.45-27.52,12.83-35.54-.49-6.33-3.54-12.87-6.48-19.19C228.43,126.5,224,117,227.23,108c3.66-10.32,19.78-28.76,31.25-30.33a16.19,16.19,0,0,1,2.14-.13c7.46,0,18.38,4.44,29.76,10.88v-.48C279,81.51,268.09,77.08,260.62,77.08a15.46,15.46,0,0,0-2.2.14c-11.62,1.58-27.92,20.2-31.61,30.62-3.27,9.21,1.17,18.76,5.47,28,2.93,6.29,5.95,12.79,6.44,19,.55,7.15-7.29,25.28-12.77,35.28-1.07,2-1.34,3.24-.86,4.05.38.64,1.21.95,2.53.95a47.11,47.11,0,0,0,8.62-1.51c5.13-1.17,11.51-2.63,17.56-2.63s10.85,1.5,14.3,4.57h0c3,2.77,4.61,6.79,6.13,10.67C276,210.86,277.73,215.19,281.64,217.69Z"/>
    <path class="b" d="M277.88,247.11a78.18,78.18,0,0,1-5.35,10.72c-11.88,18.48-25.13,21.59-39.14,24.88-1.07.26-2.19.49-3.28.72-4.67,1-9.5,2-13.43,4.58a12.91,12.91,0,0,0-2.83,2.37h.42a12.79,12.79,0,0,1,2.58-2.1c3.89-2.52,8.69-3.54,13.33-4.53,1.09-.23,2.21-.47,3.28-.72,14.08-3.31,27.39-6.44,39.34-25a79.06,79.06,0,0,0,5.38-10.78c2.71-6.18,5.79-13.19,10-15.54q1.13-.42,2.16-.75v-.34c-.73.23-1.49.5-2.3.8C283.71,233.81,280.62,240.87,277.88,247.11Z"/>
    <path class="b" d="M210.88,283.38c7.6-3.38,14.47-5,21.12-6.56,13.35-3.14,24.88-5.85,35.43-22.26a72.76,72.76,0,0,0,4.9-9.88c3.35-7.64,6.82-15.54,13.25-18.81a46,46,0,0,1,4.8-1.58v-.46a45.86,45.86,0,0,0-5,1.64c-6.58,3.34-10.08,11.31-13.46,19a72.88,72.88,0,0,1-4.87,9.81c-10.45,16.26-21.9,18.95-35.16,22.07-6.66,1.57-13.56,3.19-21.19,6.59-5,2.22-8.29,4.78-9.67,7.41h.5C202.92,287.92,206.13,285.5,210.88,283.38Z"/>
    <path class="b" d="M212.37,268c-1.2-3.78-6.42-6.6-15.54-8.39a95.56,95.56,0,0,0-18.24-1.77,99,99,0,0,0-27,3.81c-1.21.34-2.43.72-3.61,1.11-15.43,5.12-24.33,13.65-28.32,27.65h.47c4-13.77,12.78-22.17,28-27.22,1.18-.39,2.39-.76,3.59-1.1a98.59,98.59,0,0,1,26.85-3.8A94.63,94.63,0,0,1,196.74,260c8.94,1.75,14.06,4.47,15.2,8.07.87,2.77-.57,6.14-4.31,10s-7.75,8.09-11.26,12.25h.6c3.43-4.05,7.23-8,11-11.94S213.3,270.9,212.37,268Z"/>
    <path class="b" d="M176.62,232.12a1.78,1.78,0,0,0,.84.22c1.15,0,2.27-1.12,3.27-2.11a7.22,7.22,0,0,1,1.56-1.32,3.76,3.76,0,0,1,1.66-.41,5.9,5.9,0,0,1,2.89,1.05c.37.2.74.41,1.14.61a6.43,6.43,0,0,0,2.87.71,12.11,12.11,0,0,0,2.85-.46,14.15,14.15,0,0,1,3.23-.53h.15c2.45,0,4.7,1.27,6.87,2.49s4.38,2.49,6.81,2.49a7.35,7.35,0,0,0,3.42-.86,12.42,12.42,0,0,0,2.22-1.54,4.93,4.93,0,0,1,3.32-1.53,6,6,0,0,1,1.39.17c4.14,1,6,4.79,7.72,8.47a29.6,29.6,0,0,0,2.75,4.93c2.16,2.85,4.94,4.42,7.84,4.42h.15c2.91,0,5.7-1.65,7.86-4.51,2.94-3.87,8.26-16.5,6.06-22.78a5.15,5.15,0,0,0-3.73-3.49,7.47,7.47,0,0,0-1.82-.24c-1.89,0-3.29.84-4.92,1.82l-1.15.67c-3.3,1.87-6.58,2.26-10.05,2.67-1.36.16-2.77.32-4.19.58a25.15,25.15,0,0,0-4.4,1.38,14.9,14.9,0,0,1-5.42,1.37,8.4,8.4,0,0,1-3.81-.94,20,20,0,0,0-8.75-2.51,13.33,13.33,0,0,0-3.17.38l-1.44.36a22.07,22.07,0,0,1-5.37.92,9.64,9.64,0,0,1-4.13-.92l-.57-.26c-2.44-1.12-4.95-2.29-7.53-2.29a8.14,8.14,0,0,0-4,1.06c-1.61.89-3.77,4.66-3.77,7.28A2.84,2.84,0,0,0,176.62,232.12Zm2.56-9.65a7.79,7.79,0,0,1,3.86-1c2.5,0,5,1.15,7.39,2.26l.57.27a10.13,10.13,0,0,0,4.27.94,21.93,21.93,0,0,0,5.44-.93l1.44-.35a12.82,12.82,0,0,1,3.1-.38,19.64,19.64,0,0,1,8.61,2.48,8.73,8.73,0,0,0,3.95,1,15.2,15.2,0,0,0,5.54-1.4,24.89,24.89,0,0,1,4.33-1.36c1.42-.26,2.82-.42,4.18-.58,3.5-.42,6.81-.81,10.17-2.71l1.15-.68c1.59-1,3-1.77,4.76-1.77a7.37,7.37,0,0,1,1.74.23,4.82,4.82,0,0,1,3.5,3.29c2.17,6.18-3.1,18.64-6,22.48-2.1,2.77-4.8,4.33-7.61,4.38h-.15c-2.79,0-5.49-1.53-7.58-4.3a27.45,27.45,0,0,1-2.72-4.87c-1.79-3.75-3.65-7.63-7.94-8.64a6.65,6.65,0,0,0-1.46-.19,5.21,5.21,0,0,0-3.53,1.61,11.78,11.78,0,0,1-2.15,1.5,7.14,7.14,0,0,1-3.28.82c-2.34,0-4.44-1.18-6.66-2.44s-4.48-2.53-7-2.53h-.16a14.7,14.7,0,0,0-3.3.53,11.12,11.12,0,0,1-2.77.45,6,6,0,0,1-2.73-.67c-.39-.19-.76-.4-1.12-.6a6.35,6.35,0,0,0-3.05-1.1,4.09,4.09,0,0,0-1.8.45A7.23,7.23,0,0,0,180.5,230c-.95.95-2,2-3,2a1.42,1.42,0,0,1-.69-.18,2.49,2.49,0,0,1-1.19-2.37C175.57,226.81,177.82,223.22,179.18,222.47Z"/>
    <path class="b" d="M135.05,254.9a9.45,9.45,0,0,0,2.09.16c2,0,9.24-.29,20.58-4A102.14,102.14,0,0,1,189,246.17c17.54,0,29.2,2.63,44.21,17a5.89,5.89,0,0,0,4.24,1.54c6.52,0,16.39-7.1,22.46-16.17,4.74-7.08,11.64-21.54,4.52-38.83-3.07-7.44-6.91-8.47-10.62-8.47-4.57,0-10.29,1.84-16.93,4-8.93,2.88-19.06,6.15-30.28,6.15a52.22,52.22,0,0,1-25.13-6.31c-25.13-13.41-25.48-38.38-23.55-56,.6-5.46-.25-9.78-2.38-12.16a6.57,6.57,0,0,0-5.1-2.16c-4.78,0-10.8,3.9-13.06,11.36-2,6.73,3.76,14.07,10.49,22.57,8.59,10.86,19.28,24.37,17.19,42.48a46.92,46.92,0,0,1-4.11,14.65A56.3,56.3,0,0,1,147.57,244a68,68,0,0,1-9.86,7.09c-2.4,1.5-3.85,2.4-3.75,3.08C134,254.49,134.36,254.72,135.05,254.9Zm2.76-3.63a67.23,67.23,0,0,0,9.88-7.12,56.21,56.21,0,0,0,13.39-18.27,47,47,0,0,0,4.14-14.72c2.09-18.19-8.63-31.74-17.24-42.62-6.69-8.46-12.47-15.76-10.45-22.4,2.23-7.36,8.16-11.22,12.87-11.22a6.35,6.35,0,0,1,4.95,2.1c2.1,2.34,2.93,6.6,2.34,12-1.93,17.67-1.59,42.73,23.65,56.19a52.36,52.36,0,0,0,25.22,6.33c11.25,0,21.4-3.27,30.35-6.16,6.61-2.13,12.32-4,16.86-4,3.64,0,7.42,1,10.44,8.35,7.08,17.21.22,31.61-4.5,38.66-5.94,8.86-15.94,16.08-22.3,16.08A5.7,5.7,0,0,1,233.3,263c-7.27-7-14-11.39-21.3-13.93-6.25-2.18-13.14-3.12-23-3.12a102.53,102.53,0,0,0-31.3,4.87c-11.32,3.74-18.57,4-20.52,4a8.93,8.93,0,0,1-2-.16c-.59-.15-.91-.34-.95-.56C134.07,253.6,135.64,252.62,137.81,251.27Z"/>
    <path class="b" d="M150.4,139.18c-3.46,0-7.26,3.49-8.5,6.63-.82,2.08-.2,5.63,1.68,9.51,1.77,3.66,4.12,6.46,5.86,7a2.77,2.77,0,0,0,.8.12,2.82,2.82,0,0,0,.86-.14c2.24-.78,2.19-2.16,2.08-5.18a48.87,48.87,0,0,1,.22-7.88c.51-4.69-.22-8.26-1.21-9.36A2.1,2.1,0,0,0,150.4,139.18Zm2.68,10a49.51,49.51,0,0,0-.22,7.93c.11,3,.15,4.16-1.87,4.86a2.32,2.32,0,0,1-1.45,0c-1.66-.5-3.94-3.24-5.67-6.82-1.84-3.8-2.46-7.26-1.67-9.25,1.2-3,4.87-6.43,8.2-6.43a1.85,1.85,0,0,1,1.55.57C152.89,141.13,153.58,144.59,153.08,149.18Z"/>
    <path class="b" d="M228.41,232.57a12.41,12.41,0,0,1,1.63.8l.69.38a38.5,38.5,0,0,1,6.44,4.19,3.71,3.71,0,0,0,2.21,1.11c.88,0,1.4-.75,1.81-1.46a21.9,21.9,0,0,0,2.75-8.3,1.82,1.82,0,0,0-.28-1.49c-.46-.56-1.38-.65-2.74-.28-4.08,1.13-6.84,1.66-10.32,2.32l-1.9.36a1.44,1.44,0,0,0-1.24,1.15C227.44,231.59,227.49,232.2,228.41,232.57Zm.36-2,1.9-.36c3.49-.66,6.25-1.18,10.35-2.32a5.1,5.1,0,0,1,1.32-.21,1.29,1.29,0,0,1,1,.37,1.45,1.45,0,0,1,.19,1.19,21.57,21.57,0,0,1-2.7,8.17c-.45.77-.87,1.28-1.49,1.28a3.45,3.45,0,0,1-2-1,38.38,38.38,0,0,0-6.5-4.23l-.69-.38a13.16,13.16,0,0,0-1.68-.83c-.48-.19-.74-.5-.71-.83A1.08,1.08,0,0,1,228.77,230.56Z"/>
    <path class="b" d="M169.22,239.36a18.7,18.7,0,0,0,2.23-.16c.4,0,9.75-1.09,19.78-1.09a98.22,98.22,0,0,1,10.36.48c14.82,1.6,27.64,8.66,33.78,15a5.41,5.41,0,0,0,4,1.74c3.44,0,7.67-3,11.61-8.2,6.91-9.12,9-26.59,5.57-33.47-.91-1.82-2.17-2.79-3.67-2.79l-.38,0c-2.71.28-6.47,1.38-11.23,2.78-8.91,2.61-21.12,6.19-34.35,6.4-11.31.19-24.24-4.29-28.64-6.43a7.76,7.76,0,0,0-3-1c-1.31,0-1.37,1.24-1.46,3.31a24.21,24.21,0,0,1-1,6.46,81.29,81.29,0,0,1-4.31,10.79c-1.33,2.86-2.14,4.59-1.57,5.49C167.27,239.14,168,239.36,169.22,239.36Zm-.52-6.13A82.38,82.38,0,0,0,173,222.42a24.24,24.24,0,0,0,1-6.51c.09-2,.15-3.13,1.27-3.13a7.92,7.92,0,0,1,2.93,1c4.32,2.11,16.87,6.46,28.06,6.46h.66c13.26-.22,25.49-3.8,34.41-6.42,4.75-1.39,8.5-2.49,11.19-2.77,1.6-.16,2.9.74,3.86,2.67,3.4,6.83,1.31,24.19-5.55,33.27-3.91,5.16-8.08,8.12-11.46,8.12a5.24,5.24,0,0,1-3.86-1.69c-6.16-6.32-19-13.41-33.9-15a98.62,98.62,0,0,0-10.38-.48c-10,0-19.4,1.05-19.8,1.09a20.54,20.54,0,0,1-2.21.15c-1.16,0-1.83-.2-2.1-.62C166.6,237.73,167.39,236,168.7,233.23Z"/>
    <path class="b" d="M154.8,246.74a6.91,6.91,0,0,0,2.17-.43c9-3.13,19.49-4.65,32-4.65,15.58,0,31,1.42,48.55,18.67a2.7,2.7,0,0,0,2,.74h0c4.9,0,14-9.39,16.65-15.06.24-.51.51-1.06.79-1.64,3.42-7,9.14-18.75,3.3-33-2.34-5.68-4.52-5.68-6.45-5.68-3.86,0-9.27,1.75-15.54,3.77-9.25,3-19.74,6.36-31.67,6.36-10.22,0-18.48-1.88-26.8-6.09-1.29-.65-2.53-1.36-3.63-2-2.19-1.26-3.92-2.25-5-2.25-.87,0-1.3.61-1.32,1.85,0,.2,0,.52.08,1,1.19,12.24-3.55,23.66-14.08,33.94-1.84,1.8-2.62,3.09-2.31,3.84C153.63,246.53,154.09,246.74,154.8,246.74Zm1.11-4.31c6.78-6.61,11.22-13.79,13.2-21.34a35,35,0,0,0,.94-12.75c0-.44-.07-.76-.07-.94,0-1.49.65-1.67,1.12-1.67,1.06,0,2.86,1,4.94,2.23,1.09.63,2.34,1.34,3.63,2,8.35,4.23,16.64,6.11,26.89,6.11,12,0,22.46-3.38,31.73-6.37,6.25-2,11.65-3.75,15.48-3.75,1.87,0,4,0,6.27,5.55,5.81,14.12.11,25.81-3.29,32.8-.28.58-.55,1.12-.79,1.64-2.67,5.62-11.64,14.95-16.48,14.95a2.53,2.53,0,0,1-1.84-.69c-8.14-8-16.58-13.26-25.78-16-8.2-2.48-15.81-2.69-22.9-2.69-12.53,0-23,1.53-32.06,4.67a6.72,6.72,0,0,1-2.1.41c-.44,0-1-.08-1.15-.48S153.58,244.71,155.91,242.43Z"/>
    <path class="b" d="M120.16.38h-.47a64.7,64.7,0,0,0-2.1,11.45c-.71,7.27-1.34,16.79.15,26,1.08,6.69,3.26,9.67,7.05,9.67h0c2.42,0,5.24-1.18,8.5-2.54a64.29,64.29,0,0,1,7.12-2.63l.72-.2a56.78,56.78,0,0,1,23.71-.8,64.91,64.91,0,0,1,6.85,1.63,45.54,45.54,0,0,0,10.09,2,8.43,8.43,0,0,0,4.13-.57c2.74-1.36,1.41-4.78,0-8.39a23,23,0,0,1-1.84-6.32C183.32,19.12,189.2,9.53,197,.38h-.6c-7.7,9.14-13.5,18.72-12.74,29.28a23.34,23.34,0,0,0,1.87,6.46c1.39,3.56,2.59,6.64.22,7.82a8.36,8.36,0,0,1-3.91.52,45.56,45.56,0,0,1-10-2,64.68,64.68,0,0,0-6.9-1.64,57.19,57.19,0,0,0-23.9.81l-.72.2a61.83,61.83,0,0,0-7.17,2.65c-3.22,1.34-6,2.5-8.33,2.5-3.54,0-5.58-2.87-6.62-9.29-1.48-9.12-.85-18.6-.14-25.84A64,64,0,0,1,120.16.38Z"/>
    <path class="b" d="M114.38,180.72a1.81,1.81,0,0,0-1.17-.58c-.91,0-1.54,1.15-2.49,2.88a30.91,30.91,0,0,1-4.7,6.75l-.68.73c-2.69,2.86-3.92,4.16-3.62,4.85.14.32.55.46,1.35.46a24.86,24.86,0,0,0,3.32-.33,15.88,15.88,0,0,1,2.07-.14c5.59,0,10.25,3.13,13.65,5.42,2,1.34,3.56,2.4,4.69,2.4a1.4,1.4,0,0,0,1.15-.56C131.52,198,119,184.94,114.38,180.72ZM127.7,202.4a1.1,1.1,0,0,1-.9.44c-1,0-2.57-1-4.51-2.35-3.44-2.31-8.14-5.47-13.83-5.47a16.49,16.49,0,0,0-2.11.14,26.31,26.31,0,0,1-3.28.33c-.62,0-1-.09-1-.26-.22-.51,1.28-2.1,3.55-4.5l.69-.74a31.58,31.58,0,0,0,4.74-6.81c.9-1.64,1.49-2.72,2.21-2.72a1.54,1.54,0,0,1,1,.5C120,186.2,130.86,198.34,127.7,202.4Z"/>
    <path class="b" d="M114.47,186.09c-2.25,0-5.16,3.56-5.17,5.25a1,1,0,0,0,1.18,1.11c3.32.06,6.83,2.16,9.4,3.7,1.52.91,2.61,1.57,3.26,1.57h0a.65.65,0,0,0,.5-.19,1,1,0,0,0,.18-.75c-.24-3.1-6.12-9.3-8.51-10.5A1.92,1.92,0,0,0,114.47,186.09Zm8.9,10.72c0,.28,0,.38-.07.41s0,.05-.16.05h0a10.2,10.2,0,0,1-3-1.51c-2.61-1.56-6.18-3.7-9.63-3.76-.51,0-.73-.21-.73-.66,0-1.5,2.71-4.79,4.72-4.79a1.34,1.34,0,0,1,.64.14C117.68,188,123.15,194,123.37,196.81Z"/>
    <path class="b" d="M106.5,127.64h0c.56,0,1-.78,1.43-2.54a33.39,33.39,0,0,1,15.26-19.92,56.68,56.68,0,0,1,17-6.55c1.49-.33,2.24-.49,2.42-.89a.56.56,0,0,0-.07-.53c-.57-1.06-11-6.88-25.94-8.09l-.63-.05c-1.35-.11-2.51-.21-3.63-.21-3.9,0-7,1.1-14.39,7.3-1.16,1-2.35,1.89-3.5,2.77-3.55,2.72-6.62,5.08-6.42,7.74.15,2,2.18,4.09,6.39,6.41,4.65,2.56,7.49,7.65,9.36,11C105,126.23,105.76,127.64,106.5,127.64Zm-12-14.73c-4.08-2.25-6.14-4.3-6.29-6.25-.19-2.56,2.84-4.89,6.35-7.57,1.15-.89,2.34-1.8,3.5-2.78,7.3-6.17,10.42-7.25,14.27-7.25,1.11,0,2.27.09,3.62.2l.63.06c14.61,1.17,25.24,7,25.78,8,.12.2.09.31.07.36-.14.31-.95.49-2.29.78A56.78,56.78,0,0,0,123.09,105a33.64,33.64,0,0,0-15.35,20c-.39,1.61-.8,2.4-1.24,2.4h0c-.63,0-1.48-1.52-2.55-3.45C102.07,120.62,99.21,115.5,94.51,112.91Z"/>
    <path class="b" d="M107.72,138.71c.56,0,1-.68,1.22-2.12,1.67-8.87,5.3-21.44,17.42-28.14a55.32,55.32,0,0,1,12.93-5,11.71,11.71,0,0,0,3.1-1.68c1.34-.9,2.72-1.83,4-1.83a3.15,3.15,0,0,1,.44,0,4.05,4.05,0,0,1,1.76.94,3.08,3.08,0,0,0,1.89.88,2.26,2.26,0,0,0,.89-.19,2.32,2.32,0,0,0,1.1-1,1.77,1.77,0,0,1,1.84-1c1.09.09,1.68.92,2.3,1.8a4.94,4.94,0,0,0,1.51,1.6,4.72,4.72,0,0,0,2,.54,1.31,1.31,0,0,0,1.09-.41,1.24,1.24,0,0,0,.1-1.08c-.43-1.52-3.68-2.94-5.84-3.88-.64-.28-1.19-.52-1.54-.7-3.21-1.7-6.41-3.14-9.12-4.33-11.42-5-21.83-8-31.83-9.32a24.16,24.16,0,0,0-3-.21c-4.92,0-8.74,2.15-16.33,9.21-1.86,1.74-3.78,3.22-5.64,4.66-4.15,3.23-7.43,5.77-7.35,9,.06,2.52,2.26,5.22,6.91,8.47,7.49,5.24,12.46,13.2,15.75,18.47C105.41,136.56,106.74,138.71,107.72,138.71Zm-20-24c-4.6-3.21-6.77-5.86-6.83-8.32-.07-3.11,3.17-5.62,7.28-8.81,1.86-1.45,3.78-2.94,5.65-4.68,7.55-7,11.34-9.16,16.2-9.16a24,24,0,0,1,3,.21c10,1.28,20.37,4.32,31.77,9.31,2.71,1.18,5.9,2.62,9.11,4.32.36.19.91.43,1.55.71,2.12.92,5.33,2.32,5.73,3.75a1,1,0,0,1-.07.92,1.18,1.18,0,0,1-.93.33,4.45,4.45,0,0,1-1.95-.52,4.91,4.91,0,0,1-1.46-1.54c-.61-.87-1.25-1.78-2.43-1.88a1.92,1.92,0,0,0-2,1.11,2.24,2.24,0,0,1-1,1,2.14,2.14,0,0,1-.82.18,2.94,2.94,0,0,1-1.77-.84,4.34,4.34,0,0,0-1.85-1,3.57,3.57,0,0,0-.47,0c-1.33,0-2.74,1-4.1,1.87a11.06,11.06,0,0,1-3,1.65,55.93,55.93,0,0,0-13,5c-12.2,6.74-15.84,19.37-17.52,28.27-.25,1.32-.59,2-1,2-.87,0-2.26-2.22-4.18-5.29C100.24,127.94,95.26,120,87.74,114.69Z"/>
    <path class="b" d="M131.53,219.57a13.86,13.86,0,0,0,10.58-7.72c1.84-3.82,2.84-10.3-2.88-19.48-2.46-3.94-5.14-7.92-7.73-11.77-7.41-11-14.41-21.4-17.3-31.82-3.27-11.8-.65-21.52,8.26-30.62,7.71-7.87,17.9-12.39,28-12.39,7.56,0,14.31,2.66,19,7.49,5.15,5.3,7.73,13.07,7.45,22.45-.07,2.17-.17,4.42-.28,6.8-.39,8.47-.83,18.07.53,26.05,1.58,9.19,5.31,14.86,11.41,17.34a24.59,24.59,0,0,0,9.2,2,15.29,15.29,0,0,0,12.7-6.52c5.36-7.25,6.64-19.66,3.2-30.89-7.4-24.09-25.17-38.47-51.44-53.86-20-11.7-36.82-15.31-52.06-17.47a23.3,23.3,0,0,0-3.22-.24c-6.36,0-9.39,3.24-13.23,7.34a64.29,64.29,0,0,1-4.89,4.87A38.12,38.12,0,0,1,83,95.25a20.75,20.75,0,0,0-7.56,6.89c-5.07,7.58,1.71,12.22,8.89,17.14,3.79,2.6,7.71,5.29,9.81,8.47,13.2,20,7.87,41.32-1.51,54.62-2.69,3.8-6.6,7.39-10.75,11.19C76.85,198.2,71.6,203,68.6,208.37c-1.29,2.31-1.66,3.88-1.12,4.79.39.67,1.26,1,2.65,1h0c2.48,0,6.41-1,11-2.21,6.38-1.66,14.33-3.74,21.35-3.74a23.09,23.09,0,0,1,9.48,1.76,34.66,34.66,0,0,1,6.82,4.48c3.45,2.68,6.7,5.21,11.3,5.21C130.53,219.65,131,219.62,131.53,219.57ZM112,209.79a22.76,22.76,0,0,0-9.56-1.78c-7,0-15,2.08-21.4,3.74-4.54,1.19-8.47,2.21-10.92,2.21h0c-1.32,0-2.13-.29-2.48-.9-.5-.85-.13-2.35,1.12-4.59,3-5.34,8.22-10.13,13.28-14.77,4.16-3.81,8.08-7.4,10.78-11.22a51.06,51.06,0,0,0,9.39-25.7,46,46,0,0,0-7.88-29.14c-2.12-3.21-6.06-5.91-9.86-8.52-7.1-4.86-13.8-9.46-8.84-16.87a20.58,20.58,0,0,1,7.5-6.83,39.78,39.78,0,0,0,5.77-4.13,66.49,66.49,0,0,0,4.9-4.89c3.81-4.06,6.81-7.28,13.09-7.28a22.78,22.78,0,0,1,3.19.24c15.23,2.16,32.06,5.77,52,17.44,26.24,15.38,44,29.73,51.35,53.76,3.43,11.17,2.16,23.52-3.16,30.72a15.12,15.12,0,0,1-12.55,6.44,24.23,24.23,0,0,1-9.13-2c-6-2.45-9.72-8.08-11.28-17.19-1.37-8-.93-17.55-.54-26,.11-2.38.21-4.63.28-6.81.28-9.43-2.31-17.24-7.5-22.59-4.72-4.86-11.51-7.54-19.13-7.54-10.11,0-20.35,4.53-28.1,12.45-4.73,4.83-7.65,9.81-8.93,15.24a30.76,30.76,0,0,0,.62,15.56c2.9,10.46,9.91,20.86,17.33,31.88,2.59,3.84,5.27,7.82,7.72,11.76,5.68,9.11,4.7,15.52,2.87,19.3a13.65,13.65,0,0,1-10.43,7.6,12,12,0,0,1-1.45.09c-4.53,0-7.76-2.51-11.18-5.17A34.31,34.31,0,0,0,112,209.79Z"/>
    <path class="b" d="M135.75,211.57a7.08,7.08,0,0,0,2.94-5.11c.77-6.34-4.85-15.58-9.89-21.57-6.3-7.47-12.55-15.45-15.61-23.17-.15-.38-.38-1.46-.67-2.82-1-4.58-2.63-12.26-5-12.26a1.3,1.3,0,0,0-.67.2c-1,.59-1.28,1.74-.9,3.53a27.22,27.22,0,0,0,1.7,4.64,12.41,12.41,0,0,1,1.25,3.7,4.63,4.63,0,0,1-1.85,3.72,4.8,4.8,0,0,0-1.68,2.54,5.13,5.13,0,0,0,.91,3.8,5.49,5.49,0,0,1,1,3.46c-.34,2.52-8.32,11.6-15.35,19.62C86.05,198.48,81,204.21,81.11,205.3a.31.31,0,0,0,.09.2,4.33,4.33,0,0,0,2.68.59h0a60.37,60.37,0,0,0,8.33-1,85.07,85.07,0,0,1,12.67-1.39,15,15,0,0,1,7.15,1.36c.92.5,1.94,1.09,3,1.72,4.8,2.79,10.79,6.27,15.85,6.27A8,8,0,0,0,135.75,211.57Zm-23.63-6.68a15.26,15.26,0,0,0-7.24-1.38,85.18,85.18,0,0,0-12.7,1.39,60.2,60.2,0,0,1-8.3,1h0a4.13,4.13,0,0,1-2.55-.55s0,0,0-.06c-.08-1,5.17-7,10.72-13.31,7.06-8,15-17.14,15.4-19.72a5.57,5.57,0,0,0-1-3.59,5,5,0,0,1-.89-3.66,4.61,4.61,0,0,1,1.63-2.44,4.82,4.82,0,0,0,1.92-3.86,12.52,12.52,0,0,0-1.28-3.78,27.91,27.91,0,0,1-1.68-4.6c-.37-1.7-.1-2.79.81-3.33a1.14,1.14,0,0,1,.57-.17c2.22,0,3.91,7.88,4.82,12.11a25.89,25.89,0,0,0,.68,2.85c3.07,7.74,9.33,15.74,15.64,23.23,5,6,10.61,15.14,9.85,21.42a6.94,6.94,0,0,1-2.86,5,7.88,7.88,0,0,1-4.74,1.43c-5,0-11-3.46-15.75-6.24C114.06,206,113,205.39,112.12,204.89Z"/>
    <path class="b" d="M133.55,203.49c.57-5.31-5.11-13.64-8-16.84A165.08,165.08,0,0,1,115,173.3c-2.25-3.09-3.48-4.79-4.29-4.79-.55,0-.85.71-1,2.45-1.41,13.13-9.9,20.23-15,24.48-2.22,1.86-3.68,3.08-3.74,4.1a1,1,0,0,0,.3.79,3,3,0,0,0,2.31.72,29.16,29.16,0,0,0,4.66-.62,42.85,42.85,0,0,1,7.82-.93,14.54,14.54,0,0,1,9.25,2.85C118.8,205.06,124,208,128,208h0a6.14,6.14,0,0,0,3.7-1.1A4.57,4.57,0,0,0,133.55,203.49ZM128,207.76h0c-4,0-9.11-2.87-12.57-5.56a14.66,14.66,0,0,0-9.36-2.89,43.19,43.19,0,0,0-7.86.93,28.74,28.74,0,0,1-4.62.62,2.86,2.86,0,0,1-2.17-.66.84.84,0,0,1-.25-.65c0-.93,1.57-2.2,3.68-4,5.09-4.26,13.61-11.4,15-24.6.17-1.57.43-2.28.84-2.28.71,0,2,1.78,4.13,4.72a165.54,165.54,0,0,0,10.6,13.36c2.82,3.18,8.47,11.44,7.91,16.69a4.4,4.4,0,0,1-1.77,3.22A5.94,5.94,0,0,1,128,207.76Z"/>
    <path class="b" d="M188.61,150.46c-.66,10.08,2.23,17,5.16,20.15a6,6,0,0,0,4.15,2.22h0c1.87,0,3.28-1.47,4-4.15,4.4-17.26-10.59-35.44-12.43-37-.53-.44-.9-.5-1.13-.24-.43.47-.3,2-.06,4.81A88.77,88.77,0,0,1,188.61,150.46Zm-.05-18.76a.18.18,0,0,1,.12,0c.09,0,.26,0,.58.32,1.82,1.5,16.68,19.53,12.32,36.63-.65,2.52-2,3.91-3.66,3.91h0a5.72,5.72,0,0,1-3.91-2.12c-2.89-3.08-5.73-9.93-5.08-19.91a89.4,89.4,0,0,0-.34-14.22C188.38,133.82,188.23,132.07,188.56,131.7Z"/>
    <path class="b" d="M267.21,37.13c-5,0-10.63.95-16.54,2-7.06,1.21-14.37,2.45-22.32,2.45-.59,0-1.17,0-1.72,0l-1.4,0c-1.2,0-2.34-.07-3.44-.07-6.85,0-11.1,1.4-13.9,8.77-1.76,4.66-3.77,9.94-8.58,13.34-1.36,1-2.72,1.79-3.92,2.52-2.79,1.68-5,3-5.07,4.84s1.63,3.72,5.53,6.58c3.74,2.74,6.82,4.08,9.41,4.08.24,0,.47,0,.7,0,3.76-.35,6.29-3.46,9.48-7.4a74.3,74.3,0,0,1,5-5.75,69.26,69.26,0,0,1,29.75-17.65,49.92,49.92,0,0,1,13.73-2c11,0,19.43,4,26.43,8.56V57c-7-4.57-15.46-8.51-26.43-8.51a50.06,50.06,0,0,0-13.79,2,69.44,69.44,0,0,0-29.82,17.7A72.79,72.79,0,0,0,215.29,74c-3.16,3.9-5.67,7-9.35,7.32-.22,0-.45,0-.68,0-2.54,0-5.59-1.33-9.29-4-3.85-2.82-5.53-4.8-5.46-6.41s2.24-3,5-4.69c1.2-.73,2.56-1.55,3.93-2.52,4.86-3.44,6.88-8.75,8.66-13.43,2.75-7.27,6.95-8.64,13.71-8.64,1.1,0,2.23,0,3.43.06l1.41,0,1.72,0c8,0,15.28-1.25,22.35-2.46,5.91-1,11.48-2,16.51-2a28.24,28.24,0,0,1,7.78,1,86.17,86.17,0,0,1,15.39,6.5v-.22A85.67,85.67,0,0,0,275,38.12,28.61,28.61,0,0,0,267.21,37.13Z"/>
    <path class="b" d="M183.62,149.88c-.74,9.78,1.19,17.69,5.44,22.28a10.63,10.63,0,0,0,7.7,3.72h0c3.9,0,7-2.71,8-6.91,2.72-12.26-1.48-23.3-5.48-30.4-4.71-8.34-10.72-14.24-13.62-16.17a5.64,5.64,0,0,0-2.26-1.15.51.51,0,0,0-.39.17c-.37.42-.22,1.62.08,4A111.47,111.47,0,0,1,183.62,149.88Zm-.52-28.33a.3.3,0,0,1,.25-.1,5.68,5.68,0,0,1,2.15,1.11c6.54,4.36,23.92,24.24,19,46.37-.9,4.11-4,6.76-7.76,6.76A10.46,10.46,0,0,1,189.2,172c-4.21-4.55-6.13-12.41-5.38-22.14a111.49,111.49,0,0,0-.59-24.5C183,123.22,182.79,121.91,183.1,121.55Z"/>
    <path class="b" d="M179.92,150.51c-.75,12.17,1.58,21.79,6.55,27.07a12.33,12.33,0,0,0,9,4.18h0c6.38,0,11.78-5.16,13.45-12.84,2.45-11.33.34-22.49-6.28-33.16a70.08,70.08,0,0,0-20.92-21c-2.51-1.63-3.59-2.31-4-1.81s-.12,1.58.32,3.92C179,121.92,181,132.45,179.92,150.51Zm-2-37.44a.27.27,0,0,1,.23-.09c.52,0,1.64.73,3.51,2,16.45,10.67,32.21,30.45,27.12,53.95-1.65,7.59-7,12.69-13.26,12.69a12.13,12.13,0,0,1-8.89-4.12c-4.93-5.25-7.24-14.81-6.5-26.93,1.1-18.09-.89-28.63-1.85-33.69C177.86,114.7,177.61,113.41,177.9,113.07Z"/>
    <path class="b" d="M105.75,110.08c1.83,0,3.13-1.76,4.53-4.4,2.45-4.62,7.55-6.85,10.29-8.05,1.39-.6,1.91-.83,1.84-1.21s-.41-.46-2.31-.59c-5.71-.38-18.52,5.06-20,9.16a2.11,2.11,0,0,0,.74,2.49c2.2,1.82,3.67,2.6,4.91,2.6Zm-5.22-4.94c1.35-3.74,13.25-8.88,19-8.88l.58,0a10.46,10.46,0,0,1,1.81.22,11.77,11.77,0,0,1-1.49.72c-2.79,1.22-8,3.49-10.51,8.25-1.58,3-2.74,4.16-4.13,4.16-1.13,0-2.51-.75-4.63-2.5A1.64,1.64,0,0,1,100.53,105.14Z"/>
    <path class="b" d="M111.36,109.85c4.39-8,12.41-10.79,18.91-12.33.62-.15.68-.47.66-.64-.15-1.31-6.24-3.8-15.32-3.8-1,0-2.07,0-3.11.1-4.15.25-13.93,6-17.45,10.32a4,4,0,0,0-1.23,2.75c.24,1.77,1.83,2.56,3.66,3.48s4.14,2.06,5.21,4.61c.63,1.49,1.45,2.24,2.44,2.24C106.81,116.58,108.91,114.32,111.36,109.85ZM103,114.22c-1.12-2.67-3.37-3.79-5.36-4.78-1.76-.87-3.27-1.63-3.49-3.24a3.82,3.82,0,0,1,1.16-2.5c3.48-4.23,13.13-10,17.22-10.2,1-.07,2.08-.1,3.09-.1,8.93,0,14.88,2.47,15,3.51,0,.17-.25.26-.42.3-6.56,1.55-14.66,4.37-19.11,12.48C107.38,116.43,104.6,118.06,103,114.22Z"/>
    <path class="b" d="M196.15,165.11h0c.34,0,.64-.23.89-.7,1.26-2.35,1.23-10.5-2.1-15.46-.43-.64-1.06-.55-1.53.26-1.25,2.15-1.77,9,1.63,15Q195.58,165.11,196.15,165.11Zm-2.35-15.68c.17-.28.35-.45.48-.45s.23.14.29.23c3.18,4.74,3.25,12.77,2.07,15-.16.3-.33.46-.49.46s-.46-.26-.72-.71C192.16,158.21,192.63,151.45,193.8,149.43Z"/>
    <path class="b" d="M238.07,184.88c.46.67,1.58,1,3.76,1,1.35,0,3-.11,4.85-.23,2.32-.16,5-.33,7.68-.33,8.62,0,14.43,1.83,18.3,5.77,3.6,2.77,5.59,7.29,7.34,11.28,2.14,4.84,4,9,8,9a6.42,6.42,0,0,0,1.35-.15c.32-.06.64-.15,1-.25v-.34a10.35,10.35,0,0,1-1.05.28A6.6,6.6,0,0,1,288,211c-3.85,0-5.66-4.1-7.74-8.84-1.77-4-3.77-8.58-7.42-11.39-3.93-4-9.81-5.86-18.52-5.86-2.73,0-5.37.18-7.7.34-1.87.12-3.49.23-4.83.23-2,0-3.11-.26-3.49-.81a1.29,1.29,0,0,1,0-1.25c4.1-11,7.53-24.83,7.2-29.1-.58-7.48-3.87-14.55-7.05-21.39-3.89-8.36-7.57-16.26-5.23-22.84,3.24-9.15,18.06-25,26.09-26.13a8.53,8.53,0,0,1,1.28-.08c6.26,0,17.27,4.47,29.76,11.87v-.37C277.91,88,266.9,83.58,260.62,83.58a8.93,8.93,0,0,0-1.32.09c-8.12,1.1-23.09,17.12-26.36,26.34-2.38,6.71,1.33,14.67,5.24,23.09,3.17,6.81,6.45,13.85,7,21.27.29,3.74-2.79,17.21-7.19,29A1.61,1.61,0,0,0,238.07,184.88Z"/>
    <path class="b" d="M268.63,286.89c-.37,0-1,0-1.78.09-1.33.08-3.14.2-5,.2-4.48,0-6.82-.74-7-2.19-.23-2.18,5-5.43,8.4-7.58a31.17,31.17,0,0,0,3.09-2.07,65.34,65.34,0,0,0,11.74-13.88A81.79,81.79,0,0,0,284,249.81a22.72,22.72,0,0,1,6.37-8.57V241a22.59,22.59,0,0,0-6.54,8.73A81.91,81.91,0,0,1,278,261.35a65.31,65.31,0,0,1-11.7,13.85,31.55,31.55,0,0,1-3.07,2.05c-3.69,2.3-8.73,5.46-8.5,7.76.17,1.59,2.51,2.36,7.17,2.36,1.81,0,3.63-.11,5-.2.79-.05,1.41-.09,1.77-.09a48,48,0,0,1,18.26,3.3h.52A47.81,47.81,0,0,0,268.63,286.89Z"/>
    <path class="b" d="M144.1,18.81a14.68,14.68,0,0,0,3.06-.39c1.19-.27,2.31-.51,3.33-.65,1.72-.23,3.39-.33,4.88-.42A10.08,10.08,0,0,0,160,16c6-3.51,8.5-10.68,9.3-13.6.2-.71.39-1.36.58-2h-.21c-.18.61-.37,1.24-.55,1.93-.8,2.9-3.28,10-9.22,13.48a9.83,9.83,0,0,1-4.58,1.37c-1.47.09-3.15.18-4.88.42-1,.13-2.15.39-3.34.65a14.26,14.26,0,0,1-3,.39,3.7,3.7,0,0,1-3-1.12c-.91-1.11-1-3.11-.41-6.27l.11-.52A21.13,21.13,0,0,1,145.42.38h-.25a21.38,21.38,0,0,0-4.6,10.29l-.1.52c-.65,3.23-.51,5.27.44,6.43A3.87,3.87,0,0,0,144.1,18.81Z"/>
    <path class="b" d="M267.21,41.58c-4.67,0-10.07.92-15.79,1.89C244.17,44.71,236.68,46,228.35,46l-1.82,0-1.42,0c-1.17,0-2.28-.06-3.32-.06-9,0-9.47,5-9.94,10.22-.26,2.88-.53,5.86-2.12,8.39a17.51,17.51,0,0,1-3.7,3.26c-3.44,2.58-7.33,5.5-5.46,8.24a3.48,3.48,0,0,0,2.88,1.78,4.2,4.2,0,0,0,1.94-.54c3.05-1.57,6.31-6.22,8.92-10,1.49-2.12,2.77-4,3.47-4.37a4.31,4.31,0,0,1,2.26-.5l.83,0,.85,0a4.38,4.38,0,0,0,3.19-1,5.57,5.57,0,0,0,1.52-3.94,6,6,0,0,1,1.1-3.43c2.51-3,11.32-5.1,17.15-6.49,1.72-.41,3.2-.76,4.31-1.08a54.56,54.56,0,0,1,15-2.19c10.78,0,19.39,3.53,26.43,7.76v-.38A50.42,50.42,0,0,0,264,43.93a54.82,54.82,0,0,0-15,2.2c-1.1.32-2.58.67-4.29,1.08-6.22,1.48-14.75,3.51-17.33,6.59a6.3,6.3,0,0,0-1.17,3.6c-.14,1.4-.29,2.71-1.41,3.74a4.12,4.12,0,0,1-3,1l-.84,0-.84,0a4.56,4.56,0,0,0-2.42.54c-.76.45-2,2.22-3.57,4.46-2.46,3.52-5.83,8.33-8.8,9.86a3,3,0,0,1-4.41-1.13c-1.7-2.48,2.06-5.31,5.38-7.8A17.06,17.06,0,0,0,210,64.65c1.63-2.6,1.9-5.62,2.17-8.54.48-5.32.89-9.92,9.62-9.92,1,0,2.14,0,3.31.06l1.42,0,1.83,0c8.36,0,15.86-1.28,23.12-2.52,5.71-1,11.1-1.89,15.74-1.89a23.45,23.45,0,0,1,6.52.81c5.27,1.5,10.83,4.18,16.65,7.26v-.36a89.26,89.26,0,0,0-16.56-7.21A24,24,0,0,0,267.21,41.58Z"/>
    <path class="b" d="M145.34,12c.5,1,1.56,1.45,3.18,1.45a9.71,9.71,0,0,0,1.37-.1c1.89-.25,3.65-.36,5.22-.45a5.6,5.6,0,0,0,1.32-.21,5.44,5.44,0,0,0,1.34-.58c3.49-2,7.61-8,7.74-11.74h-.32c-.14,3.56-4.24,9.51-7.58,11.46a5.25,5.25,0,0,1-1.27.55,5.62,5.62,0,0,1-1.26.2c-1.56.09-3.33.2-5.23.45-2.23.3-3.67-.1-4.22-1.18-.75-1.46.14-4.27,2.33-7.34A13.69,13.69,0,0,1,152.88.38h-.67a13.74,13.74,0,0,0-4.51,4C145.4,7.55,144.52,10.42,145.34,12Z"/>
    <path class="b" d="M247.8,176.49c1.2,1.72,3.73,1.92,7.24,2.19l1.17.09c1.11.09,2.27.13,3.5.17,5.69.2,12.15.42,18,5.73l.07.06c3.24,2.83,5.16,7.82,6.86,12.22s3.19,8.26,5.53,8.26l.23,0V205l-.23,0c-2.21,0-3.67-3.77-5.35-8.14s-3.64-9.43-6.91-12.29l-.07-.07c-5.88-5.36-12.38-5.58-18.11-5.77-1.22-.05-2.38-.08-3.48-.17l-1.18-.1c-3.45-.26-5.94-.45-7.09-2.1s-.93-4.48.5-9.47A36,36,0,0,0,250,154c-.64-8.28-4.1-15.72-7.45-22.92-3.5-7.51-6.8-14.6-5.07-19.47,2.87-8.12,16.76-22.43,22.5-23.22a4.65,4.65,0,0,1,.68,0c4.81,0,15.67,4,29.76,12.63v-.23c-14.08-8.6-24.94-12.59-29.76-12.59a4.88,4.88,0,0,0-.7,0c-5.79.79-19.77,15.19-22.66,23.34-1.76,4.95,1.56,12.08,5.07,19.63,3.34,7.18,6.8,14.6,7.44,22.85a36.2,36.2,0,0,1-1.49,12.83C246.81,172,246.67,174.86,247.8,176.49Z"/>
    <path class="b" d="M130.3,234.77c9.59-1.09,21-12.5,24.08-21.21,5.32-15.13-4.14-27.31-13.28-39.08-8.82-11.37-17.16-22.11-13.11-35.19,3.53-11.39,14.94-17.53,23.88-17.53a15.35,15.35,0,0,1,11.74,4.81c3.26,3.69,4.55,9.29,3.71,16.19-2.88,23.74-3.74,49.7,22.72,57.36a32.5,32.5,0,0,0,8.91,1.32c11.14,0,18.25-6.38,22.26-11.74,7.67-10.26,10.34-25.62,6.63-38.21-3.15-10.67-9.34-21-18.93-31.64-14.25-15.79-33.65-29.37-59.33-41.5l-1.11-.53c-10.8-5.11-22-10.39-33.73-13.3l-2.29-.6c-3.63-1-8.15-2.17-12-2.17a11.82,11.82,0,0,0-4,.6,8,8,0,0,0-3.53,2.85,9.5,9.5,0,0,1-2.39,2.29,24.81,24.81,0,0,1-3.27,1.41c-2.17.84-4.42,1.71-5.13,2.55A2.86,2.86,0,0,0,81.47,75a3,3,0,0,1,.19,2.26L81.4,78c-2,5.75-2,5.75-6.45,7.05-.87.25-2,.56-3.23,1A12.83,12.83,0,0,0,65,90.74a12.78,12.78,0,0,1-4.21,3.66h-.18c-2.33,0-19.92,1.16-21.27,5.49-.36,1.16.43,2.43,2.35,3.76a9,9,0,0,0,5.4,1.86,15.37,15.37,0,0,0,1.58-.1c.43,0,.83-.08,1.21-.08,1.41,0,2.84.41,4.81,5.25.48,1.19.85,2.16,1.16,3,1.52,4,1.57,4,5.44,5.69,1,.4,2.15.91,3.66,1.61,5,2.3,6,4.9,7.29,8.2A29,29,0,0,0,75.18,135a42.26,42.26,0,0,0,5.18,6.14c3.15,3.28,6.13,6.38,7.07,11.56,1.64,9-3.22,17.52-8.72,25.43-2.67,3.84-8.15,8.31-14,13-9.86,8-21,17.13-21.07,25.56,0,4.82,1.21,8.51,3.67,11,2.68,2.7,6.76,4,12.46,4,8.26,0,18.42-2.79,27.39-5.25,7.06-1.94,13.15-3.61,17-3.61a7.83,7.83,0,0,1,2.22.27c3.75,1.11,6.73,3.5,9.61,5.8,3.83,3.06,7.44,6,12.61,6A14.89,14.89,0,0,0,130.3,234.77Zm-23.71-12.1a8.28,8.28,0,0,0-2.34-.28c-4,0-10.08,1.68-17.17,3.62-8.94,2.45-19.07,5.23-27.27,5.23-5.58,0-9.55-1.26-12.14-3.87-2.37-2.38-3.56-6-3.54-10.65,0-8.22,11.12-17.26,20.91-25.22,5.83-4.75,11.33-9.24,14-13.13,5.56-8,10.47-16.65,8.8-25.77-1-5.31-4-8.46-7.2-11.79a42.61,42.61,0,0,1-5.13-6.08,29.38,29.38,0,0,1-2.87-5.85c-1.33-3.4-2.38-6.08-7.52-8.45-1.52-.7-2.72-1.21-3.68-1.62-3.72-1.59-3.72-1.59-5.19-5.43-.31-.81-.68-1.79-1.16-3-1.88-4.62-3.34-5.53-5.23-5.53a10.82,10.82,0,0,0-1.25.09c-.49,0-1,.09-1.54.09A8.52,8.52,0,0,1,42,103.27c-1.74-1.21-2.48-2.3-2.18-3.26,1.18-3.76,17.58-5.16,20.84-5.16h.16l.05-.21.1.2A13.24,13.24,0,0,0,65.36,91a12.34,12.34,0,0,1,6.49-4.62c1.28-.41,2.36-.72,3.22-1,4.69-1.35,4.75-1.42,6.76-7.33l.25-.75a3.38,3.38,0,0,0-.19-2.56,2.45,2.45,0,0,1,.55-3.06c.64-.75,2.93-1.63,5-2.42a25,25,0,0,0,3.34-1.44,10,10,0,0,0,2.5-2.39,7.57,7.57,0,0,1,3.33-2.72,11.71,11.71,0,0,1,3.85-.57c3.82,0,8.31,1.2,11.92,2.16l2.3.59c11.71,2.91,22.86,8.18,33.64,13.28l1.11.52c25.62,12.11,45,25.65,59.19,41.4,9.54,10.57,15.7,20.86,18.83,31.47,3.67,12.46,1,27.66-6.57,37.81C216.9,194.7,209.9,201,199,201a31.53,31.53,0,0,1-8.78-1.31c-26.12-7.55-25.26-33.31-22.4-56.86.85-7-.47-12.76-3.83-16.55-2.83-3.2-7.12-5-12.07-5-9.1,0-20.71,6.25-24.31,17.85-4.12,13.3,4.68,24.63,13.18,35.59,9.07,11.69,18.45,23.77,13.22,38.66-3,8.59-14.28,19.84-23.71,20.91a13.86,13.86,0,0,1-1.56.09c-5,0-8.56-2.84-12.32-5.85C113.45,226.23,110.44,223.82,106.59,222.67Z"/>
    <path class="b" d="M141.39,23.83a32.3,32.3,0,0,0,6.75-1c1.09-.24,2.12-.47,3-.58,1.56-.21,3.07-.3,4.54-.38,3-.18,5.92-.34,8.21-1.64a9.48,9.48,0,0,0,4.1-5.28A92.69,92.69,0,0,1,174.54.38h-.23a93.46,93.46,0,0,0-6.55,14.49,9.29,9.29,0,0,1-4,5.18c-2.24,1.28-5.1,1.44-8.13,1.61-1.46.09-3,.18-4.55.39-.83.11-1.87.34-3,.58a32,32,0,0,1-6.71,1c-2.13,0-3.64-.52-4.61-1.58-2.37-2.6-1.19-8.53-.55-11.72l.1-.5A28.35,28.35,0,0,1,139.86.38h-.23a28.48,28.48,0,0,0-3.49,9.42l-.1.5c-.64,3.22-1.84,9.22.59,11.89C137.65,23.29,139.2,23.83,141.39,23.83Z"/>
    <path class="b" d="M191.28.38h-.44a24.53,24.53,0,0,0-2,2.34c-7.11,9.66-10.26,18.58-9.64,27.26.24,3.38-.17,5.62-1.26,6.84A3.85,3.85,0,0,1,174.88,38a24.89,24.89,0,0,1-6.63-1.47,36.49,36.49,0,0,0-6.68-1.63,45.17,45.17,0,0,0-5-.27,96.65,96.65,0,0,0-16.14,1.79l-2.78.46-.07,0a39.88,39.88,0,0,1-6.24.67c-4,0-6.59-1.34-7.87-4.08-2.66-5.73-1.91-12.63-1.26-18.72.09-.82.18-1.63.26-2.43A56.42,56.42,0,0,1,124.81.38h-.35a57.61,57.61,0,0,0-2.31,11.9c-.08.8-.17,1.61-.26,2.43-.66,6.13-1.41,13.07,1.29,18.88,1.33,2.87,4,4.27,8.16,4.27a39.21,39.21,0,0,0,6.29-.68h.07l2.78-.46a96.27,96.27,0,0,1,16.09-1.78,44.48,44.48,0,0,1,5,.26,37,37,0,0,1,6.63,1.62,25.32,25.32,0,0,0,6.72,1.49A4.17,4.17,0,0,0,178.17,37c1.15-1.29,1.59-3.6,1.34-7.07-.61-8.61,2.52-17.46,9.58-27A25.66,25.66,0,0,1,191.28.38Z"/>
    <path class="b" d="M189.18,49.23C187,50.77,184,51.52,180,51.52c-4.66,0-9.88-1.05-14.48-2-2.71-.54-5.27-1-7.36-1.28-1-.1-3.78-.36-7.17-.36-6.27,0-14.33.85-17,4.91-1.18,1.76-1.23,4-.15,6.58.51,1.22,1.83,1.88,3.1,2.53a7.3,7.3,0,0,1,2.62,1.82A12.15,12.15,0,0,1,141,67.24c.52,1.68,1.06,3.41,2.28,4.43a7.65,7.65,0,0,0,5.22,1.87,22.33,22.33,0,0,0,4.29-.57,22.62,22.62,0,0,1,4.22-.56,7.64,7.64,0,0,1,3.55.81A11.17,11.17,0,0,1,165.28,78c1.36,2.24,2.64,4.35,6.87,5.34,8.85,2.08,11.28,4.24,17.14,9.47L191.75,95a36.71,36.71,0,0,1,5.17,6,40,40,0,0,0,4.52,5.43,20,20,0,0,0,6.28,4c2.67,1.22,5.19,2.37,7.48,6.29l.35.62c2.88,5,5.79,9.59,7.58,9.59a1,1,0,0,0,.74-.34c.64-.71.82-2.58.53-5.73-.16-1.85-1.5-3.5-2.79-5.1s-2.71-3.35-2.63-5.15c.09-2.15,1.4-3.21,2.78-4.34a8.63,8.63,0,0,0,2.66-3,27.32,27.32,0,0,0,2.17-8.74c.48-3.81.93-7.41,4.34-11.48a49.5,49.5,0,0,1,24.12-15.51,32.12,32.12,0,0,1,8.9-1.34c9.65,0,16.58,5.25,23.91,10.81l2.52,1.89v-.56c-.76-.56-1.51-1.13-2.25-1.69-7.39-5.6-14.37-10.9-24.18-10.9a32.56,32.56,0,0,0-9,1.36,49.85,49.85,0,0,0-24.34,15.65c-3.5,4.17-4,7.84-4.45,11.72a27,27,0,0,1-2.13,8.6,8.22,8.22,0,0,1-2.54,2.82c-1.39,1.14-2.84,2.31-2.94,4.67-.09,2,1.34,3.74,2.73,5.45,1.25,1.55,2.54,3.15,2.69,4.86.34,3.71,0,5-.41,5.39a.55.55,0,0,1-.41.18c-1.77,0-5.57-6.55-7.19-9.35l-.35-.62c-2.36-4.06-5-5.23-7.69-6.48a19.77,19.77,0,0,1-6.15-3.88,41.31,41.31,0,0,1-4.47-5.37A35.81,35.81,0,0,0,192,94.69l-2.45-2.18c-5.92-5.28-8.37-7.47-17.33-9.56-4-1-5.29-3-6.59-5.15a11.62,11.62,0,0,0-4.86-5,8,8,0,0,0-3.76-.86,22.64,22.64,0,0,0-4.31.57,22.41,22.41,0,0,1-4.2.56,7.26,7.26,0,0,1-4.93-1.76c-1.12-.94-1.64-2.61-2.14-4.23a12.32,12.32,0,0,0-1.54-3.62,7.71,7.71,0,0,0-2.78-2c-1.25-.63-2.43-1.23-2.88-2.3-1-2.45-1-4.53.1-6.15,2.6-3.89,10.5-4.71,16.66-4.71a69.68,69.68,0,0,1,7.12.36c2.07.22,4.62.74,7.32,1.28,4.62.92,9.86,2,14.57,2,4.06,0,7.14-.78,9.4-2.38,5.64-4,4-10,2.46-15.81-1.67-6.21-3.4-12.64,3.55-16.83a6.41,6.41,0,0,1,3.31-.76c4.15,0,10,2.27,15.66,4.47,4.93,1.91,9.59,3.72,12.61,3.79h1.32c6.51,0,13.09-1.12,19.45-2.2s12.92-2.21,19.41-2.21a45.08,45.08,0,0,1,12.52,1.65,82,82,0,0,1,10.65,3.94v-.5a82.39,82.39,0,0,0-10.53-3.87,45.51,45.51,0,0,0-12.64-1.67c-6.53,0-13.12,1.13-19.49,2.21S234.82,24,228.35,24c-.45,0-.87,0-1.31,0-2.94-.07-7.56-1.86-12.45-3.76-5.7-2.21-11.59-4.5-15.83-4.5a6.72,6.72,0,0,0-3.54.82c-7.24,4.37-5.47,11-3.75,17.33C193.06,39.82,194.57,45.42,189.18,49.23Z"/>
    <path class="b" d="M134.37,32.77a32.33,32.33,0,0,0,5.35-.57,111,111,0,0,1,18.79-1.48c1.71,0,3.46,0,5.36.09l1.77,0c3.15,0,5-.38,6.34-1.32,1.62-1.12,2.58-3.08,3.22-6.56A53.44,53.44,0,0,1,185.27.38H185a53.51,53.51,0,0,0-10,22.54c-.63,3.43-1.57,5.35-3.14,6.44-1.32.91-3.13,1.29-6.23,1.29l-1.76,0c-1.9-.06-3.66-.09-5.37-.09A111.26,111.26,0,0,0,139.69,32a32.92,32.92,0,0,1-5.32.56c-3.88,0-6.67-1.3-7.64-7.65a51.05,51.05,0,0,1,.75-16.83A41.89,41.89,0,0,1,129.75.38h-.2a42,42,0,0,0-2.26,7.67,51.18,51.18,0,0,0-.75,16.9C127.39,30.5,129.66,32.77,134.37,32.77Z"/>
    <path class="b" d="M137,27.92h0a11.35,11.35,0,0,0,1.95-.17,116,116,0,0,1,16.29-1.5c1.33,0,2.6,0,3.82,0,.82,0,1.59,0,2.34,0,2.32,0,4.72-.18,6.57-1.48a9.35,9.35,0,0,0,3.35-5.46,66,66,0,0,1,8.45-19h-.23a66.15,66.15,0,0,0-8.41,19,9.13,9.13,0,0,1-3.27,5.35c-1.81,1.27-4.17,1.45-6.46,1.45-.75,0-1.52,0-2.33,0-1.22,0-2.5-.07-3.83,0a116.6,116.6,0,0,0-16.33,1.51c-2.94.49-5.13-.1-6.5-1.76C129.33,22,131,13.53,131.91,9A34.71,34.71,0,0,1,134.72.38h-.22a34.87,34.87,0,0,0-2.78,8.55c-.91,4.59-2.6,13.14.57,17A5.8,5.8,0,0,0,137,27.92Z"/>
  </g>
</svg>
