<?xml version="1.0" encoding="utf-8"?>
<!-- Generator: Adobe Illustrator 24.0.2, SVG Export Plug-In . SVG Version: 6.00 Build 0)  -->
<svg version="1.1" id="Слой_1" xmlns="http://www.w3.org/2000/svg" xmlns:xlink="http://www.w3.org/1999/xlink" x="0px" y="0px"
	 viewBox="0 0 143 156.7" style="enable-background:new 0 0 143 156.7;" xml:space="preserve">
<style type="text/css">
	.st0{fill:#FFFFFF;}
	.st1{fill:#62C7CA;}
	.st2{fill:#1E7E79;}
	.st3{fill:#1B7F7A;}
	.st4{fill:#1D7F7B;}
	.st5{fill:#197E79;}
	.st6{fill:#1A7E7A;}
	.st7{fill:#1F807C;}
</style>
<title>Ресурс 3</title>
<g>
	<path class="st0" d="M142.5,44.3c-1.2-4.1-3.6-7.7-6.9-10.3c-2.2-1.7-4.5-3.1-6.9-4.4C116.4,22.8,81,3.6,75.5,1.2
		c-1.1-0.4-2.2-0.8-3.3-1.2h-1.4c-1.4,0.6-2.9,1-4.3,1.7c-5.8,2.8-11.6,5.6-17.2,8.6c-12.5,6.8-25,13.9-37.5,20.8
		c-3.4,1.8-6.4,4.4-8.6,7.5c-1.7,2.3-2.7,5-3,7.9c0,0.1,0,0.2-0.1,0.3v48c0.2,0.9,0.4,16.7,0.6,17.5c1.2,3.4,3.3,6.4,6,8.7
		c1.7,1.6,30.1,17.9,42.4,24.8c6,3.4,12,6.6,18.2,9.4c1.3,0.6,2.6,1,3.9,1.5h0.7c7.6-2.6,14.4-6.7,21.4-10.5
		c13.8-7.5,27.3-15.4,40.7-23.5c4.4-2.5,7.5-6.8,8.7-11.7c0.1-0.4,0.2-0.9,0.3-1.3V46.8C142.8,46,142.7,45.1,142.5,44.3z
		 M135.3,106.4c-0.1,0.4-0.1,0.8-0.3,1.2c-1.1,4.4-3.9,8.2-7.8,10.4c-12,7.2-24.1,14.3-36.3,21c-6.2,3.4-12.3,7-19.1,9.4h-0.6
		c-1.2-0.4-2.3-0.8-3.5-1.3c-5.6-2.5-10.9-5.4-16.2-8.4c-10.9-6.2-21.8-12.5-32.6-18.8c-1.8-0.9-3.6-2.1-5.2-3.4
		c-2.5-2.1-4.3-4.8-5.4-7.8c-0.2-0.8-0.4-1.5-0.6-2.3V50.3c0-0.1,0.1-0.2,0.1-0.2c0.3-2.5,1.2-4.9,2.7-7c2-2.8,4.6-5.1,7.7-6.7
		c11.2-6.2,22.3-12.5,33.5-18.6c5-2.8,10.2-5.2,15.4-7.7c1.2-0.6,2.5-1,3.8-1.5h1.2c1,0.4,2,0.7,2.9,1.1c4.9,2.1,9.8,4.5,14.5,7.1
		c11,6,22,12.1,33,18.2c2.2,1.1,4.2,2.4,6.2,3.9c3,2.3,5.1,5.5,6.1,9.1c0.2,0.7,0.3,1.5,0.5,2.3L135.3,106.4z"/>
	<rect x="27.8" y="41.2" class="st0" width="86.9" height="74.3"/>
	<path class="st1" d="M128.4,78.3V51.9c0-1.1-0.2-2.1-0.6-3.1c-1.2-2.6-3.2-4.7-5.7-6.1c-4.9-2.8-9.8-5.6-14.7-8.3
		c-9.6-5.4-19.2-10.7-29-15.6c-2.1-1-4.3-2-6.5-3c-0.3-0.1-0.6-0.1-0.8,0c-1.1,0.5-2.3,0.9-3.3,1.5c-5.2,2.6-10.5,5.2-15.6,8
		C42,30.8,32,36.5,22,42.1c-1.9,1-3.6,2.2-5,3.8c-1.5,1.6-2.4,3.7-2.4,5.9c0,17.7,0,35.5,0,53.2c0,0.7,0.1,1.3,0.4,1.9
		c1,2.3,2.7,4.3,4.9,5.6c10.5,6,20.9,12.1,31.4,18.1c5.9,3.4,11.9,6.6,18,9.6c2.2,1.1,2.2,1.1,4.4,0c4.3-2.2,8.5-4.3,12.7-6.6
		c12.3-6.7,24.4-13.8,36.4-20.9c1.2-0.7,2.3-1.6,3.2-2.7c1.6-1.6,2.4-3.8,2.4-6C128.4,95.4,128.4,86.8,128.4,78.3z M112.4,108.1
		c0.1,3-2.2,5.5-5.2,5.6c-0.1,0-0.2,0-0.3,0H35.8c-2.6,0.1-4.8-1.7-5.4-4.2c-0.1-0.5-0.1-0.9-0.1-1.4c0-6.7,0-13.4,0-20.1
		c-0.1-3,2.3-5.5,5.2-5.6c0.1,0,0.2,0,0.3,0h71c3-0.1,5.5,2.2,5.6,5.2c0,0.1,0,0.3,0,0.4L112.4,108.1z M112.4,70.1
		c0.1,3-2.3,5.5-5.2,5.5c-0.1,0-0.2,0-0.3,0H35.8c-3,0.1-5.4-2.3-5.5-5.3c0-0.1,0-0.1,0-0.2V50c-0.1-3,2.3-5.5,5.2-5.5
		c0.1,0,0.2,0,0.3,0h71c3-0.2,5.5,2.1,5.7,5.1c0,0.2,0,0.4,0,0.6L112.4,70.1z"/>
	<path class="st2" d="M134.8,48.1c-1-3.6-3.2-6.8-6.1-9.1c-1.9-1.5-4-2.8-6.2-3.9c-11-6.1-22-12.2-33-18.2c-4.7-2.6-9.5-5-14.5-7.1
		c-1-0.4-1.9-0.7-2.9-1.1h-1.2c-1.3,0.5-2.6,0.9-3.8,1.5c-5.2,2.5-10.4,4.9-15.4,7.7c-11.2,6.1-22.3,12.4-33.5,18.6
		c-3,1.6-5.7,3.9-7.7,6.7c-1.5,2.1-2.4,4.5-2.7,7c0,0.1-0.1,0.2-0.1,0.2v56.1c0.1,0.8,0.3,1.5,0.6,2.3c1.1,3,2.9,5.7,5.4,7.8
		c1.6,1.3,3.3,2.4,5.2,3.4c10.9,6.3,21.7,12.6,32.6,18.7c5.3,3,10.7,5.9,16.2,8.4c1.1,0.5,2.3,0.9,3.5,1.3h0.6
		c6.8-2.3,12.9-6,19.1-9.4c12.3-6.7,24.4-13.7,36.3-21c3.9-2.2,6.7-6,7.8-10.3c0.1-0.4,0.1-0.8,0.3-1.2V50.3
		C135.1,49.6,135,48.8,134.8,48.1z M126.1,110c-0.9,1-2,1.9-3.2,2.7c-12.1,7.1-24.2,14.2-36.4,20.9c-4.2,2.3-8.5,4.4-12.7,6.6
		c-2.2,1.1-2.2,1.1-4.4,0c-6.2-2.9-12.1-6.2-18-9.6c-10.5-6-20.9-12.1-31.4-18.1c-2.2-1.3-4-3.2-4.9-5.6c-0.2-0.6-0.4-1.3-0.4-1.9
		c0-17.7,0-35.5,0-53.2c0-2.2,0.9-4.3,2.4-5.9c1.4-1.6,3.1-2.8,5-3.8c10-5.6,20-11.3,30.2-16.8c5.1-2.8,10.4-5.4,15.6-8
		c1.1-0.5,2.2-1,3.3-1.5c0.3-0.1,0.6-0.1,0.8,0c2.2,1,4.4,1.9,6.5,3c9.8,4.9,19.5,10.2,29,15.6c4.9,2.7,9.8,5.5,14.7,8.3
		c2.5,1.3,4.5,3.5,5.7,6.1c0.4,1,0.6,2,0.6,3.1v26.4c0,8.5-0.1,17.1,0,25.6C128.4,106.2,127.6,108.4,126.1,110z"/>
	<path class="st3" d="M62,104.7c-1.4-0.1-2.9-0.5-4.1-1.3c-0.6-0.3-0.9-1.1-0.6-1.7c0,0,0-0.1,0.1-0.1c0.4-0.6,1.2-0.8,1.8-0.4
		c0,0,0.1,0,0.1,0.1c0.9,0.6,1.9,0.9,3,0.9c0.2,0,0.4,0,0.6-0.1c0.2-0.1,0.4-0.3,0.5-0.6c0-0.3-0.1-0.5-0.3-0.7
		c-0.4-0.2-0.9-0.4-1.4-0.6c-0.7-0.2-1.3-0.4-2-0.7c-1.2-0.4-2-1.6-1.9-2.9c-0.1-1.3,0.7-2.6,1.9-3.1c1.2-0.5,2.5-0.6,3.8-0.3
		c0.6,0.2,1.2,0.4,1.8,0.7c0.7,0.3,0.9,1,0.7,1.7c0,0,0,0,0,0.1c-0.3,0.6-1.1,0.9-1.8,0.6c-0.7-0.3-1.4-0.5-2.1-0.7
		c-0.1,0-0.2,0-0.3,0c-0.5,0-0.9,0.1-1.1,0.6s0.3,0.8,0.7,1c0.7,0.3,1.4,0.5,2.2,0.8c0.3,0.1,0.6,0.3,0.9,0.4c1.2,0.5,1.9,1.7,1.8,3
		c0,1.4-0.9,2.6-2.2,3C63.3,104.5,62.7,104.6,62,104.7z"/>
	<path class="st3" d="M72.1,104.7c-1.5-0.1-2.9-0.5-4.1-1.3c-0.6-0.3-0.9-1.1-0.6-1.7c0.3-0.6,1.1-0.9,1.7-0.6
		c0.1,0,0.1,0.1,0.2,0.1c0.9,0.6,1.9,0.9,3,0.9c0.2,0,0.5,0,0.7-0.1c0.4-0.1,0.6-0.5,0.5-0.8c-0.1-0.2-0.2-0.3-0.3-0.4
		c-0.3-0.2-0.7-0.4-1.1-0.5c-0.7-0.3-1.5-0.4-2.2-0.8c-1.2-0.4-2-1.6-2-2.9c-0.1-1.4,0.7-2.6,2-3.2c1.5-0.6,3.2-0.6,4.7,0.1
		c0.3,0.1,0.6,0.2,0.9,0.4c0.6,0.3,0.9,1.1,0.6,1.7s-1.1,0.9-1.7,0.6l0,0c-0.5-0.2-1-0.4-1.6-0.6c-0.3-0.1-0.5-0.1-0.8-0.1
		c-0.6,0-1.1,0.2-1.2,0.6c-0.1,0.6,0.4,0.8,0.8,1s1.1,0.4,1.6,0.6s0.9,0.3,1.3,0.5c1.3,0.5,2,1.7,1.9,3.1c-0.1,1.4-1,2.6-2.4,3
		C73.4,104.5,72.8,104.6,72.1,104.7z"/>
	<path class="st3" d="M51.6,93c1.2,0,2.4,0.3,3.4,1c0.7,0.4,1,1.2,0.7,2c-0.4,0.7-1.2,1-2,0.7c-0.1-0.1-0.3-0.2-0.4-0.3
		c-1-0.8-2.3-0.8-3.3-0.1c-1.1,1-1.4,2.5-0.9,3.8c0.4,1.2,1.6,1.9,2.8,1.8c0.7-0.1,1.3-0.3,1.8-0.8c0.6-0.5,1.4-0.4,1.9,0.2
		c0.2,0.2,0.3,0.5,0.3,0.8c0,0.5-0.2,1-0.5,1.3c-2.5,2.1-6.2,1.7-8.3-0.8c-0.7-0.8-1.1-1.7-1.3-2.7c-0.5-2.9,1.2-5.7,4-6.5
		C50.4,93.2,51,93.1,51.6,93z"/>
	<path class="st3" d="M88.3,98.4c0,0.1,0,0.1,0.1,0.1c1.4,0.5,2.2,1.8,1.9,3.3c0,0.4,0,0.9,0,1.3c0,0.7,0.5,1.4,1.2,1.7
		c0.3,0.1,0.5,0.2,0.8,0.3c0.5,0.3,0.8,0.8,0.6,1.4c-0.1,0.5-0.6,0.8-1.2,0.8c-1.1-0.1-2.2-0.6-3.1-1.2c-0.7-0.5-1.1-1.4-1.2-2.3
		c0-0.7,0-1.5,0-2.2c-0.1-1.3-0.5-1.7-1.7-1.8c-0.7,0-1.2-0.6-1.2-1.3c0-0.1,0-0.3,0.1-0.4c0.1-0.4,0.5-0.7,0.9-0.8
		c0.2,0,0.3-0.1,0.5-0.1c0.8,0,1.5-0.7,1.4-1.5c0-0.6,0-1.2,0-1.7c-0.2-1.6,0.7-3.1,2.3-3.7c0.6-0.2,1.1-0.4,1.7-0.6
		c0.6-0.2,1.2,0.1,1.4,0.7c0,0,0,0,0,0.1c0.2,0.6-0.1,1.2-0.7,1.4c0,0,0,0,0,0L91.6,92c-1.1,0.3-1.7,1.3-1.4,2.4c0,0.5,0,1,0,1.5
		c0,1-0.6,1.8-1.5,2.2L88.3,98.4z"/>
	<path class="st3" d="M99,98.4c-1.7-0.6-2.1-1.8-2-3.4c0-0.1,0-0.3,0-0.4c0.1-1.6-0.2-2.1-1.7-2.7c-0.6-0.1-1-0.8-0.9-1.4
		c0,0,0-0.1,0-0.1c0.2-0.6,0.8-0.9,1.4-0.7c0,0,0.1,0,0.1,0c0.8,0.2,1.6,0.5,2.4,0.9c1,0.5,1.6,1.5,1.7,2.6c0,0.7,0,1.4,0,2.1
		c0.1,1.3,0.4,1.7,1.7,1.9c1,0.2,1.4,0.8,1.2,1.6c-0.1,0.5-0.6,0.8-1.1,0.9c-1.4,0.1-1.8,0.8-1.8,2.3c0,0.5,0,1,0,1.5
		c0,1.3-0.8,2.5-2,3c-0.7,0.3-1.4,0.5-2.1,0.7c-0.6,0.2-1.2-0.1-1.3-0.7c0,0,0,0,0,0c-0.2-0.6,0.1-1.2,0.7-1.4c0,0,0,0,0,0l0.4-0.2
		c1-0.3,1.6-1.3,1.4-2.3c0-0.5-0.1-0.9-0.1-1.4c0-1.1,0.6-2,1.6-2.4L99,98.4L99,98.4z"/>
	<path class="st4" d="M44.1,102.8c0,1-0.8,1.8-1.8,1.8c-1,0-1.8-0.8-1.8-1.8c0-1,0.8-1.8,1.8-1.8C43.3,100.9,44.1,101.7,44.1,102.8z
		"/>
	<path class="st3" d="M73.9,57.9c1.2-1.8,3.6-2.2,5.4-1c0.4,0.3,0.7,0.6,1,1c0.1-0.1,0.3-0.2,0.4-0.3c1.2-1.2,2.9-1.7,4.5-1.2
		c1.4,0.3,2.4,1.6,2.4,3c0.1,2.3,0.1,4.6,0.1,6.9c0,0.8-0.6,1.5-1.5,1.5c-0.1,0-0.2,0-0.2,0c-0.9,0-1.5-0.8-1.5-1.6c0,0,0,0,0,0
		c0-1.6,0-3.1,0-4.7c0-0.3,0-0.6-0.1-0.9c-0.1-0.8-0.9-1.5-1.7-1.4c-0.9-0.1-1.6,0.6-1.8,1.4c-0.1,0.3-0.1,0.6-0.1,0.9
		c0,1.6,0,3.1,0,4.7c0,0.9-0.7,1.6-1.6,1.6c-0.7,0-1.3-0.4-1.5-1c-0.1-0.3-0.1-0.7-0.1-1c0-1.4,0-2.9,0-4.3c0-0.3,0-0.5,0-0.8
		c-0.1-0.9-0.8-1.5-1.7-1.5c-0.9-0.1-1.8,0.5-1.9,1.4c-0.1,0.4-0.1,0.7-0.1,1.1c0,1.5,0,3,0,4.5c0,0.9-0.7,1.6-1.6,1.6
		s-1.6-0.7-1.6-1.6v-7.9c-0.1-0.9,0.5-1.7,1.3-1.8c0,0,0.1,0,0.1,0C73.1,56.2,73.7,56.8,73.9,57.9z"/>
	<path class="st5" d="M52.5,57.9c0.1-0.1,0.2-0.3,0.3-0.4c1-1.1,2.6-1.6,4-1.1c1.6,0.4,2.7,1.9,2.6,3.5c0.1,2.1,0,4.3,0,6.4
		c-0.1,0.9-0.8,1.5-1.7,1.4c-0.8-0.1-1.4-0.7-1.4-1.4c0-1.5,0-3.1,0-4.6c0-0.3,0-0.6-0.1-0.9c-0.1-0.9-0.9-1.7-1.8-1.6
		c-1,0-1.8,0.7-1.9,1.7c0,0.2-0.1,0.5-0.1,0.7c0,1.5,0,3,0,4.6c0.1,0.9-0.5,1.6-1.4,1.7c-0.1,0-0.1,0-0.2,0c-0.9,0-1.6-0.7-1.6-1.5
		c0-0.1,0-0.2,0-0.2c0-4,0-8,0-12c-0.1-0.9,0.6-1.6,1.5-1.7s1.6,0.6,1.7,1.5c0,0.1,0,0.2,0,0.3c0,1.1,0,2.2,0,3.3v0.5L52.5,57.9z"/>
	<path class="st6" d="M65.8,56.4h1.4c0.7,0,1.3,0.6,1.4,1.3c0,0.7-0.5,1.3-1.2,1.4c-0.5,0-1,0-1.5,0c0,0.2-0.1,0.3-0.1,0.4
		c0,1.4,0,2.8,0,4.3c0,1,0.3,1.2,1.2,1.2c0.7-0.1,1.3,0.4,1.4,1.1c0.1,0.7-0.2,1.3-0.9,1.5c-1,0.4-2.1,0.4-3.1,0.1
		c-1.1-0.3-1.9-1.4-1.8-2.5c-0.1-1.7,0-3.3,0-5v-0.8c-1.2-0.5-1.5-0.9-1.5-1.6s0.5-1.1,1.5-1.3c0-0.4,0-0.9,0-1.3
		c0-0.8,0.6-1.6,1.5-1.6c0,0,0.1,0,0.1,0c0.9,0,1.6,0.6,1.6,1.5c0,0,0,0.1,0,0.1C65.8,55.5,65.8,55.9,65.8,56.4z"/>
	<path class="st3" d="M39.1,60.2c2,0.9,4,1.8,6,2.7c0.3,0.1,0.5,0.3,0.7,0.5c0.4,0.5,0.5,1.2,0.1,1.7c-0.4,0.5-1.1,0.7-1.7,0.4
		c-1.2-0.5-2.5-1.2-3.8-1.8l-3.3-1.6c-1-0.4-1.6-1.5-1.2-2.5c0.2-0.6,0.7-1,1.2-1.2l7-3.4c0.6-0.4,1.4-0.2,1.8,0.5
		c0,0,0,0.1,0.1,0.1c0.3,0.7,0,1.5-0.6,1.8c0,0-0.1,0-0.1,0.1c-1.8,0.8-3.7,1.7-5.5,2.5L39.1,60.2z"/>
	<path class="st3" d="M104,60.3l-4.7-2.1c-0.5-0.2-1-0.4-1.5-0.7c-0.7-0.3-1.1-1.1-0.8-1.9c0,0,0,0,0,0c0.3-0.7,1.2-1,1.8-0.6
		c0,0,0.1,0,0.1,0.1l7,3.3c0.8,0.3,1.3,1,1.3,1.9c0,0.8-0.4,1.6-1.2,1.9l-7,3.4c-0.6,0.4-1.4,0.2-1.8-0.4c0,0-0.1-0.1-0.1-0.1
		c-0.3-0.7-0.1-1.5,0.6-1.8c0,0,0.1,0,0.1-0.1c1.9-0.9,3.8-1.7,5.7-2.5L104,60.3z"/>
	<path class="st7" d="M90.6,60v-6c-0.1-0.9,0.5-1.7,1.4-1.8c0.9-0.1,1.7,0.5,1.8,1.4c0,0.1,0,0.2,0,0.4v12c0.1,0.9-0.5,1.7-1.4,1.8
		c-0.9,0.1-1.7-0.5-1.8-1.4c0-0.1,0-0.2,0-0.4V60z"/>
</g>
</svg>
