<svg xmlns="http://www.w3.org/2000/svg" width="143" height="156.71" viewBox="0 0 143 156.71">
  <defs>
    <style>
      .a {
        fill: #fff;
      }

      .b {
        fill: #62c7ca;
      }

      .c {
        fill: #1e7e79;
      }

      .d {
        fill: #1b7f7a;
      }

      .e {
        fill: #1d7f7b;
      }

      .f {
        fill: #197e79;
      }

      .g {
        fill: #1a7e7a;
      }

      .h {
        fill: #1f807c;
      }
    </style>
  </defs>
  <title>Ресурс 3</title>
  <g>
    <path class="a" d="M142.49,44.29A20.07,20.07,0,0,0,135.59,34a41.21,41.21,0,0,0-6.91-4.35C116.37,22.83,81,3.59,75.47,1.24,74.39.79,73.29.41,72.2,0H70.82c-1.43.55-2.92,1-4.29,1.68-5.77,2.83-11.59,5.55-17.24,8.63-12.55,6.84-25,13.88-37.52,20.82a24.9,24.9,0,0,0-8.63,7.53,16.73,16.73,0,0,0-3,7.88.59.59,0,0,1-.1.26v48c.22.86.37,16.67.65,17.52A20,20,0,0,0,6.71,121c1.72,1.58,30.14,17.86,42.36,24.8,6,3.39,12,6.62,18.22,9.42,1.26.56,2.57,1,3.87,1.46h.68c7.57-2.6,14.42-6.68,21.4-10.48q20.63-11.29,40.74-23.52A18.64,18.64,0,0,0,142.71,111c.11-.45.19-.89.29-1.32V46.8C142.82,46,142.71,45.12,142.49,44.29Zm-7.24,62.08c-.1.39-.15.79-.25,1.18A16.67,16.67,0,0,1,127.21,118c-12,7.23-24.06,14.25-36.34,21-6.2,3.41-12.32,7-19.07,9.37h-.6c-1.16-.44-2.34-.81-3.46-1.31-5.57-2.48-10.94-5.38-16.24-8.39-10.9-6.19-21.75-12.48-32.61-18.75a29,29,0,0,1-5.16-3.37,18,18,0,0,1-5.39-7.81,20.32,20.32,0,0,1-.57-2.3V50.31c0-.08.06-.16.08-.24a15,15,0,0,1,2.7-7,22.31,22.31,0,0,1,7.69-6.7C29.4,30.14,40.5,23.87,51.7,17.78c5-2.76,10.22-5.18,15.38-7.71,1.21-.61,2.53-1,3.8-1.5h1.24c1,.38,2,.69,2.92,1.11A157.45,157.45,0,0,1,89.5,16.79c11,6,22,12.15,33,18.24a36.76,36.76,0,0,1,6.16,3.9,17.78,17.78,0,0,1,6.14,9.13c.2.73.32,1.5.47,2.25Z"/>
    <rect class="a" x="27.79" y="41.21" width="86.93" height="74.28"/>
    <path class="b" d="M128.43,78.32V51.92a7.62,7.62,0,0,0-.59-3.09,12.89,12.89,0,0,0-5.69-6.09q-7.32-4.2-14.71-8.32c-9.57-5.38-19.18-10.73-29-15.61-2.13-1-4.31-2-6.49-3a1.11,1.11,0,0,0-.84,0c-1.12.45-2.26.91-3.32,1.46-5.21,2.64-10.49,5.2-15.61,8C42.05,30.83,32,36.51,22,42.11a17.26,17.26,0,0,0-5,3.8,8.83,8.83,0,0,0-2.43,5.87q0,26.6,0,53.21a5.56,5.56,0,0,0,.37,1.93,11.55,11.55,0,0,0,4.95,5.56c10.45,6,20.89,12.14,31.36,18.13,5.9,3.39,11.88,6.65,18,9.56,2.2,1.05,2.22,1.09,4.4,0,4.25-2.16,8.53-4.31,12.71-6.6,12.29-6.7,24.38-13.78,36.44-20.91a13.39,13.39,0,0,0,3.21-2.65,8.51,8.51,0,0,0,2.4-6C128.37,95.41,128.43,86.85,128.43,78.32Zm-16,29.82a5.39,5.39,0,0,1-5.55,5.56H35.81a5.36,5.36,0,0,1-5.39-4.18,6.34,6.34,0,0,1-.14-1.38q0-10,0-20.09a5.4,5.4,0,0,1,5.55-5.55h71a5.4,5.4,0,0,1,5.61,5.61Zm0-38a5.39,5.39,0,0,1-5.51,5.55H35.75a5.4,5.4,0,0,1-5.49-5.51V50a5.39,5.39,0,0,1,5.51-5.54h71a5.38,5.38,0,0,1,5.65,5.66Z"/>
    <path class="c" d="M134.78,48.06a17.78,17.78,0,0,0-6.14-9.13,36.76,36.76,0,0,0-6.16-3.9c-11-6.09-22-12.2-33-18.24A157.45,157.45,0,0,0,75,9.68c-1-.42-1.94-.73-2.92-1.11H70.88c-1.27.5-2.59.89-3.8,1.5C61.92,12.6,56.72,15,51.7,17.78,40.5,23.87,29.4,30.14,18.24,36.33A22.31,22.31,0,0,0,10.55,43a15,15,0,0,0-2.7,7c0,.08-.06.16-.08.24v56.06a20.32,20.32,0,0,0,.57,2.3,18,18,0,0,0,5.39,7.81,29,29,0,0,0,5.16,3.37c10.86,6.27,21.71,12.56,32.61,18.75,5.3,3,10.67,5.91,16.24,8.39,1.12.5,2.3.87,3.46,1.31h.6c6.75-2.33,12.87-6,19.07-9.37,12.28-6.7,24.38-13.72,36.34-21A16.67,16.67,0,0,0,135,107.55c.1-.39.15-.79.25-1.18V50.31C135.1,49.56,135,48.79,134.78,48.06ZM126.07,110a13.39,13.39,0,0,1-3.21,2.65c-12.06,7.13-24.15,14.21-36.44,20.91-4.18,2.29-8.46,4.44-12.71,6.6-2.18,1.11-2.2,1.07-4.4,0-6.16-2.91-12.14-6.17-18-9.56-10.47-6-20.91-12.08-31.36-18.13A11.55,11.55,0,0,1,15,106.92a5.56,5.56,0,0,1-.37-1.93q0-26.61,0-53.21A8.83,8.83,0,0,1,17,45.91a17.26,17.26,0,0,1,5-3.8C32,36.51,42.05,30.83,52.15,25.31c5.12-2.82,10.4-5.38,15.61-8,1.06-.55,2.2-1,3.32-1.46a1.11,1.11,0,0,1,.84,0c2.18,1,4.36,1.93,6.49,3,9.85,4.88,19.46,10.23,29,15.61q7.38,4.11,14.71,8.32a12.89,12.89,0,0,1,5.69,6.09,7.62,7.62,0,0,1,.59,3.09v26.4c0,8.53-.06,17.09,0,25.62A8.51,8.51,0,0,1,126.07,110Z"/>
    <path class="d" d="M62,104.71a8.47,8.47,0,0,1-4.08-1.27,1.3,1.3,0,0,1-.54-1.87,1.27,1.27,0,0,1,1.83-.33,5.38,5.38,0,0,0,3,.9,1.34,1.34,0,0,0,.64-.13,1.1,1.1,0,0,0,.47-.59.87.87,0,0,0-.34-.67,8.06,8.06,0,0,0-1.36-.55c-.65-.24-1.33-.42-2-.7a2.92,2.92,0,0,1-1.92-2.87,3.24,3.24,0,0,1,1.92-3.11,5.42,5.42,0,0,1,3.78-.26,9.81,9.81,0,0,1,1.81.66,1.29,1.29,0,0,1,.63,1.77,1.33,1.33,0,0,1-1.75.55c-.69-.27-1.41-.47-2.12-.69a.75.75,0,0,0-.3,0c-.45,0-.93.07-1.07.6s.32.78.72,1c.7.29,1.43.52,2.15.79.3.11.59.25.88.39a3,3,0,0,1,1.83,3,3.12,3.12,0,0,1-2.18,3A15.88,15.88,0,0,1,62,104.71Z"/>
    <path class="d" d="M72.14,104.69A8.26,8.26,0,0,1,68,103.4a1.28,1.28,0,1,1,1.34-2.17,5.33,5.33,0,0,0,3,.91,2,2,0,0,0,.69-.13.68.68,0,0,0,.13-1.25,5.35,5.35,0,0,0-1.07-.47c-.74-.26-1.5-.45-2.21-.76a2.93,2.93,0,0,1-2-2.87,3.23,3.23,0,0,1,2-3.17,6.15,6.15,0,0,1,4.71.06,5.8,5.8,0,0,1,.88.4,1.29,1.29,0,0,1-1.17,2.3c-.51-.22-1-.42-1.57-.6a3,3,0,0,0-.8-.12c-.63,0-1.09.22-1.16.62-.09.61.39.78.81,1s1.08.4,1.62.6.86.32,1.27.52a3,3,0,0,1,1.9,3.08,3.23,3.23,0,0,1-2.4,3A17,17,0,0,1,72.14,104.69Z"/>
    <path class="d" d="M51.56,93A6.28,6.28,0,0,1,55,94a1.47,1.47,0,1,1-1.68,2.37A2.73,2.73,0,0,0,50,96.32a3.37,3.37,0,0,0-.88,3.83,2.69,2.69,0,0,0,2.81,1.75,3.65,3.65,0,0,0,1.81-.76,1.34,1.34,0,0,1,2.19.93,1.39,1.39,0,0,1-.55,1.25,5.9,5.9,0,0,1-9.58-3.52,5.74,5.74,0,0,1,4-6.51A16.53,16.53,0,0,1,51.56,93Z"/>
    <path class="d" d="M88.25,98.39c0,.06,0,.1.07.11a2.83,2.83,0,0,1,1.88,3.25,11.75,11.75,0,0,0,0,1.33,1.74,1.74,0,0,0,1.16,1.65c.26.12.53.21.79.34a1.14,1.14,0,0,1,.57,1.39,1.07,1.07,0,0,1-1.18.77A6.75,6.75,0,0,1,88.41,106a2.91,2.91,0,0,1-1.15-2.25c0-.73,0-1.47,0-2.2-.06-1.25-.48-1.68-1.72-1.85A1.25,1.25,0,0,1,84.39,98a1.21,1.21,0,0,1,.91-.81,2.89,2.89,0,0,1,.5-.08,1.5,1.5,0,0,0,1.45-1.51,16.83,16.83,0,0,0,0-1.74,3.36,3.36,0,0,1,2.27-3.66,11.76,11.76,0,0,1,1.74-.56,1.1,1.1,0,0,1,1.43.73,1.14,1.14,0,0,1-.76,1.46l-.33.13a2,2,0,0,0-1.45,2.4,13,13,0,0,1,0,1.53,2.49,2.49,0,0,1-1.46,2.24Z"/>
    <path class="d" d="M99,98.38c-1.66-.56-2.12-1.8-2-3.4,0-.13,0-.27,0-.41.12-1.58-.2-2.1-1.68-2.68a1.15,1.15,0,0,1-.82-1.51,1.11,1.11,0,0,1,1.49-.69,14,14,0,0,1,2.36.91A2.87,2.87,0,0,1,100,93.19c0,.7,0,1.4,0,2.1.05,1.27.43,1.67,1.69,1.88,1,.15,1.44.8,1.19,1.63a1.14,1.14,0,0,1-1.08.86c-1.41.11-1.84.8-1.82,2.25,0,.51,0,1,0,1.54a3.19,3.19,0,0,1-2,3,12.57,12.57,0,0,1-2.07.69,1.08,1.08,0,0,1-1.36-.75,1.14,1.14,0,0,1,.73-1.44l.42-.17a2,2,0,0,0,1.39-2.34c0-.47-.07-.95-.06-1.43a2.53,2.53,0,0,1,1.57-2.42l.33-.15Z"/>
    <path class="e" d="M44.1,102.75a1.82,1.82,0,0,1-3.64,0,1.82,1.82,0,0,1,3.64,0Z"/>
    <path class="d" d="M73.93,57.87a3.86,3.86,0,0,1,6.38,0c.13-.12.26-.23.37-.35a4.49,4.49,0,0,1,4.51-1.18,3.08,3.08,0,0,1,2.43,3c.13,2.28.1,4.57.07,6.86A1.49,1.49,0,0,1,86,67.71a1.56,1.56,0,0,1-1.5-1.62c0-1.55,0-3.11,0-4.66a4,4,0,0,0-.08-.92A1.64,1.64,0,0,0,82.7,59.1a1.71,1.71,0,0,0-1.79,1.43,4,4,0,0,0-.09.91c0,1.56,0,3.11,0,4.66a1.59,1.59,0,0,1-3.07.61,3.09,3.09,0,0,1-.12-1c0-1.45,0-2.9,0-4.35a4.9,4.9,0,0,0,0-.77,1.69,1.69,0,0,0-1.7-1.53A1.72,1.72,0,0,0,74,60.51a4.8,4.8,0,0,0-.11,1.07c0,1.48,0,3,0,4.45a1.58,1.58,0,1,1-3.16,0V58.09a1.58,1.58,0,0,1,1.43-1.79C73.1,56.22,73.74,56.77,73.93,57.87Z"/>
    <path class="f" d="M52.55,57.87a3,3,0,0,1,.28-.41,3.8,3.8,0,0,1,4-1.13,3.49,3.49,0,0,1,2.61,3.5c.06,2.14,0,4.27,0,6.4a1.58,1.58,0,0,1-3.15,0c0-1.54,0-3.08,0-4.61a5.1,5.1,0,0,0-.07-.87,1.74,1.74,0,0,0-1.84-1.61,1.8,1.8,0,0,0-1.88,1.65,4.17,4.17,0,0,0-.06.71c0,1.52,0,3,0,4.56a1.55,1.55,0,0,1-1.62,1.69A1.57,1.57,0,0,1,49.21,66q0-6,0-12a1.59,1.59,0,1,1,3.17,0c0,1.11,0,2.22,0,3.33v.48Z"/>
    <path class="g" d="M65.82,56.41h1.37a1.37,1.37,0,0,1,1.38,1.3,1.35,1.35,0,0,1-1.2,1.41,12.47,12.47,0,0,1-1.5,0c0,.17-.05.28-.05.39,0,1.42,0,2.83,0,4.25,0,.95.3,1.21,1.24,1.17A1.35,1.35,0,0,1,68.49,66a1.28,1.28,0,0,1-.9,1.51,4.93,4.93,0,0,1-3.06.1,2.49,2.49,0,0,1-1.84-2.53c-.06-1.67,0-3.35,0-5v-.81c-1.17-.48-1.53-.87-1.45-1.61s.49-1.08,1.45-1.29c0-.43,0-.87,0-1.32a1.53,1.53,0,0,1,1.56-1.59,1.55,1.55,0,0,1,1.6,1.62C65.83,55.48,65.82,55.91,65.82,56.41Z"/>
    <path class="d" d="M39.06,60.24c2,.92,4,1.81,6,2.71a2.49,2.49,0,0,1,.72.47,1.4,1.4,0,0,1,.12,1.7,1.37,1.37,0,0,1-1.7.41C43,65,41.7,64.34,40.44,63.74l-3.35-1.6a2,2,0,0,1,0-3.78l7-3.36a1.33,1.33,0,0,1,1.88.55,1.37,1.37,0,0,1-.78,1.89c-1.82.84-3.65,1.65-5.48,2.47Z"/>
    <path class="d" d="M104,60.27l-4.7-2.12c-.5-.22-1-.43-1.49-.67a1.43,1.43,0,0,1-.77-1.91A1.38,1.38,0,0,1,99,55l7,3.33a2,2,0,0,1,1.27,1.86,1.94,1.94,0,0,1-1.22,1.9L99,65.5A1.32,1.32,0,0,1,97.1,65a1.37,1.37,0,0,1,.75-1.9c1.88-.86,3.78-1.7,5.66-2.55Z"/>
    <path class="h" d="M90.56,60V54a1.6,1.6,0,1,1,3.18,0V66a1.6,1.6,0,1,1-3.18,0Z"/>
  </g>
</svg>
