<?xml version="1.0" encoding="utf-8"?>
<!-- Generator: Adobe Illustrator 24.0.2, SVG Export Plug-In . SVG Version: 6.00 Build 0)  -->
<svg version="1.1" id="Слой_1" xmlns="http://www.w3.org/2000/svg" xmlns:xlink="http://www.w3.org/1999/xlink" x="0px" y="0px"
	 viewBox="0 0 90 98.6" style="enable-background:new 0 0 90 98.6;" xml:space="preserve">
<style type="text/css">
	.st0{fill:#FFFFFF;}
	.st1{fill:#62C7CA;}
	.st2{fill:#1E7E79;}
	.st3{fill:#1B7F7A;}
	.st4{fill:#1D7F7B;}
	.st5{fill:#197E79;}
	.st6{fill:#1A7E7A;}
	.st7{fill:#1F807C;}
</style>
<title>Ресурс 3</title>
<g>
	<path class="st0" d="M89.7,27.9c-0.8-2.6-2.3-4.8-4.3-6.5c-1.4-1.1-2.8-2-4.3-2.8C73.2,14.3,51,2.2,47.5,0.7
		c-0.7-0.3-1.4-0.5-2.1-0.8h-0.9c-0.9,0.4-1.8,0.6-2.7,1.1C38.2,2.8,34.5,4.6,31,6.5c-7.9,4.3-15.7,8.8-23.6,13.1
		c-2.1,1.1-4,2.8-5.4,4.7c-1.1,1.4-1.7,3.1-1.9,5c0,0.1,0,0.1-0.1,0.2v30.2c0.1,0.6,0,8.4,0.4,11c0.8,2.1,2.1,4,3.8,5.5
		c1.1,1,19,11.3,26.7,15.6c3.8,2.1,7.6,4.2,11.5,5.9c0.8,0.4,1.6,0.6,2.5,0.9h0.4C50,97,54.3,94.4,58.7,92
		c8.7-4.7,17.2-9.7,25.6-14.8c2.8-1.6,4.7-4.3,5.5-7.4c0.1-0.3,0.1-0.6,0.2-0.8V29.4C89.9,28.9,89.8,28.4,89.7,27.9z M85.2,67
		c-0.1,0.3-0.1,0.5-0.2,0.8c-0.7,2.8-2.5,5.2-4.9,6.6c-7.6,4.5-15.2,9-22.9,13.2c-3.9,2.1-7.7,4.4-12,5.9h-0.4
		c-0.8-0.3-1.4-0.5-2.2-0.8c-3.5-1.6-6.9-3.4-10.2-5.3c-6.9-3.9-13.7-7.9-20.5-11.8c-1.1-0.6-2.3-1.3-3.3-2.1
		c-1.6-1.3-2.7-3-3.4-4.9C5,67.9,4.9,67.5,4.8,67V31.6c0-0.1,0.1-0.1,0.1-0.1c0.2-1.6,0.8-3.1,1.7-4.4c1.3-1.8,2.9-3.2,4.8-4.2
		c7.1-3.9,14-7.9,21.1-11.7c3.1-1.8,6.4-3.3,9.7-4.8c0.8-0.4,1.6-0.6,2.4-0.9h0.8c0.6,0.3,1.3,0.4,1.8,0.7c3.1,1.3,6.2,2.8,9.1,4.5
		c6.9,3.8,13.9,7.6,20.8,11.5c1.4,0.7,2.6,1.5,3.9,2.5c1.9,1.4,3.2,3.5,3.8,5.7c0.1,0.4,0.2,0.9,0.3,1.4V67z"/>
	<rect x="17.4" y="25.9" class="st0" width="54.7" height="46.8"/>
	<path class="st1" d="M80.8,49.3V32.7c0-0.7-0.1-1.3-0.4-2c-0.8-1.6-2-3-3.6-3.8c-3.1-1.8-6.2-3.5-9.3-5.2c-6-3.4-12.1-6.7-18.3-9.8
		c-1.3-0.6-2.7-1.3-4.1-1.9c-0.2-0.1-0.4-0.1-0.5,0c-0.7,0.3-1.4,0.6-2.1,0.9c-3.3,1.6-6.6,3.3-9.8,5c-6.4,3.5-12.7,7.1-19,10.6
		c-1.2,0.6-2.3,1.4-3.1,2.4c-0.9,1-1.5,2.3-1.5,3.7c0,11.1,0,22.4,0,33.5c0,0.4,0.1,0.8,0.3,1.2c0.6,1.4,1.7,2.7,3.1,3.5
		c6.6,3.8,13.2,7.6,19.8,11.4c3.7,2.1,7.5,4.2,11.3,6c1.4,0.7,1.4,0.7,2.8,0c2.7-1.4,5.4-2.7,8-4.2c7.7-4.2,15.4-8.7,22.9-13.2
		c0.8-0.4,1.4-1,2-1.7c1-1,1.5-2.4,1.5-3.8C80.8,60,80.8,54.6,80.8,49.3z M70.7,68c0.1,1.9-1.4,3.5-3.3,3.5c-0.1,0-0.1,0-0.2,0H22.5
		c-1.6,0.1-3-1.1-3.4-2.6C19,68.6,19,68.4,19,68c0-4.2,0-8.4,0-12.7c-0.1-1.9,1.4-3.5,3.3-3.5c0.1,0,0.1,0,0.2,0h44.7
		c1.9-0.1,3.5,1.4,3.5,3.3c0,0.1,0,0.2,0,0.3V68z M70.7,44.1c0.1,1.9-1.4,3.5-3.3,3.5c-0.1,0-0.1,0-0.2,0H22.5
		c-1.9,0.1-3.4-1.4-3.5-3.3c0-0.1,0-0.1,0-0.1V31.5C19,29.6,20.5,28,22.3,28c0.1,0,0.1,0,0.2,0h44.7c1.9-0.1,3.5,1.3,3.6,3.2
		c0,0.1,0,0.3,0,0.4L70.7,44.1z"/>
	<path class="st2" d="M84.8,30.3c-0.6-2.3-2-4.3-3.8-5.7c-1.2-0.9-2.5-1.8-3.9-2.5c-6.9-3.8-13.9-7.7-20.8-11.5
		c-3-1.6-6-3.1-9.1-4.5c-0.6-0.3-1.2-0.4-1.8-0.7h-0.8C43.8,5.8,43,6,42.2,6.4c-3.3,1.6-6.6,3.1-9.7,4.8c-7.1,3.8-14,7.8-21.1,11.7
		c-1.9,1-3.6,2.5-4.8,4.2C5.6,28.5,5,30,4.8,31.6c0,0.1-0.1,0.1-0.1,0.1V67C4.8,67.5,5,68,5.2,68.5c0.7,1.9,1.8,3.6,3.4,4.9
		c1,0.8,2.1,1.5,3.3,2.1c6.9,4,13.7,7.9,20.5,11.8c3.3,1.9,6.7,3.7,10.2,5.3c0.7,0.3,1.4,0.6,2.2,0.8h0.4c4.3-1.4,8.1-3.8,12-5.9
		c7.7-4.2,15.4-8.6,22.9-13.2c2.5-1.4,4.2-3.8,4.9-6.5c0.1-0.3,0.1-0.5,0.2-0.8V31.6C85,31.2,85,30.7,84.8,30.3z M79.4,69.2
		c-0.6,0.6-1.3,1.2-2,1.7c-7.6,4.5-15.2,8.9-22.9,13.2c-2.6,1.4-5.4,2.8-8,4.2C45,89,45,89,43.6,88.3c-3.9-1.8-7.6-3.9-11.3-6
		c-6.6-3.8-13.2-7.6-19.8-11.4c-1.4-0.8-2.5-2-3.1-3.5c-0.1-0.4-0.3-0.8-0.3-1.2c0-11.1,0-22.4,0-33.5c0-1.4,0.6-2.7,1.5-3.7
		c0.9-1,2-1.8,3.1-2.4c6.3-3.5,12.6-7.1,19-10.6c3.2-1.8,6.6-3.4,9.8-5c0.7-0.3,1.4-0.6,2.1-0.9c0.2-0.1,0.4-0.1,0.5,0
		c1.4,0.6,2.8,1.2,4.1,1.9c6.2,3.1,12.3,6.4,18.3,9.8c3.1,1.7,6.2,3.5,9.3,5.2c1.6,0.8,2.8,2.2,3.6,3.8c0.3,0.6,0.4,1.3,0.4,2v16.6
		c0,5.4-0.1,10.8,0,16.1C80.8,66.9,80.3,68.2,79.4,69.2z"/>
	<path class="st3" d="M39,65.9c-0.9-0.1-1.8-0.3-2.6-0.8C36,64.9,35.8,64.4,36,64c0,0,0-0.1,0.1-0.1c0.3-0.4,0.8-0.5,1.1-0.3
		c0,0,0.1,0,0.1,0.1c0.6,0.4,1.2,0.6,1.9,0.6c0.1,0,0.3,0,0.4-0.1c0.1-0.1,0.3-0.2,0.3-0.4c0-0.2-0.1-0.3-0.2-0.4
		c-0.3-0.1-0.6-0.3-0.9-0.4c-0.4-0.1-0.8-0.3-1.3-0.4c-0.8-0.3-1.3-1-1.2-1.8c-0.1-0.8,0.4-1.6,1.2-2c0.8-0.3,1.6-0.4,2.4-0.2
		c0.4,0.1,0.8,0.3,1.1,0.4c0.4,0.2,0.6,0.6,0.4,1.1c0,0,0,0,0,0.1c-0.2,0.4-0.7,0.6-1.1,0.4c-0.4-0.2-0.9-0.3-1.3-0.4
		c-0.1,0-0.1,0-0.2,0c-0.3,0-0.6,0.1-0.7,0.4c-0.1,0.3,0.2,0.5,0.4,0.6c0.4,0.2,0.9,0.3,1.4,0.5c0.2,0.1,0.4,0.2,0.6,0.3
		c0.8,0.3,1.2,1.1,1.1,1.9c0,0.9-0.6,1.6-1.4,1.9C39.8,65.8,39.4,65.8,39,65.9z"/>
	<path class="st3" d="M45.3,65.9c-0.9-0.1-1.8-0.3-2.6-0.8c-0.4-0.2-0.6-0.7-0.4-1.1c0.2-0.4,0.7-0.6,1.1-0.4c0.1,0,0.1,0.1,0.1,0.1
		c0.6,0.4,1.2,0.6,1.9,0.6c0.1,0,0.3,0,0.4-0.1c0.3-0.1,0.4-0.3,0.3-0.5c-0.1-0.1-0.1-0.2-0.2-0.3c-0.2-0.1-0.4-0.3-0.7-0.3
		c-0.4-0.2-0.9-0.3-1.4-0.5c-0.8-0.3-1.3-1-1.3-1.8c-0.1-0.9,0.4-1.6,1.3-2c0.9-0.4,2-0.4,3,0.1c0.2,0.1,0.4,0.1,0.6,0.3
		c0.4,0.2,0.6,0.7,0.4,1.1c-0.2,0.4-0.7,0.6-1.1,0.4l0,0c-0.3-0.1-0.6-0.3-1-0.4c-0.2-0.1-0.3-0.1-0.5-0.1c-0.4,0-0.7,0.1-0.8,0.4
		c-0.1,0.4,0.3,0.5,0.5,0.6s0.7,0.3,1,0.4c0.3,0.1,0.6,0.2,0.8,0.3c0.8,0.3,1.3,1.1,1.2,2c-0.1,0.9-0.6,1.6-1.5,1.9
		C46.2,65.8,45.8,65.8,45.3,65.9z"/>
	<path class="st3" d="M32.4,58.5c0.8,0,1.5,0.2,2.1,0.6c0.4,0.3,0.6,0.8,0.4,1.3c-0.3,0.4-0.8,0.6-1.3,0.4c-0.1-0.1-0.2-0.1-0.3-0.2
		c-0.6-0.5-1.4-0.5-2.1-0.1c-0.7,0.6-0.9,1.6-0.6,2.4c0.3,0.8,1,1.2,1.8,1.1c0.4-0.1,0.8-0.2,1.1-0.5c0.4-0.3,0.9-0.3,1.2,0.1
		c0.1,0.1,0.2,0.3,0.2,0.5c0,0.3-0.1,0.6-0.3,0.8c-1.6,1.3-3.9,1.1-5.2-0.5c-0.4-0.5-0.7-1.1-0.8-1.7c-0.3-1.8,0.8-3.6,2.5-4.1
		C31.7,58.7,32.1,58.6,32.4,58.5z"/>
	<path class="st3" d="M55.5,61.9C55.5,62,55.5,62,55.5,61.9c0.9,0.4,1.4,1.2,1.3,2.1c0,0.3,0,0.6,0,0.8c0,0.4,0.3,0.9,0.8,1.1
		c0.2,0.1,0.3,0.1,0.5,0.2c0.3,0.2,0.5,0.5,0.4,0.9c-0.1,0.3-0.4,0.5-0.8,0.5c-0.7-0.1-1.4-0.4-2-0.8c-0.4-0.3-0.7-0.9-0.8-1.4
		c0-0.4,0-0.9,0-1.4c-0.1-0.8-0.3-1.1-1.1-1.1c-0.4,0-0.8-0.4-0.8-0.8c0-0.1,0-0.2,0.1-0.3c0.1-0.3,0.3-0.4,0.6-0.5
		c0.1,0,0.2-0.1,0.3-0.1c0.5,0,0.9-0.4,0.9-0.9c0-0.4,0-0.8,0-1.1c-0.1-1,0.4-2,1.4-2.3c0.4-0.1,0.7-0.3,1.1-0.4
		c0.4-0.1,0.8,0.1,0.9,0.4c0,0,0,0,0,0.1c0.1,0.4-0.1,0.8-0.4,0.9l0,0l-0.3,0.1c-0.7,0.2-1.1,0.8-0.9,1.5c0,0.3,0,0.6,0,0.9
		c0,0.6-0.4,1.1-0.9,1.4L55.5,61.9z"/>
	<path class="st3" d="M62.3,61.9c-1.1-0.4-1.3-1.1-1.3-2.1c0-0.1,0-0.2,0-0.3c0.1-1-0.1-1.3-1.1-1.7c-0.4-0.1-0.6-0.5-0.6-0.9v-0.1
		c0.1-0.4,0.5-0.6,0.9-0.4h0.1c0.5,0.1,1,0.3,1.5,0.6c0.6,0.3,1,0.9,1.1,1.6c0,0.4,0,0.9,0,1.3c0.1,0.8,0.3,1.1,1.1,1.2
		c0.6,0.1,0.9,0.5,0.8,1c-0.1,0.3-0.4,0.5-0.7,0.6c-0.9,0.1-1.1,0.5-1.1,1.4c0,0.3,0,0.6,0,0.9c0,0.8-0.5,1.6-1.3,1.9
		c-0.4,0.2-0.9,0.3-1.3,0.4c-0.4,0.1-0.8-0.1-0.8-0.4l0,0c-0.1-0.4,0.1-0.8,0.4-0.9l0,0l0.3-0.1c0.6-0.2,1-0.8,0.9-1.4
		c0-0.3-0.1-0.6-0.1-0.9c0-0.7,0.4-1.3,1-1.5L62.3,61.9L62.3,61.9z"/>
	<path class="st4" d="M27.7,64.7c0,0.6-0.5,1.1-1.1,1.1c-0.6,0-1.1-0.5-1.1-1.1c0-0.6,0.5-1.1,1.1-1.1C27.2,63.5,27.7,64,27.7,64.7z
		"/>
	<path class="st3" d="M46.5,36.4c0.8-1.1,2.3-1.4,3.4-0.6c0.3,0.2,0.4,0.4,0.6,0.6c0.1-0.1,0.2-0.1,0.3-0.2c0.8-0.8,1.8-1.1,2.8-0.8
		c0.9,0.2,1.5,1,1.5,1.9c0.1,1.4,0.1,2.9,0.1,4.3c0,0.5-0.4,0.9-0.9,0.9c-0.1,0-0.1,0-0.1,0c-0.6,0-0.9-0.5-0.9-1l0,0c0-1,0-2,0-3
		c0-0.2,0-0.4-0.1-0.6c-0.1-0.5-0.6-0.9-1.1-0.9c-0.6-0.1-1,0.4-1.1,0.9c-0.1,0.2-0.1,0.4-0.1,0.6c0,1,0,2,0,3c0,0.6-0.4,1-1,1
		c-0.4,0-0.8-0.3-0.9-0.6c-0.1-0.2-0.1-0.4-0.1-0.6c0-0.9,0-1.8,0-2.7c0-0.2,0-0.3,0-0.5c-0.1-0.6-0.5-0.9-1.1-0.9
		c-0.6-0.1-1.1,0.3-1.2,0.9c-0.1,0.3-0.1,0.4-0.1,0.7c0,0.9,0,1.9,0,2.8c0,0.6-0.4,1-1,1s-1-0.4-1-1v-5c-0.1-0.6,0.3-1.1,0.8-1.1
		h0.1C46,35.4,46.4,35.7,46.5,36.4z"/>
	<path class="st5" d="M33,36.4c0.1-0.1,0.1-0.2,0.2-0.3c0.6-0.7,1.6-1,2.5-0.7c1,0.3,1.7,1.2,1.6,2.2c0.1,1.3,0,2.7,0,4
		c-0.1,0.6-0.5,0.9-1.1,0.9c-0.5-0.1-0.9-0.4-0.9-0.9c0-0.9,0-2,0-2.9c0-0.2,0-0.4-0.1-0.6c-0.1-0.6-0.6-1.1-1.1-1
		c-0.6,0-1.1,0.4-1.2,1.1c0,0.1-0.1,0.3-0.1,0.4c0,0.9,0,1.9,0,2.9c0.1,0.6-0.3,1-0.9,1.1c-0.1,0-0.1,0-0.1,0c-0.6,0-1-0.4-1-0.9
		c0-0.1,0-0.1,0-0.1c0-2.5,0-5,0-7.6c-0.1-0.6,0.4-1,0.9-1.1c0.6-0.1,1,0.4,1.1,0.9c0,0.1,0,0.1,0,0.2c0,0.7,0,1.4,0,2.1v0.3
		L33,36.4z"/>
	<path class="st6" d="M41.4,35.5h0.9c0.4,0,0.8,0.4,0.9,0.8c0,0.4-0.3,0.8-0.8,0.9c-0.3,0-0.6,0-0.9,0c0,0.1-0.1,0.2-0.1,0.3
		c0,0.9,0,1.8,0,2.7c0,0.6,0.2,0.8,0.8,0.8c0.4-0.1,0.8,0.3,0.9,0.7c0.1,0.4-0.1,0.8-0.6,0.9c-0.6,0.3-1.3,0.3-2,0.1
		c-0.7-0.2-1.2-0.9-1.1-1.6c-0.1-1.1,0-2.1,0-3.1v-0.5c-0.8-0.3-0.9-0.6-0.9-1c0-0.4,0.3-0.7,0.9-0.8c0-0.3,0-0.6,0-0.8
		c0-0.5,0.4-1,0.9-1h0.1c0.6,0,1,0.4,1,0.9v0.1C41.4,34.9,41.4,35.2,41.4,35.5z"/>
	<path class="st3" d="M24.6,37.9c1.3,0.6,2.5,1.1,3.8,1.7c0.2,0.1,0.3,0.2,0.4,0.3c0.3,0.3,0.3,0.8,0.1,1.1
		c-0.3,0.3-0.7,0.4-1.1,0.3c-0.8-0.3-1.6-0.8-2.4-1.1l-2.1-1c-0.6-0.3-1-0.9-0.8-1.6c0.1-0.4,0.4-0.6,0.8-0.8l4.4-2.1
		c0.4-0.3,0.9-0.1,1.1,0.3c0,0,0,0.1,0.1,0.1c0.2,0.4,0,0.9-0.4,1.1c0,0-0.1,0-0.1,0.1c-1.1,0.5-2.3,1.1-3.5,1.6L24.6,37.9z"/>
	<path class="st3" d="M65.4,37.9l-3-1.3c-0.3-0.1-0.6-0.3-0.9-0.4C61.1,36,60.8,35.5,61,35l0,0c0.2-0.4,0.8-0.6,1.1-0.4
		c0,0,0.1,0,0.1,0.1l4.4,2.1c0.5,0.2,0.8,0.6,0.8,1.2c0,0.5-0.3,1-0.8,1.2l-4.4,2.1c-0.4,0.3-0.9,0.1-1.1-0.3L61.1,41
		c-0.2-0.4-0.1-0.9,0.4-1.1c0,0,0.1,0,0.1-0.1c1.2-0.6,2.4-1.1,3.6-1.6L65.4,37.9z"/>
	<path class="st7" d="M57,37.8V34c-0.1-0.6,0.3-1.1,0.9-1.1c0.6-0.1,1.1,0.3,1.1,0.9c0,0.1,0,0.1,0,0.3v7.6c0.1,0.6-0.3,1.1-0.9,1.1
		c-0.6,0.1-1.1-0.3-1.1-0.9c0-0.1,0-0.1,0-0.3V37.8z"/>
</g>
</svg>
