<svg xmlns="http://www.w3.org/2000/svg" width="23.67" height="23.67" viewBox="0 0 23.67 23.67">
  <defs>
    <style>
      .a {
        fill: #00155f;
      }
    </style>
  </defs>
  <title>icon_pintrest</title>
  <path class="a" d="M11.84,0A11.83,11.83,0,0,0,7.09,22.67,10.55,10.55,0,0,1,7.29,20c.23-1,1.52-6.45,1.52-6.45a4.55,4.55,0,0,1-.38-1.87c0-1.76,1-3.07,2.29-3.07a1.58,1.58,0,0,1,1.59,1.78,26,26,0,0,1-1,4.2,1.83,1.83,0,0,0,1.87,2.27c2.24,0,3.75-2.87,3.75-6.29C16.89,7.94,15.14,6,12,6a5.61,5.61,0,0,0-5.82,5.67A3.39,3.39,0,0,0,6.92,14a.59.59,0,0,1,.17.66c-.06.21-.19.74-.25.95a.4.4,0,0,1-.59.29c-1.65-.67-2.42-2.48-2.42-4.52C3.83,8,6.66,4,12.29,4c4.52,0,7.49,3.27,7.49,6.78,0,4.64-2.58,8.11-6.39,8.11a3.38,3.38,0,0,1-2.89-1.48s-.69,2.73-.83,3.26a9.84,9.84,0,0,1-1.19,2.53,11.56,11.56,0,0,0,3.35.49A11.84,11.84,0,0,0,11.84,0Z"/>
</svg>
