<svg xmlns="http://www.w3.org/2000/svg" width="23.23" height="22.37" viewBox="0 0 23.23 22.37">
  <defs>
    <style>
      .a {
        fill: #00155f;
      }
    </style>
  </defs>
  <title>Ресурс 1</title>
  <g>
    <path class="a" d="M16.45,1.86a5,5,0,0,1,3.42,1.37,4.58,4.58,0,0,1,1.42,3.29v9.32a4.58,4.58,0,0,1-1.42,3.3,4.94,4.94,0,0,1-3.42,1.36H6.78a4.92,4.92,0,0,1-3.42-1.36,4.58,4.58,0,0,1-1.42-3.3V6.52A4.58,4.58,0,0,1,3.36,3.23,5,5,0,0,1,6.78,1.86Zm0-1.86H6.78A6.68,6.68,0,0,0,0,6.52v9.32a6.68,6.68,0,0,0,6.78,6.53h9.67a6.68,6.68,0,0,0,6.78-6.53V6.52A6.68,6.68,0,0,0,16.45,0Z"/>
    <path class="a" d="M16.94,7.46a1.54,1.54,0,0,1-.81-.24,1.41,1.41,0,0,1-.62-1.43,1.43,1.43,0,0,1,.4-.72,1.39,1.39,0,0,1,.74-.38,1.41,1.41,0,0,1,.84.08,1.4,1.4,0,0,1,.9,1.29,1.4,1.4,0,0,1-.11.53,1.32,1.32,0,0,1-.32.46,1.35,1.35,0,0,1-.47.3A1.46,1.46,0,0,1,16.94,7.46Zm-6.29.93A4,4,0,0,1,12.8,9a3.77,3.77,0,0,1,1.42,1.67,3.53,3.53,0,0,1,.22,2.15,3.61,3.61,0,0,1-1.06,1.91,3.89,3.89,0,0,1-2,1,4,4,0,0,1-2.24-.21,3.83,3.83,0,0,1-1.73-1.37,3.63,3.63,0,0,1-.66-2.07A3.7,3.7,0,0,1,7.91,9.48,4,4,0,0,1,10.65,8.39Zm0-1.87a6,6,0,0,0-3.23,1A5.61,5.61,0,0,0,5.28,10,5.42,5.42,0,0,0,5,13.21a5.52,5.52,0,0,0,1.59,2.86,6,6,0,0,0,6.33,1.21,5.69,5.69,0,0,0,2.6-2.06,5.43,5.43,0,0,0,1-3.1,5.49,5.49,0,0,0-1.7-4A5.91,5.91,0,0,0,10.65,6.52Z"/>
  </g>
</svg>
