<svg xmlns="http://www.w3.org/2000/svg" width="23.72" height="22.72" viewBox="0 0 23.72 22.72">
  <defs>
    <style>
      .a {
        fill: #ffb342;
      }
    </style>
  </defs>
  <title>icon_star</title>
  <path class="a" d="M10.42.84a1.66,1.66,0,0,1,2.89,0L16,5.56a1.66,1.66,0,0,0,1.12.81l5.31,1.07a1.66,1.66,0,0,1,.89,2.75l-3.66,4a1.65,1.65,0,0,0-.43,1.31l.62,5.38a1.66,1.66,0,0,1-2.34,1.7l-4.92-2.25a1.66,1.66,0,0,0-1.38,0L6.25,22.57a1.66,1.66,0,0,1-2.34-1.7l.62-5.38a1.62,1.62,0,0,0-.43-1.31l-3.66-4a1.66,1.66,0,0,1,.89-2.75L6.64,6.37a1.66,1.66,0,0,0,1.12-.81Z"/>
</svg>
