<svg xmlns="http://www.w3.org/2000/svg" width="23.84" height="19.07" viewBox="0 0 23.84 19.07">
  <defs>
    <style>
      .a {
        fill: #00155f;
      }
    </style>
  </defs>
  <title>icon_social_twiter</title>
  <path class="a" d="M23.84,2.26A10.09,10.09,0,0,1,21,3,4.86,4.86,0,0,0,23.19.36a10,10,0,0,1-3.11,1.16A5,5,0,0,0,18.45.4a4.89,4.89,0,0,0-6.83,4.41,4.52,4.52,0,0,0,.12,1.1A13.86,13.86,0,0,1,6.17,4.46,14,14,0,0,1,1.66.88,4.69,4.69,0,0,0,1,3.3a4.8,4.8,0,0,0,2.19,4A5,5,0,0,1,1,6.71v.06a4.83,4.83,0,0,0,3.93,4.71,4.66,4.66,0,0,1-1.29.17,4.7,4.7,0,0,1-.92-.09,4.88,4.88,0,0,0,4.57,3.35A10,10,0,0,1,1.17,17,11.48,11.48,0,0,1,0,16.9a13.79,13.79,0,0,0,7.49,2.17A13.71,13.71,0,0,0,21.42,5.37c0-.2,0-.41,0-.62A9.79,9.79,0,0,0,23.84,2.26Z"/>
</svg>
