<svg xmlns="http://www.w3.org/2000/svg" width="23.38" height="22.38" viewBox="0 0 23.38 22.38">
  <defs>
    <style>
      .a {
        fill: #00155f;
        fill-rule: evenodd;
      }
    </style>
  </defs>
  <title>icon_social_facebook</title>
  <path class="a" d="M23.38,11.26A11.48,11.48,0,0,0,11.69,0,11.48,11.48,0,0,0,0,11.26,11.41,11.41,0,0,0,9.86,22.38V14.51h-3V11.26h3V8.78A4.05,4.05,0,0,1,14.28,4.4a18.69,18.69,0,0,1,2.62.22V7.39H15.42a1.65,1.65,0,0,0-1.9,1.76v2.11h3.24l-.52,3.25H13.52v7.87A11.4,11.4,0,0,0,23.38,11.26Z"/>
</svg>
