<svg xmlns="http://www.w3.org/2000/svg" width="100" height="109.59" viewBox="0 0 100 109.59">
  <defs>
    <style>
      .a {
        fill: #fff;
      }

      .b {
        fill: #304040;
      }

      .c {
        fill: #5b7065;
      }
    </style>
  </defs>
  <title>Ресурс 4</title>
  <g>
    <path class="a" d="M99.64,31a14,14,0,0,0-4.82-7.16,28.9,28.9,0,0,0-4.83-3C81.37,16,56.66,2.51,52.78.87,52,.55,51.25.29,50.49,0h-1c-1,.39-2.05.7-3,1.17-4,2-8.1,3.89-12.05,6C25.69,12,17,16.91,8.23,21.77a17.47,17.47,0,0,0-6,5.26A11.83,11.83,0,0,0,.07,32.55a.45.45,0,0,1-.07.18V66.26c.15.61.26,11.67.45,12.26a14.15,14.15,0,0,0,4.24,6.12C5.9,85.74,25.77,97.13,34.32,102c4.15,2.37,8.36,4.63,12.74,6.59.88.38,1.79.67,2.7,1h.48c5.29-1.82,10.08-4.67,15-7.33q14.43-7.91,28.49-16.45a13,13,0,0,0,6.1-8.17c.09-.32.14-.62.21-.93v-44C99.88,32.15,99.79,31.55,99.64,31ZM94.58,74.38c-.07.28-.11.55-.18.83A11.58,11.58,0,0,1,89,82.5c-8.37,5.06-16.83,10-25.42,14.66-4.33,2.38-8.61,4.92-13.33,6.54h-.42c-.81-.3-1.63-.56-2.42-.91C43.48,101.06,39.72,99,36,96.92c-7.63-4.33-15.21-8.72-22.81-13.11A20.38,20.38,0,0,1,9.6,81.45,12.64,12.64,0,0,1,5.83,76a15.31,15.31,0,0,1-.4-1.62V35.18L5.49,35a10.51,10.51,0,0,1,1.89-4.92,15.53,15.53,0,0,1,5.38-4.68c7.8-4.33,15.56-8.72,23.39-13C39.67,10.5,43.3,8.81,46.91,7c.85-.42,1.77-.7,2.66-1h.86c.69.26,1.37.48,2,.77a109.91,109.91,0,0,1,10.1,5C70.29,16,78,20.24,85.65,24.5A26.25,26.25,0,0,1,90,27.22a12.43,12.43,0,0,1,4.29,6.39c.14.51.22,1,.33,1.57Z"/>
    <path class="b" d="M94.25,33.61A12.43,12.43,0,0,0,90,27.22a26.25,26.25,0,0,0-4.31-2.72C78,20.24,70.29,16,62.58,11.74a109.91,109.91,0,0,0-10.1-5c-.68-.29-1.36-.51-2-.77h-.86c-.89.34-1.81.62-2.66,1-3.61,1.77-7.24,3.46-10.76,5.39-7.83,4.26-15.59,8.65-23.39,13a15.53,15.53,0,0,0-5.38,4.68A10.51,10.51,0,0,0,5.49,35l-.06.17v39.2A15.31,15.31,0,0,0,5.83,76,12.64,12.64,0,0,0,9.6,81.45a20.38,20.38,0,0,0,3.61,2.36C20.81,88.2,28.39,92.59,36,96.92c3.7,2.11,7.46,4.14,11.35,5.87.79.35,1.61.61,2.42.91h.42c4.72-1.62,9-4.16,13.33-6.54C72.13,92.47,80.59,87.56,89,82.5a11.58,11.58,0,0,0,5.44-7.29c.07-.28.11-.55.18-.83V35.18C94.47,34.65,94.39,34.12,94.25,33.61ZM88.16,76.92a9.34,9.34,0,0,1-2.25,1.85c-8.43,5-16.88,9.94-25.48,14.62-2.92,1.6-5.91,3.1-8.89,4.62-1.52.77-1.53.74-3.07,0-4.31-2-8.49-4.31-12.62-6.68-7.32-4.19-14.62-8.45-21.93-12.68a8.14,8.14,0,0,1-3.46-3.89,3.9,3.9,0,0,1-.26-1.35q0-18.62,0-37.21a6.21,6.21,0,0,1,1.7-4.11,12.21,12.21,0,0,1,3.47-2.66c7-3.91,14.05-7.88,21.11-11.74,3.58-2,7.27-3.76,10.92-5.61.74-.39,1.53-.7,2.32-1a.78.78,0,0,1,.58,0c1.53.67,3.05,1.35,4.54,2.08,6.89,3.42,13.61,7.15,20.3,10.92C78.58,26,82,27.93,85.42,29.89a9,9,0,0,1,4,4.25,5.37,5.37,0,0,1,.41,2.17V54.77c0,6,0,11.95,0,17.92A6,6,0,0,1,88.16,76.92Z"/>
    <path class="c" d="M89.84,55V36.57a6.3,6.3,0,0,0,0-.75,5.14,5.14,0,0,0-.39-1.68,9,9,0,0,0-4-4.25c-3.41-2-6.84-3.91-10.29-5.82-6.69-3.77-13.41-7.5-20.3-10.92-1.49-.73-3-1.41-4.54-2.08a.78.78,0,0,0-.58,0c-.79.32-1.58.63-2.32,1-3.65,1.85-7.34,3.64-10.92,5.61-7.06,3.86-14.07,7.83-21.11,11.74a12.21,12.21,0,0,0-3.47,2.66,6.21,6.21,0,0,0-1.7,4.11q0,18.6,0,37.21a4,4,0,0,0,.09.75,3,3,0,0,0,.22.86A8,8,0,0,0,14,78.92c7.31,4.23,14.61,8.49,21.94,12.68C40,94,44.21,96.25,48.5,98.29c1.53.73,1.56.75,3.07,0,3-1.51,6-3,8.9-4.62C69.07,89,77.51,84,85.94,79a9.39,9.39,0,0,0,2.26-1.85A6,6,0,0,0,89.86,73C89.8,67,89.84,61,89.84,55ZM21.89,77.94a3.88,3.88,0,0,1-.48-1.16,4.41,4.41,0,0,1-.1-1q0-7,0-14a3.78,3.78,0,0,1,3.88-3.89H74.85A3.83,3.83,0,0,1,78,59.44a4.09,4.09,0,0,1,.6,2.18v14a3.76,3.76,0,0,1-3.88,3.89H25A3.79,3.79,0,0,1,21.89,77.94ZM78,32.85a4.2,4.2,0,0,1,.6,2.22v14a3.77,3.77,0,0,1-3.85,3.88H25a3.78,3.78,0,0,1-3.1-1.55,3.92,3.92,0,0,1-.6-2.11V35.18a3.76,3.76,0,0,1,3.85-3.87H74.82A3.82,3.82,0,0,1,78,32.85Z"/>
    <path class="b" d="M43.34,73.22a5.92,5.92,0,0,1-2.85-.88A.92.92,0,0,1,40.11,71a.88.88,0,0,1,1.28-.23,3.81,3.81,0,0,0,2.12.63.89.89,0,0,0,.44-.1.66.66,0,0,0,.33-.41.55.55,0,0,0-.23-.46,5.58,5.58,0,0,0-.95-.39c-.46-.17-.93-.29-1.38-.49a2,2,0,0,1-1.33-2,2.25,2.25,0,0,1,1.34-2.18,3.76,3.76,0,0,1,2.64-.18,6.43,6.43,0,0,1,1.27.46.91.91,0,0,1,.44,1.24.94.94,0,0,1-1.23.38c-.48-.19-1-.33-1.48-.48a.71.71,0,0,0-.21,0c-.31,0-.65,0-.75.42s.22.55.51.67c.49.2,1,.36,1.5.55.21.08.41.18.62.28a2,2,0,0,1,1.27,2.11,2.18,2.18,0,0,1-1.52,2.08A11.67,11.67,0,0,1,43.34,73.22Z"/>
    <path class="b" d="M50.45,73.21a5.78,5.78,0,0,1-2.87-.9A.91.91,0,0,1,47.23,71a.89.89,0,0,1,1.28-.25,3.79,3.79,0,0,0,2.11.64,1.34,1.34,0,0,0,.49-.1.47.47,0,0,0,.08-.87,3.76,3.76,0,0,0-.74-.32c-.52-.19-1.05-.32-1.55-.54a2,2,0,0,1-1.38-2,2.23,2.23,0,0,1,1.39-2.21,4.27,4.27,0,0,1,3.29,0,4.91,4.91,0,0,1,.62.28A.9.9,0,0,1,52,67.31c-.36-.15-.72-.3-1.09-.42a1.83,1.83,0,0,0-.57-.08c-.44,0-.76.15-.81.43s.28.54.57.67.75.28,1.13.42a7.6,7.6,0,0,1,.89.37,2,2,0,0,1,1.32,2.15A2.23,2.23,0,0,1,51.77,73,11.78,11.78,0,0,1,50.45,73.21Z"/>
    <path class="b" d="M36.06,65a4.44,4.44,0,0,1,2.4.74,1.05,1.05,0,0,1,.4,1.53,1.07,1.07,0,0,1-1.58.13,1.91,1.91,0,0,0-2.35,0A2.35,2.35,0,0,0,34.31,70a1.9,1.9,0,0,0,2,1.23,2.6,2.6,0,0,0,1.27-.53.94.94,0,0,1,1.53.65,1,1,0,0,1-.39.88,3.92,3.92,0,0,1-2.84.94,4.08,4.08,0,0,1-1.08-8A11.27,11.27,0,0,1,36.06,65Z"/>
    <path class="b" d="M61.71,68.81a.5.5,0,0,1,0,.07,2,2,0,0,1,1.32,2.27,7.23,7.23,0,0,0,0,.93,1.23,1.23,0,0,0,.81,1.16c.18.08.37.15.55.24a.78.78,0,0,1,.4,1A.74.74,0,0,1,64,75a4.71,4.71,0,0,1-2.16-.87A2,2,0,0,1,61,72.54c0-.51,0-1,0-1.54,0-.88-.33-1.18-1.2-1.29A.87.87,0,0,1,59,68.55a.83.83,0,0,1,.63-.57,2.27,2.27,0,0,1,.35,0,1.05,1.05,0,0,0,1-1.06,9.77,9.77,0,0,0,0-1.21,2.36,2.36,0,0,1,1.59-2.56,7.53,7.53,0,0,1,1.22-.39.77.77,0,0,1,1,.5.8.8,0,0,1-.53,1l-.23.09A1.41,1.41,0,0,0,63,66a9.49,9.49,0,0,1,0,1.07,1.74,1.74,0,0,1-1,1.56Z"/>
    <path class="b" d="M69.26,68.8a2,2,0,0,1-1.38-2.38c0-.09,0-.19,0-.28.08-1.11-.15-1.47-1.18-1.88a.82.82,0,0,1-.58-1.06.79.79,0,0,1,1-.48,9.71,9.71,0,0,1,1.65.64,2,2,0,0,1,1.09,1.81c0,.49,0,1,0,1.47,0,.89.3,1.17,1.18,1.31.68.11,1,.56.84,1.14a.79.79,0,0,1-.76.6c-1,.08-1.29.56-1.27,1.58,0,.35,0,.71,0,1.07a2.23,2.23,0,0,1-1.4,2.14,9.12,9.12,0,0,1-1.45.48.75.75,0,0,1-1-.53.78.78,0,0,1,.51-1l.29-.12a1.41,1.41,0,0,0,1-1.64c0-.33,0-.66,0-1A1.77,1.77,0,0,1,69,69l.22-.11S69.21,68.85,69.26,68.8Z"/>
    <path class="b" d="M30.84,71.85a1.28,1.28,0,0,1-2.55,0,1.28,1.28,0,0,1,2.55,0Z"/>
    <path class="b" d="M51.7,40.47a2.69,2.69,0,0,1,4.46,0l.26-.24a3.16,3.16,0,0,1,3.16-.83,2.16,2.16,0,0,1,1.69,2.11c.09,1.59.07,3.19,0,4.79a1,1,0,0,1-1.16,1,1.08,1.08,0,0,1-1-1.13c0-1.09,0-2.18,0-3.26a2.68,2.68,0,0,0-.06-.64,1.15,1.15,0,0,0-1.21-1,1.2,1.2,0,0,0-1.25,1,2.73,2.73,0,0,0-.06.64c0,1.08,0,2.17,0,3.26a1.08,1.08,0,0,1-.88,1.1,1.06,1.06,0,0,1-1.26-.68,1.9,1.9,0,0,1-.09-.67c0-1,0-2,0-3a3.2,3.2,0,0,0,0-.53,1.18,1.18,0,0,0-1.19-1.07,1.21,1.21,0,0,0-1.3,1,3.64,3.64,0,0,0-.07.74c0,1,0,2.08,0,3.12a1.07,1.07,0,0,1-1.1,1.17,1.09,1.09,0,0,1-1.11-1.18V40.62a1.11,1.11,0,0,1,1-1.25C51.12,39.31,51.57,39.7,51.7,40.47Z"/>
    <path class="b" d="M36.75,40.47a2.08,2.08,0,0,1,.19-.29,2.65,2.65,0,0,1,2.77-.78,2.42,2.42,0,0,1,1.82,2.44c0,1.49,0,3,0,4.48a1,1,0,0,1-1.13,1,1.06,1.06,0,0,1-1.07-1.07c0-1.07,0-2.15,0-3.22a3.94,3.94,0,0,0,0-.6A1.22,1.22,0,0,0,38,41.33a1.26,1.26,0,0,0-1.32,1.15,2.74,2.74,0,0,0,0,.5c0,1.06,0,2.12,0,3.18a1.11,1.11,0,1,1-2.22,0c0-2.81,0-5.61,0-8.42a1.11,1.11,0,1,1,2.22,0c0,.78,0,1.56,0,2.33v.34Z"/>
    <path class="b" d="M46,39.45c.34,0,.65,0,.95,0a1,1,0,0,1,1,.91.94.94,0,0,1-.84,1,9.13,9.13,0,0,1-1,0c0,.12,0,.19,0,.27,0,1,0,2,0,3,0,.66.21.84.86.82a.92.92,0,0,1,1,.73.89.89,0,0,1-.62,1.06,3.48,3.48,0,0,1-2.14.07,1.73,1.73,0,0,1-1.29-1.77c0-1.17,0-2.34,0-3.51v-.56c-.82-.34-1.07-.62-1-1.13s.34-.76,1-.9c0-.31,0-.62,0-.93a1.07,1.07,0,0,1,1.09-1.11A1.08,1.08,0,0,1,46,38.5Z"/>
    <path class="b" d="M27.32,42.13,31.52,44a1.67,1.67,0,0,1,.5.33,1,1,0,0,1,.08,1.19.94.94,0,0,1-1.18.29c-.89-.41-1.76-.84-2.64-1.25l-2.34-1.13a1.42,1.42,0,0,1,0-2.64l4.91-2.35a.92.92,0,0,1,1.31.39.94.94,0,0,1-.54,1.32L27.8,41.9C27.65,42,27.51,42,27.32,42.13Z"/>
    <path class="b" d="M72.75,42.14l-3.28-1.47-1-.47a1,1,0,0,1-.54-1.34,1,1,0,0,1,1.35-.38l4.89,2.33a1.39,1.39,0,0,1,.89,1.3,1.38,1.38,0,0,1-.86,1.33c-1.65.79-3.29,1.58-5,2.36a.91.91,0,0,1-1.31-.37,1,1,0,0,1,.53-1.32c1.31-.61,2.64-1.2,4-1.79Z"/>
    <path class="b" d="M63.33,42v-4.2a1.12,1.12,0,1,1,2.22,0v8.35a1.12,1.12,0,1,1-2.22,0Z"/>
  </g>
</svg>
