<svg xmlns="http://www.w3.org/2000/svg" width="94" height="102.7" viewBox="0 0 94 102.7">
  <defs>
    <style>
      .a {
        fill: #fff;
      }

      .b {
        fill: #8e9b97;
      }

      .c {
        fill: #2c4a52;
      }
    </style>
  </defs>
  <title>Ресурс 1</title>
  <g>
    <path class="a" d="M93.7,29.6l-.1-.2a15.83,15.83,0,0,0-5-7.5,36.37,36.37,0,0,0-4.6-3l-.8-.4C69.5,11,53.4,2.3,50.3,1c-.4-.2-.8-.3-1.2-.5a7.93,7.93,0,0,1-.9-.4L47.8,0H46.1l-.4.2c-.3.1-.6.3-.9.4a14.17,14.17,0,0,0-1.8.8L40.8,2.5c-2.9,1.4-5.9,2.9-8.7,4.4-4,2.2-8,4.4-11.8,6.6S12.5,17.9,8.6,20a18.83,18.83,0,0,0-6,5.2A11.85,11.85,0,0,0,.3,30.6l-.3.2S0,71.3.2,73l.3,1.2c.9,2.4,2.5,3.9,4.3,5.5,1.5,1.3,22,13,27.1,15.9,3.8,2.1,7.6,4.2,11.6,6a18,18,0,0,0,2.1.8l.6.2.3.1h1l.3-.1a71.33,71.33,0,0,0,11.5-5.5l2.3-1.2C69.3,91.8,77.4,87,87.3,81a13.93,13.93,0,0,0,6.4-8.6c.1-.2.1-.4.2-.6l.1-.3v-40Zm-8.6,4.5V69.4a8.79,8.79,0,0,1-4,5.4c-7.4,4.4-15.2,9-22.8,13.2L56,89.2a62.39,62.39,0,0,1-9,4.4l-.6-.2-1-.4c-3.2-1.4-6.4-3.2-10-5.2-4.2-2.4-8.5-4.8-12.6-7.2l-8-4.6a15.28,15.28,0,0,1-3-1.9,9.4,9.4,0,0,1-2.8-4c-.1-.5-.2-.8-.3-1.2V34.5l.1-.7a9.32,9.32,0,0,1,1.3-3.5,11.24,11.24,0,0,1,4.2-3.6c2.9-1.6,5.7-3.2,8.6-4.8,4.1-2.3,8.3-4.7,12.6-7a106.63,106.63,0,0,1,9.6-4.7,6.94,6.94,0,0,1,1.3-.5l.6-.1h0a1.85,1.85,0,0,0,.7.2c.2,0,.3.1.5.2l.3.1a73.55,73.55,0,0,1,8.9,4.4l5.4,3c5.1,2.7,10.3,5.6,15.4,8.5h.1a22.07,22.07,0,0,1,3.6,2.3,8.84,8.84,0,0,1,3,4.6A5,5,0,0,0,85.1,34.1Z"/>
    <rect class="a" x="19.4" y="28" width="54.7" height="46.8"/>
    <path class="b" d="M82.8,51.4V34.8a4.48,4.48,0,0,0-.4-2A8.29,8.29,0,0,0,78.8,29c-3.1-1.8-6.2-3.5-9.3-5.2-6-3.4-12.1-6.7-18.3-9.8-1.3-.6-2.7-1.3-4.1-1.9a.45.45,0,0,0-.5,0l-2.1.9c-3.3,1.6-6.6,3.3-9.8,5-6.4,3.5-12.7,7.1-19,10.6A9.23,9.23,0,0,0,12.6,31a5.58,5.58,0,0,0-1.5,3.7V68.2a2.66,2.66,0,0,0,.3,1.2,7.05,7.05,0,0,0,3.1,3.5L34.3,84.3c3.7,2.1,7.5,4.2,11.3,6,1.4.7,1.4.7,2.8,0,2.7-1.4,5.4-2.7,8-4.2,7.7-4.2,15.4-8.7,22.9-13.2a5.51,5.51,0,0,0,2-1.7,5.37,5.37,0,0,0,1.5-3.8ZM72.7,70.1a3.34,3.34,0,0,1-3.1,3.5H24.5A3.43,3.43,0,0,1,21.1,71a2.77,2.77,0,0,1-.1-.9V57.4a3.34,3.34,0,0,1,3.1-3.5H69.2A3.34,3.34,0,0,1,72.7,57V70.1Zm0-23.9a3.34,3.34,0,0,1-3.1,3.5H24.5A3.36,3.36,0,0,1,21,46.5V33.6a3.44,3.44,0,0,1,3.3-3.5H69.2a3.37,3.37,0,0,1,3.6,3.1v.5Z"/>
    <path class="c" d="M86.8,32.4A10.19,10.19,0,0,0,83,26.7a25.94,25.94,0,0,0-3.9-2.5c-6.9-3.8-13.9-7.7-20.8-11.5-3-1.6-6-3.1-9.1-4.5-.6-.3-1.2-.4-1.8-.7h-.8c-.8.4-1.6.6-2.4,1-3.3,1.6-6.6,3.1-9.7,4.8-7.1,3.8-14,7.8-21.1,11.7a13.78,13.78,0,0,0-4.8,4.2,9.33,9.33,0,0,0-1.8,4.5c0,.1,0,.1-.1.1V69.1a8.8,8.8,0,0,0,.5,1.5,11.17,11.17,0,0,0,3.4,4.9,18.52,18.52,0,0,0,3.3,2.1c6.9,4,13.7,7.9,20.5,11.8,3.3,1.9,6.7,3.7,10.2,5.3a14.27,14.27,0,0,0,2.2.8h.4c4.3-1.4,8.1-3.8,12-5.9,7.7-4.2,15.4-8.6,22.9-13.2A10.37,10.37,0,0,0,87,69.9c.1-.3.1-.5.2-.8V33.7C87,33.3,87,32.8,86.8,32.4ZM81.4,71.3a16.32,16.32,0,0,1-2,1.7c-7.6,4.5-15.2,8.9-22.9,13.2-2.6,1.4-5.4,2.8-8,4.2-1.5.7-1.5.7-2.9,0-3.9-1.8-7.6-3.9-11.3-6L14.5,73a7.05,7.05,0,0,1-3.1-3.5l-.3-1.2V34.8a5.58,5.58,0,0,1,1.5-3.7,10.34,10.34,0,0,1,3.1-2.4c6.3-3.5,12.6-7.1,19-10.6,3.2-1.8,6.6-3.4,9.8-5l2.1-.9a.45.45,0,0,1,.5,0c1.4.6,2.8,1.2,4.1,1.9,6.2,3.1,12.3,6.4,18.3,9.8,3.1,1.7,6.2,3.5,9.3,5.2a8.29,8.29,0,0,1,3.6,3.8,4.48,4.48,0,0,1,.4,2V51.5c0,5.4-.1,10.8,0,16.1A5.49,5.49,0,0,1,81.4,71.3Z"/>
    <path class="c" d="M41,68a6.07,6.07,0,0,1-2.6-.8.84.84,0,0,1-.4-1.1c0-.1,0-.1.1-.1a.8.8,0,0,1,1.1-.3c.1,0,.1,0,.1.1a3.29,3.29,0,0,0,1.9.6.6.6,0,0,0,.4-.1c.1-.1.3-.2.3-.4a.52.52,0,0,0-.2-.4c-.3-.1-.6-.3-.9-.4a10.38,10.38,0,0,0-1.3-.4,1.65,1.65,0,0,1-1.2-1.8,1.88,1.88,0,0,1,1.2-2,4,4,0,0,1,2.4-.2c.4.1.8.3,1.1.4a.84.84,0,0,1,.4,1.1h0v.1a.84.84,0,0,1-1.1.4,6.47,6.47,0,0,0-1.3-.4h-.2a.67.67,0,0,0-.7.4c-.1.3.2.5.4.6.4.2.9.3,1.4.5l.6.3A1.75,1.75,0,0,1,43.6,66a2,2,0,0,1-1.4,1.9A4.87,4.87,0,0,0,41,68Z"/>
    <path class="c" d="M47.3,68a6.07,6.07,0,0,1-2.6-.8.8.8,0,0,1-.3-1.1.82.82,0,0,1,1-.4c.1,0,.1,0,.1.1a3.29,3.29,0,0,0,1.9.6.6.6,0,0,0,.4-.1c.3-.1.4-.3.3-.5a.77.77,0,0,0-.2-.3.91.91,0,0,0-.7-.3c-.4-.2-.9-.3-1.4-.5a2.07,2.07,0,0,1-1.3-2.5,2.1,2.1,0,0,1,1.3-1.3,3.49,3.49,0,0,1,3,.1c.2.1.4.1.6.3a.85.85,0,1,1-.6,1.6.1.1,0,0,1-.1-.1h0a4.18,4.18,0,0,0-1-.4.9.9,0,0,0-.5-.1c-.4,0-.7.1-.8.4s.3.5.5.6a4.18,4.18,0,0,0,1,.4c.3.1.5.2.8.3a1.88,1.88,0,0,1,1.2,2,2.29,2.29,0,0,1-1.5,1.9A4.1,4.1,0,0,0,47.3,68Z"/>
    <path class="c" d="M34.4,60.6a3.94,3.94,0,0,1,2.1.6,1,1,0,0,1,0,1.4,1,1,0,0,1-.9.3c-.1-.1-.2-.1-.3-.2a1.81,1.81,0,0,0-2.1-.1,2.19,2.19,0,0,0-.6,2.4,1.57,1.57,0,0,0,1.8,1.1,2.22,2.22,0,0,0,1.1-.5.82.82,0,0,1,1.2.1h0a.76.76,0,0,1,.2.5,1.14,1.14,0,0,1-.3.8,3.67,3.67,0,0,1-5.2-.5h0a3.81,3.81,0,0,1-.8-1.7,3.73,3.73,0,0,1,2.5-4.1A2.88,2.88,0,0,0,34.4,60.6Z"/>
    <path class="c" d="M57.5,64h0a2,2,0,0,1,1.3,2.1v.8a1.17,1.17,0,0,0,.8,1.1c.2.1.3.1.5.2a.81.81,0,0,1,.4.9.89.89,0,0,1-.8.5,5,5,0,0,1-2-.8,2.85,2.85,0,0,1-.8-1.4V66c-.1-.8-.3-1.1-1.1-1.1a.86.86,0,0,1-.8-.8.37.37,0,0,1,.1-.3c.1-.3.3-.4.6-.5.1,0,.2-.1.3-.1a.9.9,0,0,0,.9-.9h0V61.2a2,2,0,0,1,1.4-2.3c.4-.1.7-.3,1.1-.4a.81.81,0,0,1,.9.4V59a.81.81,0,0,1-.4.9h0l-.3.1a1.11,1.11,0,0,0-.9,1.4v1a1.69,1.69,0,0,1-.9,1.4Z"/>
    <path class="c" d="M64.3,64A1.86,1.86,0,0,1,63,61.9v-.3c.1-1-.1-1.3-1.1-1.7a.87.87,0,0,1-.6-.9v-.1a.75.75,0,0,1,.7-.5c.1,0,.1,0,.2.1h.1a4.71,4.71,0,0,1,1.5.6,2.09,2.09,0,0,1,1.1,1.6V62c.1.8.3,1.1,1.1,1.2.6.1.9.5.8,1a1.06,1.06,0,0,1-.7.6c-.9.1-1.1.5-1.1,1.4v.9A2.05,2.05,0,0,1,63.7,69a6.47,6.47,0,0,1-1.3.4c-.4.1-.8-.1-.8-.4h0a.81.81,0,0,1,.4-.9h0l.3-.1a1.3,1.3,0,0,0,.9-1.4c0-.3-.1-.6-.1-.9a1.54,1.54,0,0,1,1-1.5Z"/>
    <path class="c" d="M29.7,66.8a1.1,1.1,0,1,1-1.1-1.1h0a1,1,0,0,1,1.1.9Z"/>
    <path class="c" d="M48.5,38.5a2.43,2.43,0,0,1,3.4-.6h0l.6.6c.1-.1.2-.1.3-.2a2.69,2.69,0,0,1,2.8-.8,1.93,1.93,0,0,1,1.5,1.9c.1,1.4.1,2.9.1,4.3a.9.9,0,0,1-.9.9h-.1a.9.9,0,0,1-.9-.9v-.1h0v-3a1.27,1.27,0,0,0-.1-.6,1.17,1.17,0,0,0-1.1-.9A1,1,0,0,0,53,40h0a1.27,1.27,0,0,0-.1.6v3a1,1,0,0,1-.9,1h-.1A1,1,0,0,1,51,44a1.27,1.27,0,0,1-.1-.6V40.2a1,1,0,0,0-1.1-.9h0a1,1,0,0,0-1.2.8v.1a1.7,1.7,0,0,0-.1.7v2.8a1,1,0,0,1-2,0v-5a.92.92,0,0,1,.7-1.1h.2C48,37.5,48.4,37.8,48.5,38.5Z"/>
    <path class="c" d="M35,38.5c.1-.1.1-.2.2-.3a2.35,2.35,0,0,1,2.5-.7,2.14,2.14,0,0,1,1.6,2.2c.1,1.3,0,2.7,0,4a1,1,0,0,1-1.1.9h0c-.5-.1-.9-.4-.9-.9V40.8a1.27,1.27,0,0,0-.1-.6c-.1-.6-.6-1.1-1.1-1a1.2,1.2,0,0,0-1.2,1.1c0,.1-.1.3-.1.4v2.9a1,1,0,0,1-.8,1.1h-.2a.91.91,0,0,1-1-.8V36.1a1,1,0,0,1,2-.2v2.6Z"/>
    <path class="c" d="M43.4,37.6h.9a1.22,1.22,0,0,1,.9.8,1.06,1.06,0,0,1-.8.9h-.9c0,.1-.1.2-.1.3v2.7c0,.6.2.8.8.8.4-.1.8.3.9.7a.72.72,0,0,1-.5.9h-.1a2.74,2.74,0,0,1-2,.1,1.51,1.51,0,0,1-1.1-1.6c-.1-1.1,0-2.1,0-3.1v-.5c-.8-.3-.9-.6-.9-1s.3-.7.9-.8V37a1.06,1.06,0,0,1,.9-1h.1a.91.91,0,0,1,1,.8v.8Z"/>
    <path class="c" d="M26.6,40c1.3.6,2.5,1.1,3.8,1.7a1.38,1.38,0,0,1,.4.3.91.91,0,0,1,.1,1.1,1.13,1.13,0,0,1-1.1.3c-.8-.3-1.6-.8-2.4-1.1l-2.1-1a1.36,1.36,0,0,1-.8-1.6c.1-.4.4-.6.8-.8l4.4-2.1a.68.68,0,0,1,1,.2l.1.1c0,.1,0,.1.1.1a.84.84,0,0,1-.4,1.1c-.1,0-.1,0-.1.1-1.1.5-2.3,1.1-3.5,1.6Z"/>
    <path class="c" d="M67.4,40l-3-1.3c-.3-.1-.6-.3-.9-.4a1,1,0,0,1-.5-1.2h0a.84.84,0,0,1,1.1-.4c.1,0,.1,0,.1.1l4.4,2.1a1.3,1.3,0,0,1,0,2.4l-4.4,2.1a.68.68,0,0,1-1-.2l-.1-.1h0a.69.69,0,0,1,.3-1,.1.1,0,0,0,.1-.1c.1,0,.1,0,.1-.1,1.2-.6,2.4-1.1,3.6-1.6Z"/>
    <path class="c" d="M59,39.9V36.1a1,1,0,1,1,2-.2v7.9a1,1,0,0,1-2,.2Z"/>
  </g>
</svg>
