<svg xmlns="http://www.w3.org/2000/svg" width="22" height="22" viewBox="0 0 22 22">
  <defs>
    <style>
      .a {
        fill: #fff;
      }

      .b {
        fill: #3c4242;
        fill-rule: evenodd;
      }
    </style>
  </defs>
  <title>Ресурс 1</title>
  <g>
    <circle class="a" cx="11" cy="11" r="11"/>
    <path class="b" d="M15,14.05a.58.58,0,0,1-.82-.11L11.24,10.1a.23.23,0,0,0-.25,0L8.06,13.94a.59.59,0,0,1-.94-.71l3-3.86a.73.73,0,0,1,.15-.17A1.43,1.43,0,0,1,12,9.2a1.2,1.2,0,0,1,.16.17l2.94,3.86A.58.58,0,0,1,15,14.05Z"/>
  </g>
</svg>
