<svg xmlns="http://www.w3.org/2000/svg" width="37.02" height="37.02" viewBox="0 0 37.02 37.02">
  <defs>
    <style>
      .a {
        fill: #f6f6f6;
      }

      .b {
        fill: #2a2f2f;
      }
    </style>
  </defs>
  <title>Ресурс 3</title>
  <g>
    <rect class="a" width="37.02" height="37.02" rx="10.68"/>
    <path class="b" d="M18,14a4,4,0,1,0,4,4A4,4,0,0,0,18,14Zm0,6.59A2.6,2.6,0,1,1,20.57,18,2.61,2.61,0,0,1,18,20.58Zm5.09-6.76a.94.94,0,1,1-.93-.93A.94.94,0,0,1,23.07,13.82Zm2.64.95a4.58,4.58,0,0,0-1.26-3.26,4.58,4.58,0,0,0-3.26-1.26c-1.29-.08-5.14-.08-6.43,0A4.63,4.63,0,0,0,11.5,11.5a4.6,4.6,0,0,0-1.26,3.27c-.07,1.28-.07,5.14,0,6.42a4.6,4.6,0,0,0,1.26,3.27,4.62,4.62,0,0,0,3.26,1.26c1.29.07,5.14.07,6.43,0a4.32,4.32,0,0,0,4.52-4.53C25.79,19.91,25.79,16.06,25.71,14.77Zm-1.66,7.8a2.61,2.61,0,0,1-1.48,1.49,17.46,17.46,0,0,1-4.59.31,17.4,17.4,0,0,1-4.59-.31,2.66,2.66,0,0,1-1.49-1.49A17.4,17.4,0,0,1,11.59,18a17.43,17.43,0,0,1,.31-4.59,2.64,2.64,0,0,1,1.49-1.48c1-.41,3.45-.31,4.59-.31a17.43,17.43,0,0,1,4.59.31,2.6,2.6,0,0,1,1.48,1.48A17,17,0,0,1,24.36,18C24.36,19.12,24.46,21.55,24.05,22.57Z"/>
  </g>
</svg>
