<svg xmlns="http://www.w3.org/2000/svg" width="15.97" height="10.65" viewBox="0 0 15.97 10.65">
  <defs>
    <style>
      .a {
        fill: #224162;
      }
    </style>
  </defs>
  <title>video</title>
  <g>
    <path class="a" d="M10.65,5.37V8.74a1.8,1.8,0,0,1-1.92,1.91H1.91A1.8,1.8,0,0,1,0,8.73V1.91A1.79,1.79,0,0,1,1.91,0H8.74a1.8,1.8,0,0,1,1.91,1.91Z"/>
    <path class="a" d="M16,5.35c0,1.12,0,2.25,0,3.37a.92.92,0,0,1-1.51.83q-1.32-.9-2.64-1.77a.53.53,0,0,1-.29-.53c0-1.29,0-2.57,0-3.86a.74.74,0,0,1,.26-.49c.89-.62,1.8-1.22,2.71-1.83a.91.91,0,0,1,1-.06A.9.9,0,0,1,16,1.9C16,3.05,16,4.2,16,5.35Z"/>
  </g>
</svg>
