<svg xmlns="http://www.w3.org/2000/svg" width="22" height="22" viewBox="0 0 22 22">
  <defs>
    <style>
      .a {
        fill: #3c4242;
      }

      .b {
        fill: #fff;
        fill-rule: evenodd;
      }
    </style>
  </defs>
  <title>Ресурс 1</title>
  <g>
    <circle class="a" cx="11" cy="11" r="11"/>
    <path class="b" d="M6.84,8.93A.61.61,0,0,1,7.7,9l3.05,4A.24.24,0,0,0,11,13l3.05-4a.6.6,0,0,1,.85-.11.61.61,0,0,1,.12.85l-3.06,4a1.22,1.22,0,0,1-.16.18A1.48,1.48,0,0,1,10,14a.63.63,0,0,1-.16-.18l-3.06-4A.6.6,0,0,1,6.84,8.93Z"/>
  </g>
</svg>
