<svg xmlns="http://www.w3.org/2000/svg" width="34.61" height="62" viewBox="0 0 34.61 62">
  <title>король</title>
  <g>
    <path d="M.11,62c-.47-5,.42-6,5.21-6H29.44c4.87,0,5.61.87,5,6Z"/>
    <path d="M3,55C3.25,52.83,4.3,52,6.14,52c7.54,0,15.09,0,22.63,0,1.82,0,2.87.84,2.84,2.92Z"/>
    <rect x="9.95" y="21.16" width="14.22" height="4.36" rx="2.18"/>
    <path d="M12.3,26.29h9.93c-1.23,9,.93,17.12,6.31,24.82H6.08C11.28,43.53,13.57,35.4,12.3,26.29Z"/>
    <path d="M18.48,5.59h2.18c0-1,0-2,0-3.18-.79,0-1.19,0-2.17,0a21.54,21.54,0,0,1,0-2.41H15.8a21.54,21.54,0,0,1-.05,2.41c-1,0-1.38,0-2.17,0,0,1.19,0,2.23,0,3.18h2.18c-1.21,3.68-4,4.82-6.65,6.19l3.65,8.39h8.74l3.65-8.39C22.46,10.41,19.69,9.27,18.48,5.59Z"/>
  </g>
</svg>
