<svg xmlns="http://www.w3.org/2000/svg" width="37.92" height="56" viewBox="0 0 37.92 56">
  <title>пешка</title>
  <g>
    <path d="M6.52,44.14c5.87-7.84,8.53-16.22,7-25.87H24.36c-1.36,9.54,1.14,18,7,25.87Z"/>
    <path d="M37.73,56H.42c-1.18-4.73,0-6.41,4.63-6.42H32.44C37.69,49.58,38.33,50.33,37.73,56Z"/>
    <path d="M14.63,13c-2.11,0-3-.82-3.49-2.66a8.28,8.28,0,0,1,3.25-8.9,8.11,8.11,0,0,1,12.26,9.26,2.69,2.69,0,0,1-3,2.29Z"/>
    <path d="M3.32,48.47c.15-2.43,1.31-3.25,3.32-3.24q12.36,0,24.72,0c2.1,0,3.44.72,3.21,3.24Z"/>
    <rect x="11.5" y="13.71" width="14.92" height="3.66" rx="1.83"/>
  </g>
</svg>
