<svg xmlns="http://www.w3.org/2000/svg" width="34.87" height="62.25" viewBox="0 0 34.87 62.25">
  <defs>
    <style>
      .a {
        fill: #fff;
        stroke: #000;
        stroke-miterlimit: 10;
        stroke-width: 0.25px;
      }
    </style>
  </defs>
  <title>Ресурс 1</title>
  <g>
    <path class="a" d="M.24,62.13c-.47-5,.42-6,5.21-6H29.56c4.87,0,5.62.87,5,6Z"/>
    <path class="a" d="M3.14,55.09c.23-2.15,1.28-2.94,3.12-2.94H28.9c1.82,0,2.87.85,2.83,2.94Z"/>
    <path class="a" d="M12.26,21.29h9.86a2.18,2.18,0,0,1,2.18,2.18h0a2.19,2.19,0,0,1-2.18,2.18H12.26a2.18,2.18,0,0,1-2.18-2.18h0A2.17,2.17,0,0,1,12.26,21.29Z"/>
    <path class="a" d="M12.43,26.4h9.93c-1.23,9,.93,17.14,6.3,24.82H6.2C11.41,43.65,13.7,35.52,12.43,26.4Z"/>
    <path class="a" d="M18.61,5.71h2.18V2.53c-.79,0-1.19.05-2.17,0a19.23,19.23,0,0,1-.05-2.4H15.93c0,.79,0,1.6,0,2.4-1,.05-1.38,0-2.17,0V5.71h2.18c-1.21,3.68-4,4.82-6.65,6.18l3.65,8.4h8.74l3.65-8.39C22.59,10.52,19.82,9.39,18.61,5.71Z"/>
  </g>
</svg>
