<svg xmlns="http://www.w3.org/2000/svg" width="37.47" height="56" viewBox="0 0 37.47 56">
  <title>тура</title>
  <g>
    <g>
      <path d="M6.62,44.3c3.65-8.75,6.68-17.42,5.66-27.07H25.74c-1.07,9.61,2.07,18.26,5.61,27.07Z"/>
      <path d="M15.52,0c2.15,0,4.26,0,6.31,0,.11,1.93-.09,3.77,0,5.76h3.4V0H31c0,3.8.14,7.54-.11,11.26-.05.74-1.58,2-2.46,2-6.41.16-12.84,0-19.26.09A2.5,2.5,0,0,1,6.3,10.84c-.16-3.57,0-7.15,0-10.83H12V5.78h3.48Z"/>
      <path d="M.12,56c-.52-5.39.49-6.51,5.66-6.51H32c5.3,0,5.83.51,5.41,6.51Z"/>
      <path d="M28.76,14.35c-2.24,1.81-3.1,2.42-10.18,2.42-6.91,0-7.54-.67-9.37-2.42Z"/>
    </g>
    <path d="M5.61,45.59H31.07a2.83,2.83,0,0,1,2.83,2.83v0a0,0,0,0,1,0,0H2.78a0,0,0,0,1,0,0v0A2.83,2.83,0,0,1,5.61,45.59Z"/>
  </g>
</svg>
