<svg xmlns="http://www.w3.org/2000/svg" width="38.15" height="56.25" viewBox="0 0 38.15 56.25">
  <defs>
    <style>
      .a {
        fill: #fff;
        stroke: #000;
        stroke-miterlimit: 10;
        stroke-width: 0.25px;
      }
    </style>
  </defs>
  <title>Ресурс 6</title>
  <g>
    <g>
      <g>
        <path class="a" d="M7.65,44.73c-.08-7,1.53-13.31,6.94-18.26a45.79,45.79,0,0,0,5.3-5.83c.56-.71.37-2,.56-3.21-.84.14-1.11.13-1.15.21-1.73,4-5,5.46-9.16,5.71-.72,0-1.52.85-2.07,1.48-1.7,2-4.27,2.6-6.16,1.24C.33,24.93-.56,23.49.78,21.51c1.59-2.33,3.19-4.66,4.58-7.1.92-1.63,1.35-3.54,2.27-5.17A10.35,10.35,0,0,1,10.39,6c1.9-1.37,2.58-2.77,1.19-4.84a3.2,3.2,0,0,1-.25-1c13-.22,27.74,6.29,26.51,25.18a29.59,29.59,0,0,1-3.56,12.43c-1.11,2-1.59,4.42-2.47,7Z"/>
        <path class="a" d="M1.78,56.13c-.67-5.21.28-6.3,5.33-6.3H32.46c5.06,0,6,1,5.42,6.3Z"/>
      </g>
      <path class="a" d="M7,46H32.45a2.83,2.83,0,0,1,2.83,2.83v0a0,0,0,0,1,0,0H4.16a0,0,0,0,1,0,0v0A2.83,2.83,0,0,1,7,46Z"/>
    </g>
    <path class="a" d="M11.45,10.29c-1.52,1.21-1.72,2.48-.35,2.48s3.28-1.72,2.93-2.68C13.62,9,13.07,9,11.45,10.29Z"/>
    <path class="a" d="M1.92,22.16c-.87.23-.77,1.64.05,1.64s1.44-1.14.91-1.52A1.39,1.39,0,0,0,1.92,22.16Z"/>
  </g>
</svg>
