<svg xmlns="http://www.w3.org/2000/svg" width="37.72" height="56.25" viewBox="0 0 37.72 56.25">
  <defs>
    <style>
      .a {
        fill: #fff;
        stroke: #000;
        stroke-miterlimit: 10;
        stroke-width: 0.25px;
      }
    </style>
  </defs>
  <title>Ресурс 1</title>
  <g>
    <g>
      <path class="a" d="M6.75,44.41c3.64-8.75,6.68-17.42,5.66-27.06H25.87C24.8,27,27.94,35.61,31.47,44.41Z"/>
      <path class="a" d="M15.64.16H22c.11,1.92-.09,3.76,0,5.74h3.41V.13h5.7c0,3.79.14,7.54-.12,11.25,0,.73-1.58,1.94-2.45,2-6.42.15-12.84,0-19.26.08a2.49,2.49,0,0,1-2.79-2.15,1.67,1.67,0,0,1,0-.31c-.16-3.57,0-7.16,0-10.83h5.79V5.9h3.47Z"/>
      <path class="a" d="M.25,56.13c-.52-5.39.49-6.51,5.66-6.51H32.07c5.3,0,5.84.51,5.41,6.51Z"/>
      <path class="a" d="M28.88,14.18c-2.23,1.8-3.09,2.41-10.17,2.41-6.91,0-7.54-.66-9.37-2.41Z"/>
    </g>
    <path class="a" d="M5.73,45.7H31.2A2.84,2.84,0,0,1,34,48.54H2.91A2.84,2.84,0,0,1,5.73,45.7Z"/>
  </g>
</svg>
