<svg xmlns="http://www.w3.org/2000/svg" width="38.17" height="56.26" viewBox="0 0 38.17 56.26">
  <defs>
    <style>
      .a {
        fill: #fff;
        stroke: #000;
        stroke-miterlimit: 10;
        stroke-width: 0.25px;
      }
    </style>
  </defs>
  <title>Ресурс 1</title>
  <g>
    <path class="a" d="M6.65,44.28c5.88-7.84,8.54-16.22,7-25.87H24.5c-1.37,9.53,1.13,18,7,25.87Z"/>
    <path class="a" d="M37.87,56.14H.56c-1.19-4.73,0-6.42,4.63-6.42H32.57C37.82,49.72,38.47,50.47,37.87,56.14Z"/>
    <path class="a" d="M14.77,13.09c-2.12,0-3-.82-3.49-2.65a8.22,8.22,0,0,1,3.25-8.91A8.11,8.11,0,0,1,26.78,10.8a2.72,2.72,0,0,1-3,2.29Z"/>
    <path class="a" d="M3.46,48.6c.15-2.42,1.3-3.25,3.31-3.24H31.5c2.09,0,3.43.72,3.2,3.23Z"/>
    <path class="a" d="M13.46,13.84H24.72a1.82,1.82,0,0,1,1.83,1.83h0a1.83,1.83,0,0,1-1.83,1.83H13.46a1.83,1.83,0,0,1-1.83-1.83h0A1.82,1.82,0,0,1,13.46,13.84Z"/>
  </g>
</svg>
