<svg xmlns="http://www.w3.org/2000/svg" width="37.9" height="56" viewBox="0 0 37.9 56">
  <title>конь</title>
  <g>
    <g>
      <path d="M7.52,44.61c-.07-7.06,1.54-13.32,7-18.26a46.48,46.48,0,0,0,5.3-5.83c.55-.71.37-2,.55-3.22-.83.15-1.11.13-1.14.21-1.74,4-5,5.46-9.16,5.72-.73,0-1.52.84-2.07,1.48-1.71,1.95-4.27,2.6-6.17,1.23C.2,24.81-.69,23.37.66,21.38c1.58-2.33,3.18-4.65,4.57-7.1.93-1.62,1.36-3.53,2.27-5.16a10.27,10.27,0,0,1,2.77-3.29c1.9-1.37,2.58-2.78,1.19-4.85a3.14,3.14,0,0,1-.26-1C24.19-.21,39,6.3,37.71,25.18a29.53,29.53,0,0,1-3.55,12.43c-1.11,2-1.59,4.42-2.47,7Z"/>
      <path d="M1.66,56C1,50.79,1.94,49.7,7,49.7H32.34c5.06,0,6,1,5.42,6.3Z"/>
    </g>
    <path d="M6.86,45.89H32.32a2.83,2.83,0,0,1,2.83,2.83v0a0,0,0,0,1,0,0H4a0,0,0,0,1,0,0v0A2.83,2.83,0,0,1,6.86,45.89Z"/>
  </g>
</svg>
