<svg xmlns="http://www.w3.org/2000/svg" width="50" height="50" viewBox="0 0 50 50">
  <defs>
    <style>
      .a {
        fill: #40ddb6;
      }

      .b {
        fill: #fff;
      }
    </style>
  </defs>
  <title>Ресурс 1</title>
  <g>
    <path class="a" d="M25,0h0A25,25,0,0,1,50,25h0A25,25,0,0,1,25,50h0A25,25,0,0,1,0,25H0A25,25,0,0,1,25,0Z"/>
    <path class="b" d="M30.52,14.38a5.58,5.58,0,0,1,3.89,1.56A5.17,5.17,0,0,1,36,19.69V30.31a5.17,5.17,0,0,1-1.62,3.75,5.58,5.58,0,0,1-3.89,1.56h-11a5.58,5.58,0,0,1-3.89-1.56A5.17,5.17,0,0,1,14,30.31V19.69a5.17,5.17,0,0,1,1.62-3.75,5.58,5.58,0,0,1,3.89-1.56Zm0-2.13h-11a7.61,7.61,0,0,0-7.72,7.44V30.31a7.61,7.61,0,0,0,7.72,7.44h11a7.61,7.61,0,0,0,7.72-7.44V19.69A7.61,7.61,0,0,0,30.52,12.25Z"/>
    <path class="b" d="M32.17,19.69a1.74,1.74,0,0,1-.92-.27,1.64,1.64,0,0,1-.61-.72A1.55,1.55,0,0,1,31,17a1.62,1.62,0,0,1,.85-.44,1.71,1.71,0,0,1,.95.09,1.63,1.63,0,0,1,.75.59,1.56,1.56,0,0,1,.28.88,1.59,1.59,0,0,1-.13.61,1.43,1.43,0,0,1-.36.52,1.53,1.53,0,0,1-.54.35A1.68,1.68,0,0,1,32.17,19.69ZM25,20.75a4.5,4.5,0,0,1,2.45.72,4.29,4.29,0,0,1,1.63,1.9,4.15,4.15,0,0,1,.25,2.46A4.24,4.24,0,0,1,28.12,28a4.54,4.54,0,0,1-2.26,1.16,4.62,4.62,0,0,1-2.55-.24,4.45,4.45,0,0,1-2-1.57A4.13,4.13,0,0,1,21.88,22,4.5,4.5,0,0,1,25,20.75Zm0-2.12a6.81,6.81,0,0,0-3.68,1.07,6.44,6.44,0,0,0-2.44,2.86,6.13,6.13,0,0,0-.37,3.68,6.23,6.23,0,0,0,1.81,3.27,6.62,6.62,0,0,0,3.39,1.74,6.83,6.83,0,0,0,3.82-.36,6.51,6.51,0,0,0,3-2.35A6.19,6.19,0,0,0,31.62,25a6.28,6.28,0,0,0-1.94-4.51A6.76,6.76,0,0,0,25,18.63Z"/>
  </g>
</svg>
