<svg xmlns="http://www.w3.org/2000/svg" width="50" height="50" viewBox="0 0 50 50">
  <defs>
    <style>
      .a {
        fill: #40ddb6;
      }

      .b {
        fill: #fff;
        fill-rule: evenodd;
      }
    </style>
  </defs>
  <title>Ресурс 1</title>
  <g>
    <path class="a" d="M25,0h0A25,25,0,0,1,50,25h0A25,25,0,0,1,25,50h0A25,25,0,0,1,0,25H0A25,25,0,0,1,25,0Z"/>
    <path class="b" d="M36.92,25.07A11.71,11.71,0,0,0,25,13.59,11.71,11.71,0,0,0,13.08,25.07,11.61,11.61,0,0,0,23.14,36.4v-8h-3V25.07h3V22.54a4.13,4.13,0,0,1,4.5-4.46,19.49,19.49,0,0,1,2.67.22v2.82H28.8a1.69,1.69,0,0,0-1.94,1.8v2.15h3.31l-.53,3.32H26.86v8A11.63,11.63,0,0,0,36.92,25.07Z"/>
  </g>
</svg>
