<svg xmlns="http://www.w3.org/2000/svg" width="50" height="50" viewBox="0 0 50 50">
  <defs>
    <style>
      .a {
        fill: #40ddb6;
      }

      .b {
        fill: #fff;
      }
    </style>
  </defs>
  <title>Ресурс 3</title>
  <g>
    <path class="a" d="M25,0h0A25,25,0,0,1,50,25h0A25,25,0,0,1,25,50h0A25,25,0,0,1,0,25H0A25,25,0,0,1,25,0Z"/>
    <path class="b" d="M37.77,17.21a10.82,10.82,0,0,1-3,.81,5.16,5.16,0,0,0,2.3-2.85,10.68,10.68,0,0,1-3.32,1.25,5.27,5.27,0,0,0-3.83-1.63,5.14,5.14,0,0,0-5.1,6.33A15,15,0,0,1,14,15.73a5,5,0,0,0-.71,2.59,5.12,5.12,0,0,0,2.34,4.29A5.19,5.19,0,0,1,13.26,22V22a5.18,5.18,0,0,0,4.2,5.06,5.39,5.39,0,0,1-1.38.18,5.54,5.54,0,0,1-1-.1A5.24,5.24,0,0,0,20,30.75a10.55,10.55,0,0,1-7.76,2.13,14.82,14.82,0,0,0,8,2.33A14.68,14.68,0,0,0,35.17,20.54c0-.22,0-.44,0-.66A10.55,10.55,0,0,0,37.77,17.21Z"/>
  </g>
</svg>
