<svg xmlns="http://www.w3.org/2000/svg" width="89" height="98" viewBox="0 0 89 98">
  <defs>
    <style>
      .a {
        fill: #2c4a52;
      }

      .b {
        fill: #8e9b97;
      }
    </style>
  </defs>
  <title>Ресурс 5</title>
  <g>
    <path class="a" d="M88.67,27.69a12.5,12.5,0,0,0-4.28-6.4,26.28,26.28,0,0,0-4.3-2.74c-7.67-4.27-15.34-8.55-23-12.78A107.66,107.66,0,0,0,47,.77c-.67-.29-1.35-.51-2-.77h-.86c-.89.35-1.81.62-2.65,1.05C37.8,2.82,34.18,4.52,30.67,6.46c-7.82,4.27-15.57,8.67-23.36,13a15.54,15.54,0,0,0-5.37,4.7A10.72,10.72,0,0,0,.05,29.1c0,.06,0,.11,0,.17V68.59a15.31,15.31,0,0,0,.4,1.62,12.62,12.62,0,0,0,3.76,5.47,20.16,20.16,0,0,0,3.6,2.37c7.59,4.4,15.16,8.81,22.77,13.15,3.7,2.11,7.45,4.15,11.34,5.89.78.34,1.6.61,2.41.91h.43c4.71-1.63,9-4.18,13.3-6.57,8.58-4.7,17-9.62,25.38-14.69a11.66,11.66,0,0,0,5.43-7.32c.07-.28.11-.55.18-.83V29.27C88.89,28.74,88.81,28.21,88.67,27.69ZM82.59,71.14A9.49,9.49,0,0,1,80.35,73c-8.42,5-16.86,10-25.44,14.67C52,89.26,49,90.77,46,92.29c-1.52.77-1.53.75-3.06,0-4.3-2-8.48-4.32-12.6-6.7-7.31-4.21-14.6-8.48-21.89-12.72A8,8,0,0,1,5,69a3.75,3.75,0,0,1-.27-1.36q0-18.66,0-37.31a6.2,6.2,0,0,1,1.7-4.12,12.16,12.16,0,0,1,3.46-2.67c7-3.93,14-7.91,21.08-11.78,3.57-2,7.25-3.78,10.89-5.63.74-.39,1.54-.7,2.32-1a.8.8,0,0,1,.59,0c1.52.68,3,1.35,4.53,2.09,6.87,3.42,13.58,7.17,20.26,11Q74.74,21,79.85,24a9,9,0,0,1,4,4.27,5.25,5.25,0,0,1,.42,2.17V48.92c0,6,0,12,0,18A6,6,0,0,1,82.59,71.14Z"/>
    <path class="b" d="M84.26,49.18V30.67c0-.26,0-.51,0-.76a5.16,5.16,0,0,0-.4-1.68,9,9,0,0,0-4-4.27Q74.74,21,69.58,18.13C62.9,14.35,56.19,10.6,49.32,7.18c-1.49-.74-3-1.41-4.53-2.09a.8.8,0,0,0-.59,0c-.78.32-1.58.63-2.32,1C38.24,8,34.56,9.76,31,11.74c-7.06,3.87-14,7.85-21.08,11.78a12.16,12.16,0,0,0-3.46,2.67,6.2,6.2,0,0,0-1.7,4.12q0,18.65,0,37.31a3.84,3.84,0,0,0,.09.75,3,3,0,0,0,.22.87,7.91,7.91,0,0,0,3.43,3.9c7.3,4.25,14.59,8.52,21.91,12.72,4.12,2.36,8.3,4.66,12.58,6.71,1.54.73,1.56.76,3.07,0,3-1.52,6-3,8.89-4.63,8.58-4.7,17-9.68,25.42-14.67a9.39,9.39,0,0,0,2.26-1.85,6.06,6.06,0,0,0,1.66-4.25C84.22,61.17,84.26,55.17,84.26,49.18Zm-67.83,23A3.88,3.88,0,0,1,16,71a4.49,4.49,0,0,1-.09-1q0-7,0-14.09A3.78,3.78,0,0,1,19.72,52H69.3a3.81,3.81,0,0,1,3.17,1.56,4,4,0,0,1,.61,2.19V69.84a3.78,3.78,0,0,1-3.88,3.9H19.58A3.79,3.79,0,0,1,16.43,72.16ZM72.48,26.93a4.24,4.24,0,0,1,.6,2.23v14a3.78,3.78,0,0,1-3.85,3.9H19.54a3.78,3.78,0,0,1-3.1-1.56,3.93,3.93,0,0,1-.6-2.12V29.27a3.77,3.77,0,0,1,3.85-3.89H69.27A3.82,3.82,0,0,1,72.48,26.93Z"/>
    <path class="a" d="M37.84,67.43A5.93,5.93,0,0,1,35,66.54a.92.92,0,0,1-.38-1.31A.88.88,0,0,1,35.9,65a3.78,3.78,0,0,0,2.11.63.93.93,0,0,0,.45-.1.73.73,0,0,0,.33-.41.62.62,0,0,0-.24-.47,6.11,6.11,0,0,0-.95-.39c-.45-.16-.93-.29-1.37-.49a2,2,0,0,1-1.33-2,2.25,2.25,0,0,1,1.34-2.18,3.76,3.76,0,0,1,2.64-.18,7.33,7.33,0,0,1,1.26.46.91.91,0,0,1,.44,1.24.93.93,0,0,1-1.22.39c-.49-.19-1-.33-1.48-.48a.5.5,0,0,0-.21,0c-.32,0-.66,0-.75.42s.22.55.5.67c.49.2,1,.36,1.5.55.21.08.42.18.62.28A2.06,2.06,0,0,1,40.81,65a2.2,2.2,0,0,1-1.52,2.09A11.3,11.3,0,0,1,37.84,67.43Z"/>
    <path class="a" d="M44.94,67.41a5.71,5.71,0,0,1-2.87-.9.91.91,0,0,1-.34-1.27A.87.87,0,0,1,43,65a3.82,3.82,0,0,0,2.12.64,1.33,1.33,0,0,0,.48-.1.47.47,0,0,0,.08-.87,3.28,3.28,0,0,0-.74-.33c-.51-.18-1-.31-1.54-.53a2.08,2.08,0,0,1-1.39-2,2.28,2.28,0,0,1,1.39-2.22,4.27,4.27,0,0,1,3.29,0,4.91,4.91,0,0,1,.62.28.93.93,0,0,1,.38,1.24.91.91,0,0,1-1.2.37c-.36-.15-.72-.29-1.09-.41a2.11,2.11,0,0,0-.56-.09c-.44,0-.77.16-.81.43-.07.43.27.55.56.68s.75.28,1.13.42.6.22.89.37a2.06,2.06,0,0,1,1.32,2.16,2.27,2.27,0,0,1-1.67,2.13A9.85,9.85,0,0,1,44.94,67.41Z"/>
    <path class="a" d="M30.57,59.18a4.44,4.44,0,0,1,2.4.74,1.06,1.06,0,0,1,.4,1.54,1,1,0,0,1-1.57.12,1.94,1.94,0,0,0-2.35,0,2.39,2.39,0,0,0-.62,2.69,1.9,1.9,0,0,0,2,1.23,2.57,2.57,0,0,0,1.26-.53.94.94,0,0,1,1.53.65,1,1,0,0,1-.39.88,3.9,3.9,0,0,1-2.83.94A4,4,0,0,1,26.52,64a4,4,0,0,1,2.77-4.56A11.1,11.1,0,0,1,30.57,59.18Z"/>
    <path class="a" d="M56.18,63s0,.07.06.07a2,2,0,0,1,1.31,2.28,7.23,7.23,0,0,0,0,.93,1.22,1.22,0,0,0,.81,1.16c.18.08.37.15.55.24a.79.79,0,0,1,.4,1,.73.73,0,0,1-.82.54,4.71,4.71,0,0,1-2.16-.87,2,2,0,0,1-.8-1.58c0-.51,0-1,0-1.54,0-.88-.33-1.18-1.2-1.3a.87.87,0,0,1-.81-1.16.84.84,0,0,1,.64-.57,2,2,0,0,1,.35-.05,1.05,1.05,0,0,0,1-1.06,10,10,0,0,0,0-1.22,2.37,2.37,0,0,1,1.58-2.57,10.19,10.19,0,0,1,1.22-.39.78.78,0,0,1,1,.51.81.81,0,0,1-.53,1l-.23.09a1.42,1.42,0,0,0-1,1.68,9.74,9.74,0,0,1,0,1.08,1.72,1.72,0,0,1-1,1.56Z"/>
    <path class="a" d="M63.72,63a2,2,0,0,1-1.38-2.38c0-.1,0-.2,0-.29.08-1.11-.14-1.47-1.17-1.88a.81.81,0,0,1-.58-1.06.76.76,0,0,1,1-.48,9.68,9.68,0,0,1,1.65.63,2,2,0,0,1,1.09,1.82c0,.49,0,1,0,1.47,0,.9.3,1.18,1.18,1.32.68.11,1,.56.84,1.14a.82.82,0,0,1-.76.61c-1,.07-1.29.56-1.27,1.58,0,.35,0,.71,0,1.07A2.24,2.24,0,0,1,63,68.69a8.8,8.8,0,0,1-1.45.48.75.75,0,0,1-.95-.53.81.81,0,0,1,.51-1c.1,0,.2-.07.3-.12a1.41,1.41,0,0,0,1-1.64c0-.33-.05-.67,0-1a1.78,1.78,0,0,1,1.1-1.7l.22-.11S63.67,63.05,63.72,63Z"/>
    <path class="a" d="M25.36,66.06a1.27,1.27,0,0,1-2.54,0,1.27,1.27,0,1,1,2.54,0Z"/>
    <path class="a" d="M46.19,34.57a2.69,2.69,0,0,1,4.46,0l.25-.24a3.12,3.12,0,0,1,3.15-.83,2.16,2.16,0,0,1,1.7,2.11c.09,1.6.07,3.2,0,4.81a1.05,1.05,0,0,1-1.17,1,1.1,1.1,0,0,1-1.05-1.14c0-1.09,0-2.18,0-3.27a2.78,2.78,0,0,0-.06-.64,1.15,1.15,0,0,0-1.21-1,1.2,1.2,0,0,0-1.25,1,3.47,3.47,0,0,0-.06.64c0,1.09,0,2.18,0,3.27a1.11,1.11,0,0,1-2.14.42,2.46,2.46,0,0,1-.09-.67c0-1,0-2,0-3.05a3.27,3.27,0,0,0,0-.54,1.17,1.17,0,0,0-1.18-1.07,1.21,1.21,0,0,0-1.3,1,3.74,3.74,0,0,0-.07.75c0,1,0,2.08,0,3.12a1.1,1.1,0,1,1-2.2,0V34.73a1.11,1.11,0,0,1,1-1.26C45.61,33.42,46.06,33.8,46.19,34.57Z"/>
    <path class="a" d="M31.26,34.57a2.83,2.83,0,0,1,.2-.28,2.64,2.64,0,0,1,2.76-.79A2.43,2.43,0,0,1,36,36c0,1.5,0,3,0,4.49a1.1,1.1,0,0,1-2.2,0c0-1.08,0-2.16,0-3.23a6,6,0,0,0-.05-.61,1.22,1.22,0,0,0-1.29-1.13,1.24,1.24,0,0,0-1.31,1.15,2.89,2.89,0,0,0,0,.5c0,1.07,0,2.13,0,3.2a1.11,1.11,0,1,1-2.21,0q0-4.22,0-8.44a1.11,1.11,0,1,1,2.21,0c0,.78,0,1.56,0,2.34v.34Z"/>
    <path class="a" d="M40.53,33.55h.95a1,1,0,0,1,1,.91.94.94,0,0,1-.84,1,9.15,9.15,0,0,1-1,0c0,.12,0,.19,0,.27,0,1,0,2,0,3,0,.67.21.85.86.83a.94.94,0,0,1,1,.73.9.9,0,0,1-.63,1.07,3.45,3.45,0,0,1-2.13.07,1.75,1.75,0,0,1-1.29-1.78c0-1.17,0-2.34,0-3.52v-.56c-.82-.34-1.07-.62-1-1.14s.34-.75,1-.9c0-.3,0-.61,0-.92a1.11,1.11,0,1,1,2.21,0Z"/>
    <path class="a" d="M21.85,36.24,26,38.14a1.56,1.56,0,0,1,.5.33,1,1,0,0,1,.09,1.19,1,1,0,0,1-1.19.29c-.88-.41-1.75-.84-2.63-1.26l-2.34-1.12a1.43,1.43,0,0,1,0-2.65l4.91-2.35A.91.91,0,0,1,26.7,33a1,1,0,0,1-.54,1.33L22.33,36C22.18,36.07,22,36.15,21.85,36.24Z"/>
    <path class="a" d="M67.21,36.26l-3.28-1.48-1-.47A1,1,0,0,1,62.35,33a1,1,0,0,1,1.35-.38l4.88,2.34a1.39,1.39,0,0,1,.89,1.31,1.36,1.36,0,0,1-.86,1.32l-4.93,2.38a.93.93,0,0,1-1.32-.38,1,1,0,0,1,.53-1.33l4-1.79Z"/>
    <path class="a" d="M57.8,36.07V31.86a1.12,1.12,0,1,1,2.22,0v8.37a1.12,1.12,0,1,1-2.22,0Z"/>
  </g>
</svg>
