<svg xmlns="http://www.w3.org/2000/svg" width="45" height="50" viewBox="0 0 45 50">
  <defs>
    <style>
      .a {
        fill: #2c4a52;
      }

      .b {
        fill: #8e9b97;
      }
    </style>
  </defs>
  <title>Ресурс 1</title>
  <g>
    <path class="a" d="M44.81,14.13a6.41,6.41,0,0,0-2.17-3.27,13.63,13.63,0,0,0-2.17-1.4L28.84,2.94A53.89,53.89,0,0,0,23.74.39c-.34-.15-.68-.26-1-.39h-.44c-.45.18-.91.32-1.34.54-1.86.9-3.69,1.77-5.47,2.76-4,2.17-7.87,4.42-11.81,6.63A7.72,7.72,0,0,0,1,12.33a5.33,5.33,0,0,0-1,2.52V35a7.72,7.72,0,0,0,.2.83,6.42,6.42,0,0,0,1.9,2.79,10.28,10.28,0,0,0,1.82,1.21c3.84,2.25,7.67,4.5,11.52,6.71,1.87,1.08,3.76,2.12,5.73,3,.39.17.81.31,1.22.46h.22a42.53,42.53,0,0,0,6.72-3.35c4.34-2.4,8.6-4.91,12.83-7.5a5.94,5.94,0,0,0,2.75-3.73c0-.14.05-.28.09-.43V14.93C44.92,14.66,44.88,14.39,44.81,14.13ZM41.73,36.3a4.64,4.64,0,0,1-1.13.94c-4.26,2.56-8.52,5.11-12.86,7.49-1.47.81-3,1.58-4.51,2.36-.77.39-.77.38-1.54,0-2.18-1-4.29-2.21-6.37-3.42-3.7-2.15-7.39-4.33-11.07-6.49a4.07,4.07,0,0,1-1.75-2,1.8,1.8,0,0,1-.13-.69v-19a3.12,3.12,0,0,1,.86-2.1A6.11,6.11,0,0,1,5,12c3.53-2,7.07-4,10.65-6,1.81-1,3.67-1.93,5.51-2.87a10.1,10.1,0,0,1,1.17-.51.39.39,0,0,1,.3,0c.77.34,1.52.69,2.29,1.06,3.48,1.75,6.87,3.66,10.25,5.62,1.74.94,3.48,1.92,5.2,2.94a4.6,4.6,0,0,1,2,2.18,2.64,2.64,0,0,1,.21,1.11V34.14A3,3,0,0,1,41.73,36.3Z"/>
    <path class="b" d="M42.58,25.09V15.26a2.91,2.91,0,0,0-.2-.86,4.62,4.62,0,0,0-2-2.18c-1.72-1-3.46-2-5.19-3-3.38-1.93-6.77-3.84-10.25-5.59-.75-.37-1.52-.72-2.29-1.06a.39.39,0,0,0-.3,0c-.39.16-.8.32-1.17.51-1.84,1-3.7,1.87-5.5,2.88C12.08,8,8.57,10,5,12a6.25,6.25,0,0,0-1.75,1.36,3.22,3.22,0,0,0-.86,2.1v19a1.58,1.58,0,0,0,.05.38,1.35,1.35,0,0,0,.11.45,4.05,4.05,0,0,0,1.73,2c3.69,2.16,7.38,4.34,11.08,6.49,2.08,1.2,4.2,2.37,6.36,3.42.78.37.79.39,1.55,0,1.52-.78,3-1.53,4.5-2.36,4.34-2.4,8.59-4.94,12.85-7.49a4.69,4.69,0,0,0,1.14-.94,3.11,3.11,0,0,0,.84-2.17C42.56,31.21,42.58,28.15,42.58,25.09ZM8.28,36.83a2.12,2.12,0,0,1-.22-.61,2.78,2.78,0,0,1,0-.51V28.53a1.92,1.92,0,0,1,1.84-2H35a1.91,1.91,0,0,1,1.61.8,2.16,2.16,0,0,1,.31,1.11v7.19a1.92,1.92,0,0,1-1.85,2H9.87a1.93,1.93,0,0,1-1.59-.8ZM36.62,13.74a2.17,2.17,0,0,1,.31,1.14V22a1.93,1.93,0,0,1-1.85,2H9.85a1.88,1.88,0,0,1-1.56-.8A2,2,0,0,1,8,22.13v-7.2a1.92,1.92,0,0,1,1.85-2H35A1.92,1.92,0,0,1,36.62,13.74Z"/>
    <path class="a" d="M19.11,34.4A2.94,2.94,0,0,1,17.67,34a.47.47,0,0,1-.21-.63.08.08,0,0,1,0,0,.44.44,0,0,1,.61-.14l0,0a1.81,1.81,0,0,0,1.06.32.37.37,0,0,0,.23,0,.36.36,0,0,0,.17-.21.37.37,0,0,0-.12-.24,3.19,3.19,0,0,0-.48-.19c-.23-.09-.47-.15-.7-.25a1,1,0,0,1-.67-1,1.18,1.18,0,0,1,.68-1.12,1.91,1.91,0,0,1,1.33-.09,3.51,3.51,0,0,1,.64.24.46.46,0,0,1,.23.61v0a.46.46,0,0,1-.61.2c-.25-.1-.51-.17-.75-.25H19c-.16,0-.33,0-.38.22s.11.28.25.34l.76.28.32.14a1.07,1.07,0,0,1,.64,1,1.12,1.12,0,0,1-.77,1.07A6,6,0,0,1,19.11,34.4Z"/>
    <path class="a" d="M22.7,34.39a2.86,2.86,0,0,1-1.45-.46.46.46,0,0,1-.19-.63h0a.44.44,0,0,1,.61-.15l0,0a1.85,1.85,0,0,0,1.07.33.69.69,0,0,0,.24-.05.24.24,0,0,0,.16-.3.26.26,0,0,0-.12-.15,1.73,1.73,0,0,0-.37-.16c-.26-.1-.51-.16-.78-.27a1.07,1.07,0,0,1-.7-1,1.16,1.16,0,0,1,.7-1.14,2.17,2.17,0,0,1,1.66,0,2.3,2.3,0,0,1,.32.15.48.48,0,0,1,.19.63.47.47,0,0,1-.61.19,5.2,5.2,0,0,0-.55-.21.92.92,0,0,0-.28-.05c-.23,0-.39.08-.41.22s.13.28.28.35l.57.21c.19.07.3.12.45.19a1.06,1.06,0,0,1,.67,1.1,1.16,1.16,0,0,1-.85,1.09A3.65,3.65,0,0,1,22.7,34.39Z"/>
    <path class="a" d="M15.43,30.19a2.28,2.28,0,0,1,1.21.38.54.54,0,0,1,.24.73l0,.06a.51.51,0,0,1-.7.14.39.39,0,0,1-.1-.08,1,1,0,0,0-1.18,0,1.22,1.22,0,0,0-.32,1.37,1,1,0,0,0,1,.63,1.31,1.31,0,0,0,.64-.27.47.47,0,0,1,.67.07.4.4,0,0,1,.1.26.52.52,0,0,1-.19.45,2,2,0,0,1-1.43.48,2.1,2.1,0,0,1-.57-4.08C15,30.27,15.21,30.23,15.43,30.19Z"/>
    <path class="a" d="M28.38,32.14s0,0,0,0a1,1,0,0,1,.66,1.16,3.84,3.84,0,0,0,0,.48.64.64,0,0,0,.41.59c.09,0,.19.07.28.12A.4.4,0,0,1,30,35a.36.36,0,0,1-.41.28,2.39,2.39,0,0,1-1.09-.45,1,1,0,0,1-.41-.8v-.79c0-.45-.17-.6-.61-.66a.45.45,0,0,1-.43-.45A.32.32,0,0,1,27,32a.42.42,0,0,1,.32-.3l.18,0a.53.53,0,0,0,.5-.54c0-.21,0-.42,0-.62a1.22,1.22,0,0,1,.8-1.32,6.36,6.36,0,0,1,.62-.19.38.38,0,0,1,.5.24v0a.41.41,0,0,1-.27.51l-.11,0a.73.73,0,0,0-.51.86,5,5,0,0,1,0,.55.88.88,0,0,1-.5.8Z"/>
    <path class="a" d="M32.19,32.14a1,1,0,0,1-.7-1.21v-.15c.05-.57-.07-.75-.59-1a.4.4,0,0,1-.3-.49.09.09,0,0,1,0,0,.38.38,0,0,1,.48-.25h0a4.44,4.44,0,0,1,.83.32,1,1,0,0,1,.55.93V31c0,.45.15.6.6.67s.5.28.42.58a.41.41,0,0,1-.38.31c-.51,0-.65.29-.64.81V34a1.17,1.17,0,0,1-.67,1.1,4.79,4.79,0,0,1-.73.24.39.39,0,0,1-.48-.25v0a.41.41,0,0,1,.25-.51.47.47,0,0,0,.15-.06.72.72,0,0,0,.51-.84,4.34,4.34,0,0,1,0-.51.92.92,0,0,1,.56-.87l.11,0S32.17,32.17,32.19,32.14Z"/>
    <path class="a" d="M12.8,33.7a.65.65,0,1,1-.64-.64.65.65,0,0,1,.64.64Z"/>
    <path class="a" d="M23.33,17.64a1.35,1.35,0,0,1,1.89-.37,1.27,1.27,0,0,1,.36.37l.13-.12a1.56,1.56,0,0,1,1.59-.43,1.09,1.09,0,0,1,.86,1.08,22.25,22.25,0,0,1,0,2.45.54.54,0,0,1-.55.52h0a.56.56,0,0,1-.53-.58V18.88a1.66,1.66,0,0,0,0-.32.58.58,0,0,0-.61-.51.6.6,0,0,0-.63.51,1.66,1.66,0,0,0,0,.32v1.67a.57.57,0,0,1-.56.57.58.58,0,0,1-.53-.35,1.39,1.39,0,0,1,0-.35V18.87a1.31,1.31,0,0,0,0-.28.59.59,0,0,0-.6-.54.61.61,0,0,0-.66.51,2.34,2.34,0,0,0,0,.38v1.59a.56.56,0,1,1-1.11,0V17.72a.56.56,0,0,1,.47-.64h0C23,17.05,23.26,17.24,23.33,17.64Z"/>
    <path class="a" d="M15.78,17.64a1.3,1.3,0,0,1,.1-.15,1.34,1.34,0,0,1,1.4-.4,1.25,1.25,0,0,1,.9,1.28v2.29a.56.56,0,0,1-1.12,0V19c0-.1,0-.21,0-.31a.62.62,0,0,0-.65-.58.63.63,0,0,0-.67.59V20.6a.56.56,0,1,1-1.11.1.17.17,0,0,1,0-.1V16.29a.56.56,0,0,1,.5-.62.56.56,0,0,1,.61.51.2.2,0,0,1,0,.11v1.37Z"/>
    <path class="a" d="M20.47,17.12H21a.5.5,0,0,1,.5.46.48.48,0,0,1-.42.51,4.34,4.34,0,0,1-.51,0v1.67c0,.34.11.43.44.42a.47.47,0,0,1,.5.38.45.45,0,0,1-.32.54,1.7,1.7,0,0,1-1.07,0,.89.89,0,0,1-.65-.91V18.15c-.42-.18-.55-.32-.51-.58s.17-.39.51-.46v-.47a.56.56,0,1,1,1.11-.11.21.21,0,0,1,0,.11Z"/>
    <path class="a" d="M11,18.49l2.1,1a.74.74,0,0,1,.25.17.5.5,0,0,1,.05.6.48.48,0,0,1-.6.15l-1.33-.64-1.19-.57a.73.73,0,0,1-.39-1,.7.7,0,0,1,.39-.4l2.49-1.2a.46.46,0,0,1,.64.12.3.3,0,0,1,0,.1.51.51,0,0,1-.25.67h0l-1.93.85A1.42,1.42,0,0,0,11,18.49Z"/>
    <path class="a" d="M34,18.5l-1.66-.76-.51-.23a.51.51,0,0,1-.29-.66h0a.5.5,0,0,1,.68-.2l2.47,1.2a.71.71,0,0,1,.45.67.7.7,0,0,1-.43.67l-2.5,1.21a.46.46,0,0,1-.64-.15s0,0,0,0a.5.5,0,0,1,.25-.67h0l2-.91Z"/>
    <path class="a" d="M29.2,18.4V16.26a.58.58,0,0,1,.49-.65.56.56,0,0,1,.63.49.43.43,0,0,1,0,.16v4.27a.57.57,0,0,1-.48.64.57.57,0,0,1-.64-.49.38.38,0,0,1,0-.15Z"/>
  </g>
</svg>
