<svg xmlns="http://www.w3.org/2000/svg" width="20.02" height="18.02" viewBox="0 0 20.02 18.02">
  <defs>
    <style>
      .a {
        fill: #fff;
      }
    </style>
  </defs>
  <title>menu_gear_hover</title>
  <g>
    <path class="a" d="M14.14,6.72a.6.6,0,0,1-.21.66l-1.29,1a5.33,5.33,0,0,1-.06,1.38L13.8,11a.62.62,0,0,1,.17.68,6.73,6.73,0,0,1-.5.91l-.14.22a7.47,7.47,0,0,1-.67.84.73.73,0,0,1-.72.16l-1.59-.52A6.27,6.27,0,0,1,9,13.94l-.41,1.55a.65.65,0,0,1-.55.47,8.31,8.31,0,0,1-2.49-.07.63.63,0,0,1-.51-.49l-.31-1.57a6.16,6.16,0,0,1-1.27-.73l-1.64.44a.63.63,0,0,1-.64-.31,6.46,6.46,0,0,1-.62-.86l-.13-.23a6.23,6.23,0,0,1-.42-1,.56.56,0,0,1,.21-.65l1.29-1A5,5,0,0,1,1.58,8.1L.37,7.1a.59.59,0,0,1-.16-.67,6.89,6.89,0,0,1,.51-1l.15-.22a6.75,6.75,0,0,1,.67-.83.67.67,0,0,1,.71-.17l1.6.53a5.44,5.44,0,0,1,1.3-.7l.42-1.55a.62.62,0,0,1,.55-.46A7.35,7.35,0,0,1,7.36,2a10.38,10.38,0,0,1,1.25.13.66.66,0,0,1,.51.49l.27,1.53a5.14,5.14,0,0,1,1.27.72l1.63-.44a.7.7,0,0,1,.71.2,6,6,0,0,1,.61.88l.13.22a5.91,5.91,0,0,1,.43,1ZM7,11.16A2.29,2.29,0,0,0,9.4,9,2.22,2.22,0,0,0,7.25,6.74H7.14A2.28,2.28,0,0,0,4.76,8.87a2.23,2.23,0,0,0,2.16,2.28H7Z"/>
    <path class="a" d="M19.27,1.45a.36.36,0,0,0,0-.46,2.09,2.09,0,0,0-.2-.22L18.93.69,18.66.5a.44.44,0,0,0-.49,0l-.46.31a2.57,2.57,0,0,0-.77-.15L16.65.22A.39.39,0,0,0,16.22,0a1.61,1.61,0,0,0-.38.08h0l-.37.15a.39.39,0,0,0-.23.41l.07.5a2.22,2.22,0,0,0-.54.56h-.56a.38.38,0,0,0-.4.26,1.71,1.71,0,0,1-.09.3v.11a1.5,1.5,0,0,0,0,.3.41.41,0,0,0,.25.4l.5.23a2.21,2.21,0,0,0,.24.71l-.28.46a.36.36,0,0,0,0,.46l.23.23.09.07.26.2a.5.5,0,0,0,.5,0L16,5.13a2.69,2.69,0,0,0,.79.15l.28.45a.43.43,0,0,0,.44.21l.38-.09.34-.1a.4.4,0,0,0,.23-.41V4.81a2.3,2.3,0,0,0,.53-.55h.56A.4.4,0,0,0,19.9,4a1.18,1.18,0,0,0,.1-.3V3.6a1.6,1.6,0,0,0,0-.31.39.39,0,0,0-.26-.39l-.51-.22a1.36,1.36,0,0,0-.1-.36A1.63,1.63,0,0,0,19,2l.29-.46ZM16,3.24a.84.84,0,0,1,.5-1.07h.07a.93.93,0,0,1,1.15.55.88.88,0,0,1-.49,1.12h-.1A.92.92,0,0,1,16,3.3Z"/>
    <path class="a" d="M18.53,13a.37.37,0,0,0-.21-.42L18,12.4h-.1a1,1,0,0,0-.27-.17.39.39,0,0,0-.44.18l-.31.44a2.3,2.3,0,0,0-.78.11l-.43-.34a.44.44,0,0,0-.49,0l-.31.2h0a2.09,2.09,0,0,0-.28.24.38.38,0,0,0-.07.45l.26.48a1.91,1.91,0,0,0-.29.69l-.53.19a.41.41,0,0,0-.28.37,1.71,1.71,0,0,0,0,.32v.1a1.16,1.16,0,0,0,.07.31.45.45,0,0,0,.39.28h.56a2.14,2.14,0,0,0,.5.58l-.09.53a.37.37,0,0,0,.2.41c.09,0,.19.09.29.14h.1l.3.1a.45.45,0,0,0,.45-.17l.3-.45a2.93,2.93,0,0,0,.78-.1l.44.32a.44.44,0,0,0,.49,0,3.28,3.28,0,0,0,.59-.45.37.37,0,0,0,.07-.46l-.25-.47a2.66,2.66,0,0,0,.29-.7l.52-.17A.43.43,0,0,0,20,15v-.42a.48.48,0,0,0-.07-.3.41.41,0,0,0-.39-.28H19a1.81,1.81,0,0,0-.22-.32,1.79,1.79,0,0,0-.28-.27l.09-.53ZM16.1,15.74a.83.83,0,0,1,.12-1.16h0a1,1,0,0,1,1.28.13.84.84,0,0,1-.14,1.17h0A1,1,0,0,1,16.1,15.74Z"/>
  </g>
</svg>
