<svg xmlns="http://www.w3.org/2000/svg" width="20" height="18" viewBox="0 0 20 18">
  <defs>
    <style>
      .a {
        fill: #47118d;
      }
    </style>
  </defs>
  <title>menu_envelope_open_solid</title>
  <path class="a" d="M2.5,7.32l7.5-5,7.5,5V9l-6.19,4.13A2.3,2.3,0,0,1,10,13.5a2.4,2.4,0,0,1-1.31-.39L2.5,9ZM10,0A2.4,2.4,0,0,0,8.69.39L1,5.51A2.18,2.18,0,0,0,0,7.32v8.43A2.39,2.39,0,0,0,2.5,18h15A2.39,2.39,0,0,0,20,15.75V7.32a2.18,2.18,0,0,0-1-1.81L11.31.39A2.4,2.4,0,0,0,10,0Z"/>
</svg>
