<svg xmlns="http://www.w3.org/2000/svg" width="14" height="18" viewBox="0 0 14 18">
  <title>Ресурс 1</title>
  <g>
    <path d="M11.54,7.25a.5.5,0,0,1-.2.53l-1.08.79a3.77,3.77,0,0,1-.1,1.11l.94,1a.49.49,0,0,1,.11.55,5.33,5.33,0,0,1-.44.72l-.12.17a5.89,5.89,0,0,1-.57.65.58.58,0,0,1-.59.1l-1.26-.48a4.75,4.75,0,0,1-1.08.48l-.39,1.23a.53.53,0,0,1-.46.36,6.55,6.55,0,0,1-2-.15.5.5,0,0,1-.39-.42l-.19-1.27a4.86,4.86,0,0,1-1-.64l-1.33.29A.52.52,0,0,1,.88,12a4.61,4.61,0,0,1-.46-.72l-.1-.19a5.24,5.24,0,0,1-.3-.78.47.47,0,0,1,.19-.52L1.29,9a4.21,4.21,0,0,1,.1-1.12L.45,7a.48.48,0,0,1-.1-.55,5.37,5.37,0,0,1,.43-.73l.13-.17a4.92,4.92,0,0,1,.57-.64.54.54,0,0,1,.58-.11l1.27.49A4.52,4.52,0,0,1,4.4,4.77l.4-1.23a.51.51,0,0,1,.46-.35,6.54,6.54,0,0,1,1,0,8.46,8.46,0,0,1,1,.15.53.53,0,0,1,.39.42L7.81,5a4.32,4.32,0,0,1,1,.63l1.33-.29a.56.56,0,0,1,.56.19,5,5,0,0,1,.46.73l.09.18a4.37,4.37,0,0,1,.31.78Zm-5.91,3.3a1.83,1.83,0,0,0,2-1.62A1.79,1.79,0,0,0,5.9,7a1.83,1.83,0,0,0-2,1.62A1.8,1.8,0,0,0,5.63,10.55Z"/>
    <path d="M13.18,1.25a.33.33,0,0,0,0-.4A1.8,1.8,0,0,0,13,.66L12.88.59,12.65.42a.39.39,0,0,0-.43,0l-.4.27a2.15,2.15,0,0,0-.67-.13L10.9.18A.36.36,0,0,0,10.52,0a1.94,1.94,0,0,0-.33.07h0L9.87.2a.35.35,0,0,0-.2.36L9.73,1a2.14,2.14,0,0,0-.47.48H8.77a.36.36,0,0,0-.35.23c0,.09-.06.18-.08.26l0,.1a2.34,2.34,0,0,0,0,.26.36.36,0,0,0,.22.35L9,2.88a1.69,1.69,0,0,0,.21.62l-.25.4a.33.33,0,0,0,0,.4c.07.07.13.14.2.2l.08.06.23.17a.4.4,0,0,0,.43,0l.39-.27a2.28,2.28,0,0,0,.68.13l.25.4a.36.36,0,0,0,.38.18l.33-.08A2,2,0,0,0,12.23,5a.34.34,0,0,0,.2-.35l0-.47a2.1,2.1,0,0,0,.46-.48h.49a.36.36,0,0,0,.35-.23,1.12,1.12,0,0,0,.08-.26l0-.09a1.26,1.26,0,0,0,0-.27.34.34,0,0,0-.22-.34l-.45-.19c0-.1-.05-.21-.08-.31a2.92,2.92,0,0,0-.14-.31l.25-.4ZM10.3,2.81a.73.73,0,0,1,.5-.95.81.81,0,0,1,1,.48.75.75,0,0,1-.51,1h0a.8.8,0,0,1-1-.47Z"/>
    <path d="M12.75,13.61a.33.33,0,0,0-.18-.36l-.25-.11-.09,0A1.29,1.29,0,0,0,12,13a.34.34,0,0,0-.38.15l-.26.38a1.87,1.87,0,0,0-.67.09l-.37-.29a.38.38,0,0,0-.42,0l-.26.17h0a1.64,1.64,0,0,0-.24.21.31.31,0,0,0-.06.38l.22.41a1.81,1.81,0,0,0-.25.59l-.45.16a.35.35,0,0,0-.24.32,2.45,2.45,0,0,0,0,.27l0,.09a1.1,1.1,0,0,0,.06.26.35.35,0,0,0,.33.24l.48,0a1.87,1.87,0,0,0,.43.5l-.08.45a.32.32,0,0,0,.17.35c.08,0,.17.08.25.12l.09,0,.28.08a.37.37,0,0,0,.38-.15l.26-.38a2.46,2.46,0,0,0,.67-.09l.37.28a.38.38,0,0,0,.42,0,2.46,2.46,0,0,0,.51-.39.32.32,0,0,0,.06-.39l-.22-.4a2,2,0,0,0,.25-.6l.45-.15a.35.35,0,0,0,.24-.32,2.45,2.45,0,0,0,0-.27l0-.09a2,2,0,0,0-.06-.26.35.35,0,0,0-.33-.24l-.48,0a1.85,1.85,0,0,0-.19-.27,1.75,1.75,0,0,0-.24-.23l.08-.45ZM10.67,16a.71.71,0,0,1,.12-1h0a.82.82,0,0,1,1.1.11.72.72,0,0,1-.12,1h0a.83.83,0,0,1-1.1-.11Z"/>
  </g>
</svg>
