<svg xmlns="http://www.w3.org/2000/svg" width="20.02" height="18" viewBox="0 0 20.02 18">
  <defs>
    <style>
      .a {
        fill: #fff;
      }
    </style>
  </defs>
  <title>menu_house_chimney_hover</title>
  <g>
    <path class="a" d="M10.47,4.39l6.73,5.87a1.7,1.7,0,0,1,.59,1.29v4.17a1.31,1.31,0,0,1,0,.28v.59A1.39,1.39,0,0,1,16.4,18H13.62a1.4,1.4,0,0,1-1.39-1.41h0v-3.1a1.11,1.11,0,0,0-1.11-1.11H8.9A1.14,1.14,0,0,0,7.79,13.5v3.09A1.39,1.39,0,0,1,6.4,18H3.62a1.4,1.4,0,0,1-1.39-1.39V11.34a1.14,1.14,0,0,1,.4-.87L9.55,4.39A.7.7,0,0,1,10.47,4.39Z"/>
    <path class="a" d="M20,9a1.12,1.12,0,0,1-1.12,1.11h-.35L11.08,3.59a1.64,1.64,0,0,0-2.14,0L1.5,10.13H1.1A1.15,1.15,0,0,1,0,8.92a1.23,1.23,0,0,1,.36-.79L9.24.28A1,1,0,0,1,10,0a1.13,1.13,0,0,1,.75.25l3.7,3.29V2.24a1.11,1.11,0,0,1,1.11-1.11h1.11a1.13,1.13,0,0,1,1.11,1.12V6.5l1.84,1.66A.94.94,0,0,1,20,9Z"/>
  </g>
</svg>
