<svg xmlns="http://www.w3.org/2000/svg" width="20" height="18" viewBox="0 0 20 18">
  <title>Ресурс 1</title>
  <path d="M0,.84A.84.84,0,0,1,.84,0H2.43A2,2,0,0,1,4.21,1.13H18.6A1.4,1.4,0,0,1,20,2.9L18.51,8.25a2.51,2.51,0,0,1-2.43,1.88H6l.19,1a.84.84,0,0,0,.82.68h10.1a.85.85,0,0,1,0,1.69H7a2.51,2.51,0,0,1-2.47-2.06L2.71,1.92a.27.27,0,0,0-.28-.23H.84A.84.84,0,0,1,0,.84ZM4.48,16.31A1.68,1.68,0,1,1,6.16,18a1.68,1.68,0,0,1-1.68-1.69Zm11.77-1.68a1.69,1.69,0,0,1,0,3.37h0a1.69,1.69,0,0,1,0-3.37Z"/>
</svg>
