<svg xmlns="http://www.w3.org/2000/svg" width="20" height="18" viewBox="0 0 20 18">
  <defs>
    <style>
      .a {
        fill: #47118d;
      }
    </style>
  </defs>
  <title>Ресурс 2</title>
  <g>
    <path class="a" d="M14.12,6.71a.6.6,0,0,1-.21.66l-1.29,1a5.33,5.33,0,0,1-.06,1.38L13.78,11a.62.62,0,0,1,.17.68,6.18,6.18,0,0,1-.5.91l-.14.22a6.86,6.86,0,0,1-.67.84.71.71,0,0,1-.72.16l-1.59-.52A6,6,0,0,1,9,13.93l-.41,1.55a.65.65,0,0,1-.55.47,8,8,0,0,1-2.49-.07.62.62,0,0,1-.51-.49l-.31-1.57a5.73,5.73,0,0,1-1.27-.73l-1.64.44a.63.63,0,0,1-.64-.31,5.38,5.38,0,0,1-.62-.86l-.13-.23a5.38,5.38,0,0,1-.42-1,.57.57,0,0,1,.21-.65l1.29-1a5,5,0,0,1,.05-1.39l-1.21-1a.59.59,0,0,1-.16-.67A6.89,6.89,0,0,1,.7,5.45l.15-.22a6.58,6.58,0,0,1,.67-.83.67.67,0,0,1,.71-.17l1.6.53a5.44,5.44,0,0,1,1.3-.7l.42-1.55a.63.63,0,0,1,.55-.46A8.58,8.58,0,0,1,7.34,2a10.6,10.6,0,0,1,1.25.13.66.66,0,0,1,.51.49l.27,1.53a5.33,5.33,0,0,1,1.27.72l1.63-.44a.72.72,0,0,1,.71.2,6.58,6.58,0,0,1,.61.88l.13.22a6.27,6.27,0,0,1,.43,1ZM7,11.15A2.28,2.28,0,0,0,9.38,9,2.22,2.22,0,0,0,7.23,6.73H7.12A2.28,2.28,0,0,0,4.74,8.86a2.22,2.22,0,0,0,2.17,2.28Z"/>
    <path class="a" d="M19.25,1.44a.36.36,0,0,0,0-.46,2.09,2.09,0,0,0-.2-.22L18.91.68,18.64.49a.44.44,0,0,0-.49,0L17.69.8a2.57,2.57,0,0,0-.77-.15L16.63.21A.4.4,0,0,0,16.2,0a1.61,1.61,0,0,0-.38.08h0l-.37.15a.4.4,0,0,0-.23.41l.07.5a2.39,2.39,0,0,0-.54.56h-.56a.39.39,0,0,0-.4.26,1.49,1.49,0,0,1-.09.3v.11a1.5,1.5,0,0,0,0,.3.4.4,0,0,0,.25.4l.5.23a2.13,2.13,0,0,0,.24.71l-.28.46a.36.36,0,0,0,0,.46l.23.23.09.07.26.2a.5.5,0,0,0,.5,0l.44-.31a2.69,2.69,0,0,0,.79.15l.28.45a.42.42,0,0,0,.44.21l.38-.09.34-.1a.4.4,0,0,0,.23-.41V4.8a2.31,2.31,0,0,0,.53-.55h.56a.4.4,0,0,0,.4-.26,1.18,1.18,0,0,0,.1-.3v-.1a1.61,1.61,0,0,0,0-.31.4.4,0,0,0-.26-.39l-.51-.22a1.3,1.3,0,0,0-.1-.36A2.21,2.21,0,0,0,19,2l.29-.46ZM16,3.23a.84.84,0,0,1,.5-1.07l.07,0a.93.93,0,0,1,1.15.55.87.87,0,0,1-.49,1.12l-.1,0h0a.92.92,0,0,1-1.15-.54Z"/>
    <path class="a" d="M18.51,12.94a.38.38,0,0,0-.21-.42L18,12.39H17.9a1.24,1.24,0,0,0-.27-.17.4.4,0,0,0-.44.18l-.31.44a2.3,2.3,0,0,0-.78.11l-.43-.34a.44.44,0,0,0-.49,0l-.31.2h0a2.09,2.09,0,0,0-.28.24.38.38,0,0,0-.07.45l.26.48a1.91,1.91,0,0,0-.29.69l-.53.19a.41.41,0,0,0-.28.37,1.71,1.71,0,0,0,0,.32v.1a1.08,1.08,0,0,0,.07.31.42.42,0,0,0,.39.28h.56a2.14,2.14,0,0,0,.5.58l-.09.53a.36.36,0,0,0,.2.41c.09,0,.19.09.29.14h.1L16,18a.44.44,0,0,0,.45-.17l.3-.45a2.93,2.93,0,0,0,.78-.1l.44.32a.44.44,0,0,0,.49,0,2.88,2.88,0,0,0,.59-.45.37.37,0,0,0,.07-.46l-.25-.47a2.41,2.41,0,0,0,.29-.7l.52-.17A.43.43,0,0,0,20,15v-.42c0-.1,0-.2-.07-.3a.41.41,0,0,0-.39-.28H19a2.57,2.57,0,0,0-.22-.32,2.37,2.37,0,0,0-.28-.27l.09-.53Zm-2.43,2.79a.82.82,0,0,1,.13-1.16h0a1,1,0,0,1,1.28.13.84.84,0,0,1-.14,1.17h0A1,1,0,0,1,16.08,15.73Z"/>
  </g>
</svg>
