<svg xmlns="http://www.w3.org/2000/svg" width="20" height="18" viewBox="0 0 20 18">
  <defs>
    <style>
      .a {
        fill: #47118d;
      }
    </style>
  </defs>
  <title>menu_cart_shopping_solid</title>
  <path class="a" d="M0,.84A.86.86,0,0,1,.87,0H2.52A2.09,2.09,0,0,1,4.37,1.13l.56,1.62,13.56,0A1.43,1.43,0,0,1,20,4.08,1.51,1.51,0,0,1,20,4.5l-.77,3.08a2.59,2.59,0,0,1-2.52,1.88H6.19l.24,1.67a.86.86,0,0,0,.85.68H17.77a.86.86,0,0,1,.78.94.87.87,0,0,1-.78.75H7.27A2.59,2.59,0,0,1,4.7,11.44L2.81,1.92a.27.27,0,0,0-.29-.23H.87A.86.86,0,0,1,0,.85ZM4.65,16.31a1.71,1.71,0,0,1,1.76-1.67A1.68,1.68,0,1,1,6.4,18a1.71,1.71,0,0,1-1.75-1.68Zm12.22-1.68a1.69,1.69,0,0,1,0,3.37h0a1.69,1.69,0,0,1,0-3.37Z"/>
</svg>
