<svg xmlns="http://www.w3.org/2000/svg" width="20" height="18" viewBox="0 0 20 18">
  <title>Ресурс 1</title>
  <path d="M18.88,10.11A1.12,1.12,0,0,0,20,9a.94.94,0,0,0-.38-.84L17.78,6.5V2.25a1.12,1.12,0,0,0-1.11-1.12H15.56a1.11,1.11,0,0,0-1.11,1.12V3.54L10.75.25A1.14,1.14,0,0,0,10,0a1,1,0,0,0-.77.28L.35,8.14A1.12,1.12,0,0,0,0,9a1.11,1.11,0,0,0,1.11,1.13H2.22v6.48A1.4,1.4,0,0,0,3.61,18H6.39a1.4,1.4,0,0,0,1.39-1.41V13.5a1.12,1.12,0,0,1,1.11-1.12h2.22a1.11,1.11,0,0,1,1.11,1.12v3.09A1.4,1.4,0,0,0,13.61,18h2.78a1.4,1.4,0,0,0,1.39-1.41V16a2.46,2.46,0,0,0,0-.28l0-5.63Z"/>
</svg>
