<svg xmlns="http://www.w3.org/2000/svg" width="20" height="18" viewBox="0 0 20 18">
  <defs>
    <style>
      .a {
        fill: #47118d;
      }
    </style>
  </defs>
  <title>menu_house_chimney_solid</title>
  <g>
    <path class="a" d="M10.46,4.39l6.73,5.87a1.7,1.7,0,0,1,.59,1.29v4.17a1.31,1.31,0,0,1,0,.28v.59A1.4,1.4,0,0,1,16.39,18H13.61a1.4,1.4,0,0,1-1.39-1.41v-3.1a1.11,1.11,0,0,0-1.11-1.11H8.89A1.13,1.13,0,0,0,7.78,13.5v3.09A1.4,1.4,0,0,1,6.39,18H3.61a1.4,1.4,0,0,1-1.39-1.39V11.34a1.12,1.12,0,0,1,.4-.87L9.54,4.39A.7.7,0,0,1,10.46,4.39Z"/>
    <path class="a" d="M20,9a1.13,1.13,0,0,1-1.12,1.11h-.35L11.07,3.59a1.63,1.63,0,0,0-2.14,0L1.49,10.13h-.4a1.16,1.16,0,0,1-.74-2L9.23.28A1,1,0,0,1,10,0a1.13,1.13,0,0,1,.75.25l3.7,3.29V2.24a1.11,1.11,0,0,1,1.11-1.11h1.11a1.13,1.13,0,0,1,1.11,1.12V6.5l1.84,1.66A.94.94,0,0,1,20,9Z"/>
  </g>
</svg>
